<svg width="187" height="187" viewBox="0 0 187 187" fill="none" xmlns="http://www.w3.org/2000/svg">
<path d="M81.5778 99.0913H46.1133V120.643H81.5778V99.0913Z" fill="#AAC5E7"/>
<path d="M69.0019 110.321H53.7427C53.4903 110.321 53.2939 110.124 53.2939 109.872C53.2939 109.619 53.4903 109.423 53.7427 109.423H69.0019C69.2544 109.423 69.4507 109.619 69.4507 109.872C69.4507 110.124 69.2544 110.321 69.0019 110.321Z" fill="white"/>
<path d="M101.11 67.8903L101.784 100.662C106.075 100.073 110.17 100.615 114.35 102.008C119.062 103.579 120.521 106.88 122.653 110.087L143.756 110.76V72.1913C143.756 69.8164 141.83 67.8903 139.455 67.8903H101.11Z" fill="#FEEB8F"/>
<path d="M136.799 76.6419H125.355C125.103 76.6419 124.906 76.4455 124.906 76.1931C124.906 75.9406 125.103 75.7443 125.355 75.7443H136.799C137.052 75.7443 137.248 75.9406 137.248 76.1931C137.248 76.4455 137.052 76.6419 136.799 76.6419Z" fill="white"/>
<path d="M136.799 86.4125H128.272C128.02 86.4125 127.823 86.2161 127.823 85.9637C127.823 85.7112 128.02 85.5149 128.272 85.5149H136.799C137.052 85.5149 137.248 85.7112 137.248 85.9637C137.248 86.2161 137.052 86.4125 136.799 86.4125Z" fill="white"/>
<path d="M136.8 96.174H123.102C122.85 96.174 122.653 95.9776 122.653 95.7252C122.653 95.4727 122.85 95.2764 123.102 95.2764H136.8C137.052 95.2764 137.249 95.4727 137.249 95.7252C137.249 95.9776 137.052 96.174 136.8 96.174Z" fill="white"/>
<path d="M143.756 110.769H152.068L141.624 100.325L143.756 110.769Z" fill="#FEEB8F"/>
<path d="M40.2697 111.892C41.8809 111.892 43.1869 110.585 43.1869 108.974C43.1869 107.363 41.8809 106.057 40.2697 106.057C38.6586 106.057 37.3525 107.363 37.3525 108.974C37.3525 110.585 38.6586 111.892 40.2697 111.892Z" fill="#FF5E66"/>
<path d="M140.166 64.9732C141.529 64.9732 142.634 63.868 142.634 62.5048C142.634 61.1415 141.529 60.0364 140.166 60.0364C138.802 60.0364 137.697 61.1415 137.697 62.5048C137.697 63.868 138.802 64.9732 140.166 64.9732Z" fill="#AAC5E7"/>
<path d="M86.4777 41.1775L85.0752 43.1971C84.7386 43.6833 85.552 44.1321 85.8793 43.6459L87.2724 41.6263C87.609 41.1494 86.8049 40.7006 86.4777 41.1775Z" fill="#FF5E66"/>
<path d="M35.8755 104.701C35.408 103.879 34.9405 103.056 34.4823 102.233C34.1925 101.728 33.3884 102.177 33.6782 102.682C34.1457 103.505 34.6132 104.327 35.0714 105.15C35.3612 105.664 36.1653 105.216 35.8755 104.701Z" fill="#FF5E66"/>
<path d="M144.466 129.535C143.849 130.059 143.223 130.582 142.606 131.106C142.157 131.489 142.811 132.116 143.26 131.742C143.877 131.218 144.504 130.694 145.121 130.171C145.57 129.787 144.915 129.152 144.466 129.535Z" fill="#FF5E66"/>
<path d="M120.671 96.8477C120.175 95.6789 119.034 94.959 118.249 94.0053C116.501 91.8828 116.977 89.2274 117.651 86.7964C118.483 83.7951 119.334 80.9433 118.071 77.9233C116.379 73.8747 110.928 72.0608 107.889 75.324C107.805 75.3707 107.74 75.4455 107.702 75.5297C107.497 75.7728 107.31 76.0346 107.132 76.3338C106.833 76.8293 107.609 77.2781 107.908 76.7826C108.011 76.6049 108.132 76.4366 108.254 76.287C113.574 78.4001 110.517 85.3378 109.516 89.2087C108.815 91.9109 108.619 94.8561 110.348 97.2123C111.928 99.3628 115.416 101.476 118.174 100.924C120.082 100.55 121.475 98.7551 120.671 96.8477Z" fill="black"/>
<path d="M93.5366 72.1635C90.6381 68.358 92.8821 63.1968 96.9213 64.992C100.96 66.7872 109.301 72.0793 109.619 77.521C109.936 82.9534 110.61 89.2366 104.551 90.1342C98.5014 91.0318 93.5366 72.1635 93.5366 72.1635Z" fill="black"/>
<path d="M103.14 100.531C103.14 100.531 103.065 97.8385 102.504 91.2935C104.963 90.424 106.842 86.5624 106.842 86.5624C111.172 87.245 115.734 85.7022 115.323 81.1394C115.024 77.9043 111.957 77.2124 109.638 77.5116C108.684 77.6332 107.852 77.923 107.394 78.269C107.394 78.269 108.198 74.9217 103.299 72.1915C99.082 69.8353 95.903 69.7698 93.5468 72.1634C92.6866 73.033 91.9386 74.2391 91.2934 75.7725C89.3299 80.4195 87.0205 85.1412 87.5441 87.6751C88.0583 90.1809 90.3023 91.4712 92.8175 92.1911L93.4813 101.12C93.9769 102.289 98.8669 106.73 103.14 100.531Z" fill="white"/>
<path d="M98.1278 104.206C97.9502 104.206 97.7912 104.197 97.6323 104.178C95.3509 103.954 93.4435 102.177 93.0695 101.289C93.0508 101.242 93.0414 101.195 93.0321 101.149L92.3869 92.5278C89.2921 91.5835 87.5623 90.022 87.0948 87.7687C86.618 85.4499 88.2729 81.6351 90.0214 77.5865C90.3019 76.932 90.5917 76.2682 90.8722 75.6043C91.5548 73.9868 92.3215 72.7619 93.2191 71.855C95.6875 69.3398 99.0535 69.3211 103.504 71.8082C107.169 73.8465 107.814 76.2401 107.88 77.5024C108.357 77.306 108.946 77.1564 109.572 77.0723C110.451 76.9601 112.648 76.8385 114.247 78.1195C115.135 78.8301 115.65 79.8399 115.762 81.1021C115.921 82.8319 115.407 84.2998 114.275 85.3657C112.714 86.8337 110.04 87.4508 107.094 87.0581C106.608 87.965 105.037 90.6578 102.98 91.5928C103.513 97.8386 103.598 100.503 103.598 100.531C103.598 100.625 103.57 100.718 103.523 100.803C101.606 103.542 99.6051 104.206 98.1278 104.206ZM93.9203 100.999C94.2195 101.551 95.7342 103.084 97.7164 103.29C99.5397 103.467 101.204 102.504 102.691 100.401C102.663 99.7554 102.541 96.9597 102.055 91.331C102.036 91.1253 102.158 90.9383 102.354 90.8729C104.607 90.0781 106.421 86.4036 106.44 86.3662C106.524 86.1885 106.72 86.0857 106.917 86.1231C109.684 86.5625 112.274 86.0202 113.668 84.7112C114.603 83.8323 115.014 82.6542 114.874 81.1863C114.78 80.1765 114.378 79.3817 113.686 78.8207C112.761 78.0821 111.265 77.7548 109.684 77.9605C108.843 78.0727 108.058 78.3252 107.646 78.6337C107.497 78.7459 107.291 78.7553 107.132 78.6431C106.973 78.5402 106.898 78.3439 106.945 78.1662C106.973 78.0447 107.581 75.0994 103.065 72.5843C98.96 70.2935 96.0334 70.2561 93.8549 72.4814C93.0508 73.2949 92.3215 74.4636 91.695 75.9503C91.4145 76.6141 91.1247 77.278 90.8442 77.9418C89.2266 81.6818 87.553 85.5527 87.9737 87.591C88.3758 89.5545 90.0027 90.9196 92.9386 91.7611C93.1162 91.8172 93.2471 91.9762 93.2658 92.1632L93.9203 100.999Z" fill="black"/>
<path d="M92.939 82.9346C92.752 82.9346 92.5837 82.8224 92.5182 82.6354C91.5739 79.952 93.2568 77.7547 96.4639 74.8843C96.6509 74.716 96.9314 74.7347 97.0997 74.9217C97.268 75.1087 97.2493 75.3892 97.0623 75.5575C93.6496 78.6149 92.6865 80.3914 93.3691 82.3456C93.4532 82.5793 93.3317 82.8318 93.0979 82.9159C93.0418 82.9253 92.9857 82.9346 92.939 82.9346Z" fill="black"/>
<path d="M101.366 77.6303C101.399 77.3222 101.176 77.0459 100.868 77.0132C100.56 76.9804 100.283 77.2036 100.251 77.5117C100.218 77.8198 100.441 78.0961 100.749 78.1289C101.057 78.1616 101.334 77.9384 101.366 77.6303Z" fill="black"/>
<path d="M94.1408 75.3928C94.1736 75.0847 93.9504 74.8084 93.6423 74.7756C93.3342 74.7429 93.0579 74.9661 93.0251 75.2742C92.9924 75.5823 93.2156 75.8586 93.5237 75.8913C93.8318 75.9241 94.1081 75.7009 94.1408 75.3928Z" fill="black"/>
<path d="M96.6977 86.656C97.7823 87.0674 98.923 86.4316 99.0913 85.2722C99.1755 84.7018 100.073 84.7953 99.9796 85.3657C99.7178 87.0954 98.0067 88.1146 96.3611 87.4881C95.8281 87.2824 96.1554 86.4503 96.6977 86.656Z" fill="black"/>
<path d="M100.952 74.5758C101.102 74.3701 101.373 74.3514 101.579 74.4823C101.794 74.6132 101.999 74.7534 102.214 74.8843C102.42 75.0152 102.448 75.3238 102.308 75.5108C102.158 75.7165 101.887 75.7352 101.682 75.6043C101.466 75.4734 101.261 75.3331 101.046 75.2022C100.84 75.0713 100.812 74.7534 100.952 74.5758Z" fill="black"/>
<path d="M94.8369 72.0793L95.3979 72.1354C95.9682 72.2009 95.8747 73.0891 95.3044 73.0237L94.7434 72.9676C94.1637 72.9115 94.2572 72.0232 94.8369 72.0793Z" fill="black"/>
<path d="M107.581 83.2526C107.497 83.2526 107.413 83.2339 107.338 83.1778C107.132 83.0469 107.067 82.7664 107.198 82.5607C107.843 81.5602 110.236 80.0081 112.078 80.5785C112.312 80.6533 112.443 80.9057 112.368 81.1395C112.293 81.3732 112.041 81.5041 111.807 81.4293C110.386 80.9899 108.385 82.3643 107.955 83.0375C107.871 83.1778 107.731 83.2526 107.581 83.2526Z" fill="black"/>
<path d="M108.104 75.7727C107.609 74.5572 106.683 73.6129 105.533 72.9958C105.495 72.9771 105.467 72.9771 105.43 72.9677C105.439 72.8555 105.449 72.7433 105.458 72.6311C105.524 72.0608 104.626 72.0608 104.56 72.6311C104.383 74.1271 104.635 75.6418 105.365 76.9695C105.804 77.7736 106.72 78.9704 107.768 78.3627C108.684 77.8297 108.431 76.5675 108.104 75.7727Z" fill="black"/>
<path d="M82.2512 131.873C82.0175 131.873 81.8211 131.686 81.8024 131.452L80.9142 116.352C79.0816 114.369 59.5214 93.0795 55.8281 86.9926L54.4163 84.6551C50.9848 79.0171 46.7119 71.9952 38.4278 57.7926C38.3062 57.5775 38.3717 57.3064 38.5867 57.1755C38.8018 57.0539 39.0729 57.1194 39.2038 57.3344C47.4879 71.5371 51.7515 78.5496 55.183 84.1876L56.5948 86.5158C60.3442 92.6868 81.4658 115.622 81.6809 115.847C81.7557 115.922 81.7931 116.024 81.8024 116.127L82.7 131.396C82.7187 131.639 82.5224 131.854 82.2793 131.873C82.2699 131.873 82.2606 131.873 82.2512 131.873Z" fill="black"/>
<path d="M70.5818 104.187C70.4228 104.187 70.2732 104.103 70.1891 103.954C70.0675 103.738 70.1423 103.467 70.3574 103.346C75.6214 100.391 77.9776 95.6414 77.7626 93.9116C77.7345 93.6685 77.9028 93.4441 78.1553 93.4067C78.4077 93.3787 78.6228 93.547 78.6602 93.7994C78.8939 95.6694 76.7715 100.784 70.8062 104.122C70.7314 104.169 70.6566 104.187 70.5818 104.187Z" fill="black"/>
<path d="M40.456 54.6415C40.3812 54.6415 40.3158 54.6415 40.241 54.6322C38.4738 54.4826 36.2766 52.3227 35.7904 49.1063C35.753 48.8632 35.9213 48.6295 36.1644 48.5921C36.4168 48.564 36.6412 48.723 36.6786 48.9661C37.0807 51.6682 38.8852 53.613 40.3158 53.7346C41.2321 53.8187 41.6622 53.0988 41.8679 52.4817C41.9427 52.2479 42.1951 52.117 42.4382 52.2012C42.672 52.276 42.8029 52.5378 42.7187 52.7715C42.3167 53.9683 41.5032 54.6415 40.456 54.6415Z" fill="black"/>
<path d="M39.7174 56.2498C38.5206 56.2498 37.1742 55.5392 36.3046 54.4078C35.3229 53.1269 35.1452 51.5467 35.8184 50.0881C35.9213 49.8637 36.1831 49.7609 36.4168 49.8637C36.6412 49.9666 36.7441 50.2377 36.6412 50.4621C35.9213 52.0329 36.5758 53.2671 37.0246 53.8655C37.8006 54.8753 39.0722 55.4924 40.0353 55.3335C40.6056 55.24 40.989 54.8847 41.1947 54.2863C41.2695 54.0525 41.5219 53.9216 41.765 54.0058C41.9988 54.0806 42.1297 54.3424 42.0455 54.5761C41.7463 55.4831 41.0825 56.0721 40.1849 56.2217C40.0353 56.2404 39.8763 56.2498 39.7174 56.2498Z" fill="black"/>
<path d="M38.7735 57.8112C37.8011 57.8112 36.7445 57.2596 36.0246 56.362C35.2298 55.3709 35.0335 54.1928 35.4823 53.1269C35.5758 52.9025 35.8469 52.7903 36.0713 52.8838C36.2957 52.9773 36.4079 53.2391 36.3144 53.4728C35.9965 54.2208 36.1461 55.0717 36.7258 55.801C37.3429 56.577 38.2966 57.0258 39.0353 56.8856C39.5776 56.7921 39.9609 56.3994 40.1853 55.7355C40.2601 55.5018 40.5126 55.3709 40.7557 55.455C40.9894 55.5298 41.1203 55.7916 41.0362 56.0254C40.7089 56.9978 40.0544 57.6242 39.1942 57.7738C39.054 57.8019 38.9137 57.8112 38.7735 57.8112Z" fill="black"/>
<path d="M93.9193 101.149C93.9006 101.382 93.7043 101.56 93.4705 101.56C93.4612 101.56 93.4518 101.56 93.4425 101.56C92.7973 101.513 92.1989 101.476 91.6473 101.438C84.934 100.999 84.2327 100.952 75.6214 91.0786C68.8426 83.3088 58.941 67.0865 53.6208 58.363C51.7228 55.2494 50.3483 53.0054 49.7873 52.2107C48.0295 49.7423 43.5883 47.3767 41.6715 47.4702C41.5032 47.4796 41.2134 47.517 41.1199 47.6759C40.8113 48.2182 42.1671 49.1626 43.3639 49.9947C44.542 50.8175 45.7575 51.659 46.2904 52.6221C46.412 52.8371 46.3278 53.1083 46.1128 53.2298C45.8977 53.3514 45.6266 53.2766 45.505 53.0522C45.3461 52.7623 45.0843 52.4631 44.757 52.1733C44.2241 51.6871 43.5322 51.2009 42.8496 50.7334C41.204 49.5833 39.6519 48.5081 40.3251 47.2645C40.3345 47.2552 40.3345 47.2365 40.3438 47.2271C40.5028 46.9466 40.8581 46.6007 41.6341 46.5633C43.8314 46.4511 48.5531 48.9101 50.526 51.6777C51.115 52.5005 52.4895 54.7539 54.3969 57.8861C59.7077 66.5816 69.5813 82.7665 76.3133 90.4802C84.6815 100.073 85.2145 100.101 91.7221 100.531C92.2737 100.569 92.8721 100.606 93.5173 100.653C93.751 100.681 93.938 100.896 93.9193 101.149Z" fill="black"/>
<path d="M130.069 129.619C129.891 129.619 129.723 129.517 129.648 129.339C129.62 129.264 126.459 121.363 122.243 110.929C118.306 101.186 111.49 101.093 104.281 100.99L103.131 100.971C102.879 100.971 102.682 100.765 102.692 100.513C102.692 100.27 102.897 100.073 103.141 100.073H103.15L104.3 100.092C111.49 100.195 118.914 100.298 123.084 110.592C127.301 121.027 130.461 128.918 130.489 129.002C130.583 129.236 130.471 129.498 130.237 129.582C130.181 129.61 130.125 129.619 130.069 129.619Z" fill="black"/>
<path d="M118.614 131.648C118.427 131.648 118.259 131.536 118.194 131.349L115.211 123.065L115.697 131.171C115.716 131.414 115.52 131.63 115.276 131.648C115.033 131.658 114.818 131.471 114.8 131.227L114.126 120.007C114.117 119.783 114.267 119.587 114.482 119.54C114.697 119.493 114.921 119.615 114.996 119.83L119.035 131.05C119.119 131.284 118.998 131.536 118.764 131.62C118.717 131.639 118.67 131.648 118.614 131.648Z" fill="black"/>
<path d="M126.983 122.28C125.636 123.635 120.447 126.684 116.642 124.916C116.735 125.272 116.819 125.627 116.903 125.982C117.651 126.235 118.437 126.347 119.222 126.347C122.56 126.347 125.973 124.374 127.366 123.14C127.235 122.859 127.104 122.57 126.983 122.28Z" fill="black"/>
<path d="M93.1733 99.0916L91.2285 100.887L95.8661 107.927L97.8203 103.131L93.1733 99.0916Z" fill="white"/>
<path d="M95.8656 108.376C95.716 108.376 95.5758 108.301 95.4916 108.17L90.854 101.139C90.7325 100.952 90.7605 100.709 90.9288 100.56L92.8736 98.7643C93.0419 98.6054 93.3037 98.6054 93.472 98.755L98.1096 102.794C98.2499 102.916 98.306 103.121 98.2312 103.299L96.2864 108.086C96.2209 108.245 96.0807 108.348 95.9124 108.367C95.903 108.376 95.8843 108.376 95.8656 108.376ZM91.8171 100.962L95.7721 106.964L97.2775 103.262L93.1822 99.6993L91.8171 100.962Z" fill="black"/>
<path d="M97.8203 103.131L100.364 107.778L105.3 100.588L103.206 98.6428L97.8203 103.131Z" fill="white"/>
<path d="M100.364 108.227C100.354 108.227 100.345 108.227 100.345 108.227C100.186 108.217 100.046 108.133 99.9709 107.993L97.4277 103.355C97.3249 103.168 97.3716 102.934 97.5306 102.794L102.916 98.3062C103.094 98.166 103.346 98.166 103.505 98.3249L105.6 100.27C105.759 100.419 105.787 100.672 105.665 100.849L100.728 108.03C100.644 108.152 100.504 108.227 100.364 108.227ZM98.3908 103.243L100.41 106.918L104.721 100.653L103.197 99.2412L98.3908 103.243Z" fill="black"/>
<path d="M97.3707 118.848C97.3613 118.848 97.3613 118.848 97.3613 118.848C97.1182 118.839 96.9219 118.633 96.9219 118.39L97.3707 103.121C97.38 102.869 97.6044 102.691 97.8288 102.682C98.0719 102.691 98.2683 102.897 98.2683 103.14L97.8195 118.409C97.8101 118.661 97.6044 118.848 97.3707 118.848Z" fill="black"/>
<path d="M44.7489 52.1917L44.2253 53.5288L24.3379 41.7665L40.317 47.283C39.6532 48.5265 41.2053 49.6018 42.8415 50.7518C43.5241 51.2193 44.216 51.7055 44.7489 52.1917Z" fill="#000000"/>
<path d="M53.7436 36.7175L24.3379 41.7665L49.265 50.1628L53.7436 36.7175Z" fill="white"/>
<path d="M49.2651 50.6116C49.2183 50.6116 49.1716 50.6023 49.1248 50.5836L24.1977 42.1779C24.0014 42.1125 23.8798 41.9255 23.8892 41.7198C23.9079 41.5141 24.0575 41.3458 24.2632 41.3084L53.6689 36.2781C53.8279 36.25 53.9868 36.3061 54.0897 36.4277C54.1925 36.5492 54.2206 36.7082 54.1738 36.8578L49.6858 50.3031C49.6484 50.4153 49.5643 50.5088 49.4614 50.5649C49.396 50.6023 49.3305 50.6116 49.2651 50.6116ZM26.1612 41.9068L48.9752 49.6018L53.0799 37.2972L26.1612 41.9068Z" fill="#000000"/>
<path d="M51.7246 42.9728H51.7152L24.3291 42.2061C24.086 42.1967 23.8896 41.991 23.8896 41.7479C23.899 41.5048 24.1047 41.3272 24.3478 41.3085L51.7339 42.0752C51.977 42.0845 52.1734 42.2902 52.1734 42.5333C52.164 42.7858 51.9677 42.9728 51.7246 42.9728Z" fill="#000000"/>
<path d="M107.3 121.148L134.106 121.989L134.555 118.399" fill="#000000"/>
<path d="M136.902 101.083L107.3 121.148L138.669 117.969L136.902 101.083Z" fill="white"/>
<path d="M107.3 121.597C107.113 121.597 106.945 121.485 106.88 121.298C106.805 121.101 106.88 120.886 107.048 120.774L136.641 100.709C136.772 100.625 136.94 100.606 137.08 100.671C137.22 100.737 137.323 100.877 137.333 101.027L139.1 117.913C139.109 118.034 139.081 118.147 138.997 118.24C138.922 118.334 138.81 118.39 138.698 118.399L107.338 121.578C107.338 121.597 107.319 121.597 107.3 121.597ZM136.528 101.878L109.03 120.521L138.174 117.567L136.528 101.878Z" fill="#000000"/>
<path d="M107.3 121.597C107.123 121.597 106.954 121.494 106.889 121.325C106.795 121.101 106.898 120.83 107.132 120.736L137.398 108.002C137.622 107.908 137.893 108.011 137.987 108.245C138.08 108.469 137.978 108.74 137.744 108.834L107.478 121.569C107.422 121.587 107.366 121.597 107.3 121.597Z" fill="#000000"/>
<path d="M55.838 44.9734C55.7819 44.9734 55.7164 44.964 55.6603 44.936C54.8188 44.5807 53.9867 44.2908 53.1826 44.0758C52.9395 44.0103 52.7992 43.7672 52.8647 43.5241C52.9301 43.281 53.1732 43.1408 53.4163 43.2062C54.2672 43.4306 55.1461 43.7298 56.025 44.1038C56.2494 44.1973 56.3616 44.4685 56.2587 44.6929C56.1746 44.8705 56.0063 44.9734 55.838 44.9734Z" fill="#000000"/>
<path d="M98.6795 146.318C97.7445 146.318 96.8188 146.29 95.9119 146.234C95.0704 146.187 94.2102 146.112 93.3593 146.019C93.1162 145.991 92.9386 145.766 92.9573 145.523C92.9853 145.28 93.2004 145.093 93.4528 145.121C94.285 145.215 95.1358 145.28 95.9586 145.336C96.8469 145.383 97.7538 145.411 98.6701 145.411C98.9226 145.411 99.1189 145.617 99.1189 145.86C99.1283 146.112 98.9319 146.318 98.6795 146.318ZM103.953 146.056C103.728 146.056 103.532 145.879 103.504 145.654C103.476 145.411 103.663 145.187 103.906 145.159C105.627 144.99 107.366 144.729 109.086 144.401C109.329 144.355 109.563 144.514 109.61 144.757C109.656 145 109.497 145.233 109.254 145.28C107.506 145.617 105.739 145.879 103.99 146.056C103.981 146.056 103.962 146.056 103.953 146.056ZM88.2075 145.196C88.1794 145.196 88.142 145.196 88.114 145.187C86.3842 144.822 84.6545 144.383 82.9621 143.859C82.7284 143.784 82.5881 143.532 82.6629 143.298C82.7377 143.064 82.9902 142.924 83.2239 142.999C84.8882 143.504 86.5899 143.943 88.2916 144.298C88.5347 144.345 88.6937 144.588 88.6376 144.831C88.6002 145.046 88.4132 145.196 88.2075 145.196ZM114.303 144.046C114.107 144.046 113.929 143.915 113.873 143.719C113.808 143.485 113.939 143.233 114.182 143.158C115.874 142.662 117.538 142.083 119.128 141.447C119.362 141.353 119.623 141.465 119.717 141.69C119.81 141.924 119.698 142.185 119.474 142.279C117.866 142.933 116.173 143.513 114.444 144.018C114.387 144.037 114.35 144.046 114.303 144.046ZM78.1282 142.092C78.0721 142.092 78.016 142.083 77.9599 142.054C76.2582 141.344 74.6406 140.558 73.1633 139.736C72.9483 139.614 72.8735 139.343 72.995 139.128C73.1166 138.913 73.3877 138.838 73.6028 138.96C75.052 139.773 76.6322 140.54 78.3058 141.232C78.5302 141.325 78.6424 141.587 78.5489 141.821C78.4648 141.989 78.3058 142.092 78.1282 142.092ZM124.065 140.072C123.906 140.072 123.756 139.988 123.672 139.839C123.55 139.623 123.635 139.352 123.85 139.231C125.439 138.361 126.916 137.426 128.244 136.435C128.441 136.286 128.721 136.323 128.871 136.529C129.02 136.725 128.983 137.005 128.777 137.155C127.412 138.174 125.897 139.137 124.27 140.026C124.214 140.054 124.14 140.072 124.065 140.072ZM68.9932 136.856C68.8904 136.856 68.7969 136.818 68.7127 136.753C68.2546 136.379 67.8245 136.005 67.4318 135.622C66.263 135.762 65.0195 135.696 63.7759 135.425C63.5328 135.369 63.3832 135.135 63.43 134.892C63.4861 134.649 63.7198 134.5 63.9629 134.546C64.8605 134.743 65.7488 134.827 66.609 134.79C65.9919 134.107 65.4776 133.424 65.0756 132.742C64.9447 132.527 65.0195 132.256 65.2345 132.125C65.4496 131.994 65.7207 132.069 65.8516 132.284C66.3191 133.069 66.9549 133.873 67.7403 134.668C68.1517 134.603 68.5538 134.5 68.9371 134.378C69.1709 134.303 69.4233 134.434 69.5075 134.668C69.5823 134.902 69.4514 135.154 69.2176 135.238C68.9932 135.313 68.7688 135.379 68.5351 135.435C68.7688 135.65 69.0213 135.855 69.2737 136.07C69.4701 136.229 69.4981 136.51 69.3392 136.706C69.255 136.8 69.1241 136.856 68.9932 136.856ZM132.424 133.705C132.321 133.705 132.209 133.668 132.124 133.593C131.937 133.424 131.928 133.144 132.096 132.957C133.321 131.601 134.303 130.18 135.014 128.731C135.126 128.506 135.388 128.413 135.612 128.525C135.836 128.637 135.93 128.899 135.818 129.123C135.07 130.647 134.041 132.134 132.76 133.555C132.676 133.658 132.545 133.705 132.424 133.705ZM59.0542 133.35C58.97 133.35 58.8859 133.322 58.8111 133.275C57.3618 132.321 56.0061 131.115 54.7812 129.703C54.6223 129.516 54.641 129.236 54.828 129.067C55.015 128.908 55.2955 128.927 55.4638 129.114C56.6325 130.47 57.9228 131.611 59.3066 132.517C59.5123 132.658 59.5684 132.929 59.4375 133.144C59.344 133.284 59.2038 133.35 59.0542 133.35ZM73.3129 132.246C73.2288 132.246 73.1353 132.218 73.0605 132.162C72.8548 132.022 72.808 131.741 72.9483 131.536C73.4251 130.844 73.6776 130.115 73.6776 129.376C73.6776 128.609 73.4064 127.833 72.9015 127.141C72.7519 126.945 72.7987 126.664 72.995 126.515C73.1914 126.365 73.4719 126.412 73.6215 126.608C74.2479 127.459 74.5752 128.413 74.5752 129.376C74.5752 130.302 74.276 131.199 73.6869 132.041C73.5934 132.172 73.4532 132.246 73.3129 132.246ZM64.7857 127.936C64.7296 127.936 64.6829 127.927 64.6268 127.908C64.393 127.824 64.2808 127.562 64.365 127.328C65.141 125.271 66.7305 124.084 68.7314 124.084C68.9745 124.084 69.1802 124.28 69.1802 124.533C69.1802 124.776 68.9839 124.981 68.7314 124.981C67.1045 124.981 65.8516 125.926 65.2065 127.646C65.141 127.824 64.9634 127.936 64.7857 127.936ZM52.1726 125.496C52.0136 125.496 51.8547 125.411 51.7705 125.253C50.9664 123.71 50.2932 122.027 49.7883 120.278C49.7229 120.035 49.8538 119.792 50.0969 119.717C50.34 119.652 50.5831 119.783 50.6579 120.026C51.1441 121.728 51.7892 123.345 52.5746 124.832C52.6868 125.047 52.6027 125.327 52.3876 125.44C52.3222 125.486 52.2474 125.496 52.1726 125.496ZM49.218 115.435C48.9936 115.435 48.7972 115.267 48.7692 115.033C48.6383 113.808 48.5728 112.546 48.5728 111.284C48.5728 110.76 48.5822 110.227 48.6102 109.703C48.6196 109.451 48.8533 109.264 49.0777 109.273C49.3208 109.283 49.5172 109.488 49.5078 109.741C49.4891 110.255 49.4704 110.779 49.4704 111.284C49.4704 112.518 49.5359 113.752 49.6668 114.939C49.6948 115.183 49.5172 115.407 49.2647 115.435C49.246 115.435 49.2367 115.435 49.218 115.435ZM49.62 104.926C49.592 104.926 49.5733 104.926 49.5452 104.916C49.3021 104.87 49.1338 104.645 49.1806 104.393L49.2554 103.953C49.5546 102.308 49.807 100.709 50.0127 99.2034C50.0501 98.9603 50.2745 98.792 50.5176 98.8201C50.7607 98.8575 50.9384 99.0819 50.901 99.325C50.6953 100.84 50.4428 102.457 50.1343 104.112L50.0595 104.552C50.0314 104.767 49.8351 104.926 49.62 104.926ZM50.9758 94.463C50.9664 94.463 50.9571 94.463 50.9477 94.463C50.7046 94.4443 50.5083 94.2386 50.527 93.9861C50.5831 92.9857 50.6111 92.0226 50.6111 91.1157C50.6111 90.3022 50.5924 89.5168 50.5457 88.7688C50.527 88.5257 50.7233 88.3107 50.9664 88.292C51.2095 88.292 51.4246 88.4696 51.4433 88.7127C51.49 89.4794 51.5181 90.2929 51.5181 91.1157C51.5181 92.0413 51.49 93.0231 51.4339 94.0422C51.4152 94.276 51.2095 94.463 50.9758 94.463ZM45.7772 85.487C45.7678 85.487 45.7585 85.487 45.7491 85.487C43.795 85.3841 42.1213 84.8605 40.8965 83.9723C40.7843 83.8881 40.6721 83.804 40.5692 83.7198C40.3729 83.5609 40.3448 83.2804 40.5038 83.084C40.6627 82.8877 40.9432 82.8596 41.1396 83.0186C41.2331 83.0934 41.3266 83.1682 41.4294 83.243C42.5047 84.0284 44.0194 84.4959 45.7959 84.5894C46.039 84.5987 46.2353 84.8138 46.2166 85.0662C46.2166 85.3 46.0203 85.487 45.7772 85.487ZM51.0038 84.8886C50.8075 84.8886 50.6205 84.7577 50.5737 84.552C50.5083 84.3089 50.6579 84.0658 50.8916 84.0003C52.5185 83.5702 54.1361 82.9344 55.6975 82.1116C55.9219 81.9994 56.1837 82.0836 56.3053 82.2986C56.4175 82.5137 56.3333 82.7848 56.1183 82.9064C54.5007 83.7666 52.8177 84.4211 51.116 84.8699C51.0786 84.8886 51.0412 84.8886 51.0038 84.8886ZM50.1623 83.991C49.966 83.991 49.7883 83.8601 49.7322 83.6637C49.2086 81.8405 48.4419 80.3258 47.4508 79.1664C47.2919 78.9794 47.3106 78.6895 47.4976 78.5306C47.6846 78.3716 47.9651 78.3903 48.1334 78.5773C49.2086 79.8396 50.0408 81.4665 50.5924 83.4113C50.6579 83.6544 50.5176 83.8975 50.2839 83.9629C50.2465 83.9816 50.2091 83.991 50.1623 83.991ZM60.2603 79.9985C60.1294 79.9985 60.0079 79.9424 59.9237 79.8396C59.7648 79.6526 59.7835 79.3721 59.9705 79.2038C61.2982 78.0631 62.4763 76.7915 63.4674 75.4077C63.6076 75.202 63.8881 75.1646 64.0938 75.3048C64.2995 75.4451 64.3369 75.7256 64.1967 75.9313C63.1682 77.3712 61.9433 78.6989 60.5595 79.877C60.466 79.9705 60.3632 79.9985 60.2603 79.9985ZM39.2322 79.1757C39.1854 79.1757 39.1293 79.1664 39.0732 79.1477C38.8395 79.0635 38.7179 78.8017 38.8021 78.568C39.4846 76.698 41.392 75.4918 43.449 75.7069C43.6921 75.7349 43.8698 75.95 43.8511 76.2024C43.823 76.4455 43.608 76.6232 43.3555 76.6045C41.7473 76.4362 40.1859 77.4179 39.6529 78.8859C39.5875 79.0635 39.4098 79.1757 39.2322 79.1757ZM66.3378 71.5087C66.2817 71.5087 66.2256 71.4994 66.1789 71.4807C65.9451 71.3872 65.8329 71.1347 65.9171 70.901C66.4033 69.6294 66.7679 68.2923 66.9923 66.9272C67.0484 66.5813 67.0952 66.2353 67.1419 65.8987C67.17 65.6556 67.3944 65.478 67.6468 65.506C67.8899 65.5341 68.0676 65.7585 68.0395 66.0109C67.9928 66.3569 67.946 66.7122 67.8806 67.0768C67.6468 68.498 67.2728 69.9005 66.7586 71.2282C66.6838 71.3965 66.5155 71.5087 66.3378 71.5087ZM67.7216 61.1302C67.4879 61.1302 67.2915 60.9526 67.2728 60.7188C67.1232 58.961 66.7492 57.2687 66.1695 55.6979C66.0854 55.4641 66.2069 55.2117 66.4313 55.1182C66.6651 55.034 66.9175 55.1556 67.011 55.38C67.6188 57.0256 68.0021 58.7927 68.1704 60.6347C68.1891 60.8778 68.0115 61.1022 67.759 61.1209C67.7497 61.1302 67.731 61.1302 67.7216 61.1302ZM64.0751 51.3782C63.9349 51.3782 63.804 51.3127 63.7198 51.2005C62.71 49.8448 61.4945 48.6199 60.1014 47.5447C59.905 47.3951 59.8676 47.1146 60.0172 46.9182C60.1668 46.7219 60.4473 46.6845 60.6437 46.8341C62.0929 47.9561 63.3739 49.237 64.4304 50.6582C64.58 50.8546 64.5426 51.1351 64.3369 51.2847C64.2621 51.3501 64.1686 51.3782 64.0751 51.3782Z" fill="#000000"/>
<path d="M136.855 124.233C136.846 124.233 136.827 124.233 136.818 124.233C136.575 124.215 136.388 124 136.407 123.747C136.472 122.887 136.453 122.017 136.351 121.148C136.323 120.905 136.5 120.68 136.743 120.652C136.996 120.615 137.211 120.802 137.239 121.045C137.351 121.971 137.37 122.906 137.295 123.822C137.286 124.056 137.089 124.233 136.855 124.233Z" fill="#000000"/>
</svg>
