<svg width="320" height="201" viewBox="0 0 320 201" fill="none" xmlns="http://www.w3.org/2000/svg">
<path d="M287.007 86.6231C287.537 86.6231 287.967 86.1933 287.967 85.6631C287.967 85.1329 287.537 84.7031 287.007 84.7031C286.477 84.7031 286.047 85.1329 286.047 85.6631C286.047 86.1933 286.477 86.6231 287.007 86.6231Z" fill="#FF5E66"/>
<path d="M275.983 57.4922H173.039V130.74H275.983V57.4922Z" fill="#9E675E"/>
<path d="M173.039 131.489C172.863 131.489 172.671 131.425 172.527 131.297C172.207 131.009 172.175 130.529 172.463 130.209L222.143 73.8732C222.287 73.7132 222.495 73.6172 222.703 73.6172C222.911 73.6172 223.119 73.6972 223.279 73.8572L276.543 130.193C276.831 130.497 276.815 130.993 276.511 131.281C276.207 131.569 275.711 131.553 275.423 131.249L222.735 75.5212L173.615 131.233C173.471 131.409 173.263 131.489 173.039 131.489Z" fill="white"/>
<path d="M275.999 57.4922L222.207 103.076L173.039 57.4922H275.999Z" fill="#FEEB8F"/>
<path d="M275.999 57.4943L196.095 22.4062L173.039 57.4943H275.999Z" fill="#FEEB8F"/>
<path d="M287.004 81.2972C286.572 81.2972 286.236 80.9613 286.236 80.5292V60.0492C286.236 59.6172 286.572 59.2812 287.004 59.2812C287.436 59.2812 287.772 59.6332 287.772 60.0492V80.5292C287.772 80.9613 287.42 81.2972 287.004 81.2972Z" fill="#FF5E66"/>
<path d="M275.997 58.2704H173.053C172.621 58.2704 172.285 57.9184 172.285 57.5024C172.285 57.0704 172.621 56.7344 173.053 56.7344H275.997C276.429 56.7344 276.765 57.0704 276.765 57.5024C276.765 57.9184 276.413 58.2704 275.997 58.2704Z" fill="white"/>
<path d="M201.473 67.3438H226.065C227.057 67.3438 227.057 68.8798 226.065 68.8798H201.473C200.481 68.8798 200.481 67.3438 201.473 67.3438Z" fill="#C49689"/>
<path d="M199.166 73.5H223.758C224.75 73.5 224.75 75.036 223.758 75.036H199.166C198.174 75.036 198.174 73.5 199.166 73.5Z" fill="#C49689"/>
<path d="M70.3538 80.8047H31.4258V109.493H70.3538V80.8047Z" fill="#AAC5E7"/>
<path d="M78.2898 118.193H39.3618C38.9298 118.193 38.5938 117.857 38.5938 117.425V88.7368C38.5938 88.3048 38.9298 87.9688 39.3618 87.9688H78.2898C78.7218 87.9688 79.0578 88.3208 79.0578 88.7368V117.425C79.0578 117.857 78.7218 118.193 78.2898 118.193ZM40.1298 116.657H77.5218V89.5048H40.1298V116.657Z" fill="black"/>
<path d="M58.8342 103.863C58.6742 103.863 58.5142 103.815 58.3862 103.719L38.9302 89.383C38.5942 89.127 38.5142 88.647 38.7702 88.311C39.0262 87.975 39.5062 87.895 39.8422 88.151L58.8502 102.151L77.8582 88.151C78.1942 87.895 78.6742 87.975 78.9302 88.311C79.1862 88.647 79.1062 89.127 78.7702 89.383L59.3142 103.719C59.1542 103.815 58.9942 103.863 58.8342 103.863Z" fill="black"/>
<path d="M86.481 82.591C89.026 82.591 91.089 80.5279 91.089 77.983C91.089 75.4381 89.026 73.375 86.481 73.375C83.9361 73.375 81.873 75.4381 81.873 77.983C81.873 80.5279 83.9361 82.591 86.481 82.591Z" fill="#AAC5E7"/>
<path d="M269.346 153.797C273.305 153.797 276.514 150.588 276.514 146.629C276.514 142.67 273.305 139.461 269.346 139.461C265.387 139.461 262.178 142.67 262.178 146.629C262.178 150.588 265.387 153.797 269.346 153.797Z" fill="#AAC5E7"/>
<path d="M257.039 147.388H226.303C225.871 147.388 225.535 147.036 225.535 146.62C225.535 146.204 225.871 145.852 226.303 145.852H257.039C257.471 145.852 257.807 146.188 257.807 146.62C257.807 147.052 257.471 147.388 257.039 147.388Z" fill="black"/>
<path d="M229.746 166.737C230.594 165.201 231.458 163.665 232.306 162.129C232.786 161.265 234.113 162.033 233.633 162.897C232.785 164.433 231.921 165.969 231.073 167.505C230.593 168.369 229.266 167.601 229.746 166.737Z" fill="#FEEB8F"/>
<path d="M226.544 165.624L229.136 161.032C229.616 160.168 230.944 160.952 230.464 161.8C229.6 163.336 228.736 164.856 227.872 166.392C227.392 167.272 226.064 166.488 226.544 165.624Z" fill="#FEEB8F"/>
<path d="M74.3536 41.7466C75.3776 43.2826 76.4016 44.8186 77.4256 46.3546C77.9696 47.1866 76.6416 47.9546 76.0976 47.1226C75.0736 45.5866 74.0496 44.0506 73.0256 42.5146C72.4656 41.6986 73.7936 40.9306 74.3536 41.7466Z" fill="#FEEB8F"/>
<path d="M34.6578 151.307C35.1698 152.843 35.6978 154.379 36.2098 155.915C36.5298 156.859 35.0418 157.259 34.7218 156.331L33.1698 151.723C32.8498 150.779 34.3378 150.363 34.6578 151.307Z" fill="#9E675E"/>
<path d="M101.035 99.2208C102.027 107.413 112.635 106.741 116.203 100.869C118.571 96.9648 117.915 92.3888 116.491 88.2928C115.547 85.5888 114.171 82.8688 114.043 79.9568C113.883 76.0528 116.299 73.2528 118.859 70.7088V70.7248C119.099 71.6848 120.571 71.2848 120.347 70.3088C118.603 63.0608 109.723 64.6448 106.459 69.7648C103.851 73.8768 104.139 78.9488 103.979 83.6208C103.867 87.3168 103.035 90.2608 101.915 93.7168C101.371 95.5088 100.795 97.3328 101.035 99.2208Z" fill="black"/>
<path d="M145.805 62.706C150.765 56.194 146.925 47.362 140.013 50.434C133.101 53.506 118.829 62.562 118.285 71.874C117.741 81.186 116.573 91.922 126.941 93.458C137.309 94.994 145.805 62.706 145.805 62.706Z" fill="black"/>
<path d="M156.076 89.2476C155.196 93.5356 151.356 95.7436 147.052 96.9756L145.9 110.24C145.9 110.24 144.108 117.92 141.292 127.136C134.892 118.688 129.388 111.264 129.388 111.264C129.388 111.264 129.516 106.656 130.476 95.4556C126.268 93.9676 123.052 87.3596 123.052 87.3596C115.644 88.5276 107.836 85.8876 108.54 78.0796C109.052 72.5436 114.3 71.3596 118.268 71.8716C119.9 72.0796 121.324 72.5756 122.108 73.1676C122.108 73.1676 120.732 67.4396 129.116 62.7676C136.332 58.7356 141.772 58.6236 145.804 62.7196C147.276 64.2076 148.556 66.2716 149.66 68.8956C153.02 76.8316 156.972 84.9116 156.076 89.2476Z" fill="white"/>
<path d="M141.288 127.908C141.048 127.908 140.824 127.796 140.68 127.604C134.344 119.252 128.824 111.796 128.76 111.716C128.664 111.572 128.6 111.412 128.616 111.236C128.616 111.188 128.744 106.644 129.672 95.9558C126.136 94.3558 123.448 89.7478 122.632 88.1958C117.576 88.8678 113.016 87.8118 110.344 85.2998C108.408 83.4918 107.528 80.9638 107.8 78.0038C107.992 75.8438 108.872 74.1158 110.392 72.8998C113.128 70.7078 116.904 70.9158 118.392 71.1078C119.48 71.2518 120.472 71.5078 121.288 71.8438C121.384 69.6838 122.504 65.5878 128.776 62.0998C136.392 57.8438 142.152 57.8758 146.376 62.1798C147.912 63.7318 149.224 65.8278 150.392 68.5958C150.872 69.7318 151.368 70.8678 151.848 71.9878C154.84 78.9158 157.672 85.4598 156.856 89.4118C156.056 93.2678 153.096 95.9398 147.8 97.5718L146.696 110.308C146.696 110.34 146.68 110.388 146.68 110.42C146.664 110.5 144.856 118.228 142.056 127.364C141.976 127.636 141.736 127.844 141.448 127.892C141.368 127.908 141.32 127.908 141.288 127.908ZM130.152 111.028C131.048 112.244 135.64 118.42 140.984 125.476C143.4 117.428 144.984 110.772 145.128 110.116L146.28 96.8998C146.312 96.5798 146.52 96.3078 146.84 96.2278C151.864 94.7878 154.632 92.4678 155.336 89.0918C156.056 85.6038 153.192 78.9798 150.424 72.5798C149.928 71.4438 149.448 70.3078 148.968 69.1718C147.896 66.6278 146.648 64.6278 145.272 63.2358C141.544 59.4438 136.536 59.4918 129.512 63.4118C121.72 67.7478 122.872 72.9158 122.872 72.9638C122.952 73.2838 122.824 73.6038 122.552 73.7798C122.28 73.9558 121.928 73.9558 121.672 73.7638C120.968 73.2518 119.64 72.8038 118.184 72.6118C115.48 72.2758 112.92 72.8198 111.352 74.0838C110.168 75.0278 109.48 76.4038 109.32 78.1318C109.096 80.6278 109.784 82.6598 111.384 84.1638C113.784 86.4038 118.2 87.3318 122.936 86.5798C123.272 86.5318 123.592 86.6918 123.752 86.9958C123.784 87.0598 126.888 93.3478 130.744 94.7078C131.08 94.8198 131.288 95.1558 131.256 95.4918C130.408 105.108 130.2 109.892 130.152 111.028Z" fill="black"/>
<path d="M146.828 81.1627C146.748 81.1627 146.652 81.1467 146.572 81.1147C146.172 80.9707 145.964 80.5387 146.108 80.1387C147.276 76.7947 145.628 73.7547 139.788 68.5227C139.468 68.2347 139.452 67.7547 139.724 67.4347C140.012 67.1147 140.492 67.0987 140.812 67.3707C146.3 72.2827 149.164 76.0427 147.564 80.6347C147.452 80.9707 147.148 81.1627 146.828 81.1627Z" fill="black"/>
<path d="M133.474 72.9406C134.001 72.8845 134.383 72.4117 134.327 71.8845C134.271 71.3573 133.798 70.9753 133.271 71.0313C132.744 71.0874 132.362 71.5602 132.418 72.0874C132.474 72.6147 132.947 72.9966 133.474 72.9406Z" fill="black"/>
<path d="M145.82 69.1047C146.347 69.0486 146.729 68.5758 146.673 68.0486C146.617 67.5213 146.144 67.1394 145.617 67.1954C145.09 67.2514 144.708 67.7243 144.764 68.2515C144.82 68.7787 145.292 69.1607 145.82 69.1047Z" fill="black"/>
<path d="M140.413 87.5093C138.557 88.2133 136.605 87.1253 136.317 85.1413C136.173 84.1653 134.637 84.3253 134.797 85.3013C135.245 88.2613 138.173 90.0053 140.989 88.9333C141.901 88.5813 141.341 87.1573 140.413 87.5093Z" fill="black"/>
<path d="M133.129 66.8645C132.873 66.5125 132.409 66.4805 132.057 66.7045C131.689 66.9285 131.337 67.1685 130.969 67.3925C130.617 67.6165 130.569 68.1445 130.809 68.4645C131.065 68.8165 131.529 68.8485 131.881 68.6245C132.249 68.4005 132.601 68.1605 132.969 67.9365C133.305 67.7125 133.353 67.1685 133.129 66.8645Z" fill="black"/>
<path d="M143.595 62.584L142.635 62.68C141.659 62.792 141.819 64.312 142.795 64.2L143.755 64.104C144.731 64.008 144.571 62.472 143.595 62.584Z" fill="black"/>
<path d="M121.789 81.6897C121.533 81.6897 121.293 81.5617 121.149 81.3377C120.413 80.1857 116.973 77.8337 114.557 78.5857C114.157 78.7137 113.725 78.4897 113.597 78.0897C113.469 77.6897 113.693 77.2577 114.093 77.1297C117.229 76.1377 121.341 78.7937 122.445 80.5217C122.669 80.8737 122.573 81.3537 122.205 81.5777C122.077 81.6417 121.933 81.6897 121.789 81.6897Z" fill="black"/>
<path d="M121.434 73.3212C123.242 74.3612 124.794 72.3293 125.546 70.9373C126.794 68.6653 127.226 66.0733 126.922 63.5132C126.81 62.5372 125.274 62.5372 125.386 63.5132C125.402 63.7053 125.418 63.8973 125.434 64.0893C125.37 64.1053 125.322 64.1053 125.258 64.1373C123.29 65.1933 121.722 66.8093 120.858 68.8893C120.314 70.2653 119.882 72.4252 121.434 73.3212Z" fill="black"/>
<path d="M158.44 189.534C158.008 189.534 157.672 189.198 157.672 188.766V123.854C157.672 123.422 158.008 123.086 158.44 123.086C158.872 123.086 159.208 123.438 159.208 123.854V188.766C159.208 189.182 158.872 189.534 158.44 189.534Z" fill="black"/>
<path d="M137.899 133.816C137.627 133.816 137.371 133.672 137.243 133.432L125.403 113.08C125.195 112.712 125.307 112.248 125.675 112.024C126.043 111.816 126.507 111.928 126.731 112.296L137.915 131.512L140.651 126.776C140.763 126.584 140.955 126.44 141.179 126.408C141.403 126.36 141.627 126.424 141.803 126.568L145.803 129.816L148.683 109.896C148.747 109.48 149.131 109.192 149.547 109.24C149.963 109.304 150.251 109.688 150.203 110.104L147.131 131.352C147.099 131.624 146.907 131.864 146.651 131.96C146.395 132.056 146.107 132.008 145.883 131.848L141.531 128.312L138.587 133.416C138.427 133.672 138.171 133.816 137.899 133.816Z" fill="black"/>
<path d="M118.279 184.624C118.007 184.624 117.751 184.48 117.607 184.224C117.399 183.856 117.527 183.392 117.911 183.184C118.551 182.832 118.919 182.064 118.791 181.328C118.727 180.928 118.439 180.256 117.351 180.08L117.191 180.048C114.599 179.648 111.351 179.152 106.759 181.824C106.391 182.032 105.927 181.92 105.703 181.552C105.495 181.184 105.607 180.72 105.975 180.496C111.047 177.536 114.727 178.112 117.415 178.528L117.575 178.56C119.047 178.784 120.055 179.712 120.295 181.056C120.535 182.416 119.863 183.84 118.647 184.512C118.519 184.592 118.391 184.624 118.279 184.624Z" fill="black"/>
<path d="M118.887 180.523C118.615 180.523 118.359 180.379 118.215 180.123C118.007 179.755 118.135 179.291 118.519 179.083C119.159 178.731 119.527 177.963 119.399 177.227C119.335 176.827 119.047 176.155 117.959 175.979L117.799 175.947C115.207 175.547 111.959 175.051 107.367 177.723C106.999 177.931 106.535 177.819 106.311 177.451C106.103 177.083 106.215 176.619 106.583 176.395C111.655 173.435 115.335 174.011 118.023 174.427L118.183 174.459C119.655 174.683 120.663 175.611 120.903 176.955C121.143 178.315 120.471 179.739 119.255 180.411C119.143 180.491 119.015 180.523 118.887 180.523Z" fill="black"/>
<path d="M119.097 176.407C118.825 176.407 118.569 176.263 118.425 176.007C118.217 175.639 118.345 175.175 118.729 174.967C119.369 174.615 119.737 173.847 119.609 173.111C119.545 172.711 119.257 172.039 118.169 171.863C115.513 171.463 108.137 172.119 103.465 174.855C103.209 174.999 102.905 174.999 102.665 174.839C102.425 174.679 102.281 174.407 102.313 174.119L102.841 169.015C101.705 169.623 101.081 170.951 100.569 172.055C100.137 172.983 99.8006 173.703 99.1446 173.927C98.8406 174.039 98.5206 174.007 98.2166 173.863C96.9686 173.239 74.7606 155.351 70.3286 151.783C70.1366 151.623 70.0246 151.383 70.0406 151.127C70.0566 150.871 70.2006 150.647 70.4086 150.519C72.4886 149.271 102.905 140.535 106.361 139.543C106.601 139.479 106.873 139.527 107.065 139.687C107.257 139.847 107.369 140.103 107.337 140.359L103.993 172.855C108.985 170.487 115.737 169.943 118.409 170.359C119.881 170.583 120.889 171.511 121.129 172.855C121.369 174.215 120.697 175.639 119.481 176.311C119.353 176.375 119.225 176.407 119.097 176.407ZM72.2646 151.383C82.3126 159.479 96.5526 170.871 98.6806 172.343C98.8246 172.119 99.0166 171.703 99.1606 171.399C99.8166 170.007 100.793 167.895 103.001 167.303L105.673 141.319C93.6566 144.775 76.8086 149.735 72.2646 151.383Z" fill="black"/>
<path d="M99.4321 195.412C99.2081 195.412 98.9841 195.396 98.7441 195.38C94.7441 195.012 76.3761 183.06 63.2561 173.028C52.5041 164.804 44.2321 158.02 43.7681 151.924C42.6641 137.572 58.2481 131.892 79.8001 124.02L83.3841 122.708C104.552 114.964 107.8 113.764 129.256 110.532C129.672 110.468 130.072 110.756 130.136 111.172C130.2 111.588 129.912 111.988 129.496 112.052C108.2 115.268 105.448 116.276 83.9281 124.148L80.3441 125.46C59.4161 133.092 44.2961 138.612 45.3041 151.796C45.7201 157.252 54.1041 164.084 64.2001 171.812C79.7201 183.684 95.8801 193.588 98.8881 193.86C101.72 194.116 104.024 192.324 106.472 190.42C108.824 188.596 111.24 186.692 114.2 186.804C116.36 186.884 117.832 186.388 118.104 185.476C118.248 185.012 118.024 184.612 117.896 184.532C117.032 184.02 111.96 183.124 107.208 186.356C106.856 186.596 106.376 186.5 106.136 186.148C105.896 185.796 105.992 185.316 106.344 185.076C111.864 181.332 117.56 182.532 118.68 183.204C119.48 183.684 119.88 184.868 119.576 185.908C119.288 186.884 118.2 188.484 114.152 188.34C111.784 188.244 109.656 189.892 107.416 191.636C105 193.492 102.536 195.412 99.4321 195.412Z" fill="black"/>
<path d="M74.9523 181.44C74.6003 181.44 74.2803 181.2 74.2003 180.832C73.4323 177.376 74.9683 172.832 78.2963 168.672C81.0643 165.216 84.3763 162.992 86.7283 162.992C87.1603 162.992 87.4963 163.328 87.4963 163.76C87.4963 164.192 87.1603 164.528 86.7283 164.528C84.8883 164.528 81.9123 166.624 79.4963 169.632C77.1443 172.56 74.9203 176.96 75.7043 180.496C75.8003 180.912 75.5283 181.328 75.1283 181.408C75.0643 181.44 75.0163 181.44 74.9523 181.44Z" fill="black"/>
<path d="M70.7771 151.935C70.7131 151.935 70.6331 151.919 70.5531 151.903L66.4091 150.687C66.0091 150.575 65.7691 150.143 65.8811 149.727C65.9931 149.327 66.4251 149.087 66.8411 149.199L70.9851 150.415C71.3851 150.527 71.6251 150.959 71.5131 151.375C71.4171 151.711 71.1131 151.935 70.7771 151.935Z" fill="black"/>
<path d="M215.292 102.347C224.124 102.539 222.876 113.611 217.212 116.747C211.548 119.883 213.1 116.379 213.1 116.379C213.1 116.379 210.876 121.003 207.756 119.627C204.636 118.251 199.868 107.771 206.716 104.299C213.564 100.827 215.292 102.347 215.292 102.347Z" fill="white"/>
<path d="M213.822 102.764C212.734 102.764 210.67 103.132 207.07 104.956C204.958 106.028 203.934 107.9 203.998 110.508C204.094 114.3 206.542 118.22 208.078 118.892C210.478 119.948 212.398 116.06 212.414 116.012C212.59 115.628 213.054 115.468 213.422 115.644C213.806 115.82 213.966 116.268 213.806 116.652C213.726 116.844 213.662 117.116 213.678 117.244C213.87 117.276 214.654 117.26 216.846 116.044C219.774 114.428 221.55 110.268 220.734 106.972C220.126 104.524 218.19 103.132 215.278 103.084C215.118 103.084 214.958 103.02 214.83 102.924C214.798 102.908 214.494 102.764 213.822 102.764ZM208.91 120.62C208.446 120.62 207.95 120.524 207.454 120.3C205.23 119.324 202.574 114.844 202.462 110.556C202.382 107.34 203.726 104.924 206.382 103.596C212.334 100.588 214.75 101.148 215.534 101.58C219.038 101.724 221.47 103.564 222.238 106.636C223.214 110.62 221.134 115.452 217.598 117.42C215.038 118.828 213.518 119.164 212.686 118.46C211.742 119.596 210.43 120.62 208.91 120.62Z" fill="black"/>
<path d="M218.366 118.068C215.294 121.14 210.926 123.364 207.806 130.164C207.726 130.34 207.63 130.532 207.55 130.74H185.902C189.95 122.18 193.71 114.404 194.942 112.308C198.782 105.78 210.11 101.364 217.79 97.5244C225.726 93.5564 224.622 98.3564 222.206 100.02C219.134 102.132 211.838 106.116 210.302 107.316C207.07 109.828 208.734 120.036 214.526 114.228C218.686 110.052 219.902 105.908 222.462 107.956C224.35 109.46 221.646 114.788 218.366 118.068Z" fill="white"/>
<path d="M173.534 190.178C173.198 190.178 172.862 190.162 172.526 190.13C166.03 189.586 160.398 183.938 157.838 175.41C157.71 175.01 157.95 174.578 158.35 174.45C158.75 174.322 159.182 174.562 159.31 174.962C161.662 182.754 166.894 188.114 172.654 188.594C177.15 188.978 181.15 186.338 183.614 181.378C191.742 165.026 199.038 148.274 203.39 138.274C204.99 134.61 206.238 131.73 207.102 129.858C209.502 124.642 212.574 122.05 215.294 119.778C216.206 119.026 217.054 118.306 217.822 117.538C220.398 114.962 222.414 111.298 222.318 109.378C222.286 108.802 222.062 108.61 221.982 108.562C221.47 108.146 221.182 108.178 221.086 108.194C220.382 108.274 219.454 109.473 218.398 110.865C217.534 111.985 216.446 113.393 215.07 114.785C213.422 116.449 211.886 117.074 210.526 116.642C209.278 116.258 208.366 114.962 208.03 113.122C207.63 110.946 208.126 108.034 209.822 106.722C210.622 106.098 212.75 104.85 215.214 103.41C217.566 102.018 220.238 100.45 221.774 99.4095C222.846 98.6735 223.406 97.3775 223.166 96.9775C223.022 96.7215 221.774 96.4175 218.126 98.2255C216.814 98.8815 215.406 99.5535 213.95 100.242C206.782 103.65 198.654 107.49 195.582 112.722C192.574 117.842 174.078 157.826 173.886 158.226C173.742 158.53 173.422 158.706 173.086 158.658C172.75 158.61 172.478 158.354 172.43 158.018C172.398 157.794 168.83 135.49 166.27 123.714C163.79 112.306 154.35 109.506 147.006 110.578C146.59 110.642 146.19 110.354 146.142 109.922C146.078 109.506 146.366 109.106 146.798 109.058C155.422 107.81 165.246 111.746 167.774 123.394C169.838 132.866 172.542 149.122 173.55 155.314C177.582 146.642 191.598 116.466 194.27 111.954C197.582 106.322 205.934 102.369 213.294 98.8655C214.75 98.1775 216.142 97.5055 217.438 96.8655C221.246 94.9615 223.614 94.7375 224.478 96.2095C225.278 97.5535 224.142 99.6495 222.638 100.69C221.07 101.778 218.478 103.282 215.982 104.754C213.678 106.114 211.486 107.394 210.766 107.954C209.726 108.754 209.182 110.913 209.55 112.865C209.774 114.113 210.318 114.994 210.99 115.202C211.742 115.442 212.798 114.914 213.982 113.73C215.294 112.418 216.302 111.106 217.182 109.97C218.574 108.178 219.566 106.865 220.91 106.705C221.598 106.625 222.254 106.85 222.942 107.394C223.326 107.698 223.79 108.274 223.854 109.33C223.998 112.034 221.422 116.146 218.91 118.658C218.094 119.474 217.214 120.21 216.286 120.994C213.694 123.17 210.75 125.633 208.494 130.546C207.646 132.402 206.382 135.282 204.798 138.93C200.43 148.946 193.134 165.714 184.99 182.098C182.414 187.266 178.27 190.178 173.534 190.178Z" fill="black"/>
<path d="M200.187 147.664C200.187 147.664 200.171 147.664 200.155 147.664C183.243 147.136 182.571 136.288 182.571 136.176C182.555 135.76 182.875 135.392 183.307 135.376C183.723 135.36 184.091 135.68 184.107 136.112C184.123 136.512 184.795 145.648 200.203 146.128C200.619 146.144 200.955 146.496 200.939 146.912C200.939 147.328 200.603 147.664 200.187 147.664Z" fill="black"/>
<path d="M210.798 106.628C212.302 107.412 214.094 107.204 215.374 106.068C215.694 105.78 216.142 105.78 216.462 106.068C217.838 107.3 218.414 109.092 218.19 110.82C217.262 111.124 216.542 111.7 216.062 112.436C216.078 112.34 216.11 112.228 216.174 112.132C217.038 110.66 216.862 108.916 215.838 107.636C214.11 108.804 211.95 108.948 210.03 107.956C209.15 107.492 209.918 106.164 210.798 106.628Z" fill="black"/>
<path d="M209.133 111.471C209.213 110.975 209.213 110.463 209.149 109.951C209.325 109.887 210.013 110.063 210.221 110.207C211.149 110.831 212.285 110.975 213.309 110.495C213.869 110.223 214.397 110.559 214.461 111.151C214.621 112.399 214.525 113.631 214.221 114.847C213.981 115.807 212.509 115.407 212.733 114.431C212.925 113.679 212.989 112.927 212.973 112.175C211.853 112.447 210.189 112.111 209.133 111.471Z" fill="black"/>
<path d="M222.477 86.7952C222.861 88.1712 223.229 89.5312 223.613 90.9072C223.869 91.8672 222.381 92.2032 222.109 91.2592C221.725 89.8832 221.357 88.5232 220.973 87.1472C220.717 86.1872 222.221 85.8512 222.477 86.7952Z" fill="black"/>
<path d="M228.044 91.5025C229.852 89.7265 231.66 87.9505 233.468 86.1745C234.172 85.4865 235.26 86.5585 234.556 87.2625C232.748 89.0385 230.94 90.8145 229.132 92.5905C228.428 93.2945 227.34 92.2065 228.044 91.5025Z" fill="black"/>
</svg>
