<svg width="214" height="214" viewBox="0 0 214 214" fill="none" xmlns="http://www.w3.org/2000/svg">
<path d="M98.2579 62.3916H42.4253V131.235H98.2579V62.3916Z" fill="white"/>
<path d="M98.2573 61.8818H42.4247C42.1465 61.8818 41.9111 62.1172 41.9111 62.3954V131.239C41.9111 131.517 42.1465 131.753 42.4247 131.753H98.2573C98.5355 131.753 98.7709 131.517 98.7709 131.239V62.3954C98.7709 62.1172 98.5355 61.8818 98.2573 61.8818ZM97.7437 130.736H42.9383V62.909H97.7437V130.736Z" fill="#FEEB8F"/>
<path d="M103.051 57.6016H47.2183V126.445H103.051V57.6016Z" fill="#AAC5E7"/>
<path d="M61.0107 62.1355C60.7218 62.1355 60.4971 61.9108 60.4971 61.6219V53.9179C60.4971 53.629 60.7218 53.4043 61.0107 53.4043C61.2996 53.4043 61.5243 53.629 61.5243 53.9179V61.6219C61.5243 61.9108 61.2889 62.1355 61.0107 62.1355Z" fill="black"/>
<path d="M75.2641 62.1355C74.9752 62.1355 74.7505 61.9108 74.7505 61.6219V53.9179C74.7505 53.629 74.9752 53.4043 75.2641 53.4043C75.553 53.4043 75.7777 53.629 75.7777 53.9179V61.6219C75.7777 61.9108 75.553 62.1355 75.2641 62.1355Z" fill="black"/>
<path d="M89.5146 62.1355C89.2257 62.1355 89.001 61.9108 89.001 61.6219V53.9179C89.001 53.629 89.2257 53.4043 89.5146 53.4043C89.8035 53.4043 90.0282 53.629 90.0282 53.9179V61.6219C90.0282 61.9108 89.8035 62.1355 89.5146 62.1355Z" fill="black"/>
<path d="M83.0942 81.9237H58.9443C58.6554 81.9237 58.4307 81.699 58.4307 81.4101C58.4307 81.1212 58.6554 80.8965 58.9443 80.8965H83.0942C83.3831 80.8965 83.6078 81.1212 83.6078 81.4101C83.6078 81.699 83.3831 81.9237 83.0942 81.9237Z" fill="white"/>
<path d="M86.6038 102.22H58.9443C58.6554 102.22 58.4307 101.995 58.4307 101.706C58.4307 101.417 58.6554 101.192 58.9443 101.192H86.6038C86.8927 101.192 87.1174 101.417 87.1174 101.706C87.1174 101.995 86.8927 102.22 86.6038 102.22Z" fill="white"/>
<path d="M87.9757 86.285C87.8794 86.285 87.7938 86.2636 87.7082 86.2101C87.4621 86.0603 87.3872 85.75 87.537 85.5039L92.4162 77.5431C92.566 77.297 92.8763 77.2221 93.1224 77.3719C93.3685 77.5217 93.4434 77.832 93.2936 78.0781L88.4144 86.0389C88.3181 86.1994 88.1576 86.285 87.9757 86.285Z" fill="#FEEB8F"/>
<path d="M99.9692 64.0216C99.5626 64.0216 99.156 63.9788 98.7708 63.9039C98.5996 63.8718 98.4284 63.829 98.2572 63.7755C98.086 63.722 97.9148 63.6685 97.7436 63.6043C97.2835 63.4224 96.8448 63.187 96.4382 62.9088C96.2135 62.7483 95.9995 62.5771 95.7962 62.3952C95.6143 62.2347 95.4538 62.0635 95.2933 61.8816C94.3624 60.8009 93.7953 59.3885 93.7953 57.8584C93.7953 57.7728 93.7953 57.6872 93.806 57.6016H92.7788C92.7788 57.6872 92.7788 57.7728 92.7788 57.8584C92.7788 59.3457 93.2389 60.7367 94.0093 61.8816C94.127 62.0635 94.2554 62.2347 94.3945 62.3952C94.5443 62.5771 94.6941 62.7483 94.8546 62.9088C95.6571 63.7113 96.6415 64.3319 97.7436 64.6957C97.9148 64.7492 98.086 64.8027 98.2572 64.8455C98.4284 64.8883 98.5996 64.9204 98.7708 64.9525C99.156 65.0167 99.5626 65.0488 99.9692 65.0488C101.071 65.0488 102.12 64.8027 103.051 64.3533V63.187C102.141 63.722 101.093 64.0216 99.9692 64.0216Z" fill="white"/>
<path d="M118.589 67.5559C114.876 67.5559 111.591 67.5452 111.302 67.5452C111.024 67.5452 110.789 67.3205 110.789 67.0316L110.714 49.8153C110.714 49.5371 110.939 49.3017 111.227 49.3017C112.886 49.291 117.455 49.0663 118.6 48.1033C119.06 47.7181 119.841 46.2629 120.601 44.8612C122.377 41.5763 124.399 37.8527 126.486 38.4626C126.914 38.591 127.235 38.8799 127.406 39.3186C128.219 41.2874 125.715 46.4555 124.667 48.4778C126.282 48.4885 128.026 48.5634 129.514 48.9272C131.814 49.4943 132.981 50.6606 132.991 52.3726C132.991 53.5817 132.296 54.3842 131.515 54.8764C132.264 55.2616 132.948 55.9143 133.013 56.9736C133.045 57.4872 132.874 57.9473 132.542 58.3218C132.296 58.5893 131.975 58.7926 131.654 58.9317C132.403 59.3597 133.12 60.0445 133.12 61.1145C133.12 62.1203 132.553 62.7302 131.868 63.094C132.339 63.5113 132.52 64.0784 132.52 64.592C132.52 65.9081 131.322 67.3419 129.321 67.4596C128.123 67.5345 123.051 67.5559 118.589 67.5559ZM111.816 66.518C114.544 66.5287 127.331 66.5608 129.257 66.4431C130.798 66.3468 131.493 65.3089 131.493 64.6027C131.493 63.9714 131.012 63.5755 130.188 63.5327C129.91 63.522 129.706 63.2866 129.706 63.0191C129.706 62.7409 129.92 62.5162 130.199 62.5055C130.273 62.5055 132.103 62.4092 132.092 61.1252C132.082 59.7984 129.781 59.3276 129.76 59.3276C129.503 59.2848 129.321 59.0494 129.343 58.7819C129.364 58.5251 129.578 58.3111 129.835 58.3004C130.22 58.2897 131.322 58.1399 131.782 57.6263C131.932 57.4551 131.996 57.2732 131.985 57.0378C131.911 55.7003 129.974 55.4756 129.952 55.4756C129.696 55.4542 129.503 55.2402 129.492 54.9941C129.482 54.7373 129.653 54.5126 129.899 54.4698C129.985 54.4484 131.964 54.0204 131.964 52.394C131.964 51.1849 131.076 50.3824 129.268 49.9437C127.631 49.5371 125.587 49.5157 123.811 49.5264C123.629 49.5264 123.458 49.4301 123.372 49.2803C123.276 49.1198 123.276 48.9272 123.361 48.7667C124.87 46.0275 127.042 41.1483 126.454 39.7359C126.379 39.554 126.282 39.5005 126.186 39.4791C124.891 39.1046 122.773 43.0315 121.499 45.3748C120.579 47.0654 119.862 48.4029 119.252 48.9058C117.84 50.0935 113.335 50.2968 111.741 50.3396L111.816 66.518Z" fill="#AAC5E7"/>
<path d="M124.656 67.4828C124.635 67.4828 124.603 67.4828 124.581 67.4721C123.747 67.3437 122.955 66.8515 122.506 66.1881C122.142 65.6531 122.035 65.0539 122.185 64.4547C122.688 62.411 125.769 62.4538 128.487 62.4966C129.108 62.5073 129.696 62.518 130.199 62.4966C130.488 62.4859 130.723 62.7106 130.734 62.9888C130.745 63.2777 130.52 63.5131 130.242 63.5238C129.707 63.5452 129.118 63.5345 128.487 63.5238C126.39 63.4917 123.501 63.4596 123.201 64.7008C123.126 65.0111 123.18 65.3214 123.383 65.621C123.672 66.049 124.207 66.3807 124.763 66.4663C125.042 66.5091 125.234 66.7659 125.191 67.0548C125.127 67.3009 124.913 67.4828 124.656 67.4828Z" fill="#AAC5E7"/>
<path d="M124.389 63.6297C124.368 63.6297 124.335 63.6297 124.314 63.619C123.522 63.5013 122.688 62.9235 122.195 62.1531C121.789 61.5218 121.66 60.8477 121.832 60.2378C122.377 58.3118 125.512 58.3118 128.294 58.3118C128.851 58.3118 129.375 58.3118 129.835 58.2904C130.113 58.2797 130.36 58.5044 130.37 58.7826C130.381 59.0715 130.156 59.3069 129.878 59.3176C129.397 59.339 128.862 59.339 128.294 59.339C126.122 59.339 123.158 59.339 122.827 60.516C122.709 60.944 122.923 61.372 123.062 61.5967C123.394 62.1103 123.972 62.5276 124.475 62.6025C124.753 62.6453 124.945 62.9021 124.903 63.191C124.86 63.4478 124.635 63.6297 124.389 63.6297Z" fill="#AAC5E7"/>
<path d="M124.367 59.5845C124.314 59.5845 124.271 59.5738 124.217 59.5631C121.446 58.7285 121.606 57.0058 121.81 56.3103C122.345 54.395 125.812 54.4164 128.85 54.4378C129.482 54.4378 130.081 54.4485 130.562 54.4271C130.851 54.4164 131.087 54.6411 131.097 54.9193C131.108 55.2082 130.883 55.4436 130.605 55.4543C130.092 55.4757 129.492 55.4757 128.85 55.465C126.71 55.4543 123.137 55.4329 122.805 56.5885C122.548 57.4873 123.126 58.1614 124.528 58.5787C124.795 58.6643 124.956 58.9532 124.87 59.2207C124.795 59.4454 124.592 59.5845 124.367 59.5845Z" fill="#AAC5E7"/>
<path d="M123.844 55.6672C123.823 55.6672 123.791 55.6672 123.769 55.6565C122.924 55.5281 122.089 55.0038 121.651 54.3297C121.308 53.7947 121.212 53.2062 121.372 52.6284C121.918 50.7024 125.053 50.7024 127.835 50.7024C128.392 50.7024 128.916 50.7024 129.387 50.681C129.676 50.6703 129.911 50.895 129.922 51.1732C129.932 51.4621 129.708 51.6975 129.43 51.7082C128.948 51.7296 128.413 51.7296 127.846 51.7296C125.674 51.7296 122.71 51.7296 122.378 52.9066C122.293 53.1955 122.346 53.4951 122.528 53.7733C122.806 54.212 123.373 54.5651 123.94 54.6507C124.219 54.6935 124.411 54.9503 124.368 55.2392C124.304 55.4853 124.09 55.6672 123.844 55.6672Z" fill="#AAC5E7"/>
<path d="M56.3904 116.595H34.0381V138.947H56.3904V116.595Z" fill="white"/>
<path d="M56.3791 139.462H34.0375C33.7486 139.462 33.5239 139.237 33.5239 138.948V116.596C33.5239 116.307 33.7486 116.082 34.0375 116.082H56.3898C56.6787 116.082 56.9034 116.317 56.9034 116.596V138.948C56.8927 139.226 56.668 139.462 56.3791 139.462ZM34.5511 138.434H55.8762V117.109H34.5511V138.434Z" fill="black"/>
<path d="M45.0808 134.584C44.931 134.584 44.792 134.52 44.6957 134.413L38.7893 127.736C38.5967 127.522 38.6181 127.201 38.8321 127.009C39.0461 126.816 39.3671 126.838 39.5597 127.052L44.9738 133.172L51.5651 120.482C51.6935 120.225 52.0038 120.129 52.2606 120.268C52.5174 120.396 52.6137 120.707 52.4746 120.963L45.541 134.317C45.4661 134.467 45.3163 134.574 45.1451 134.595C45.1237 134.584 45.1022 134.584 45.0808 134.584Z" fill="#2DC687"/>
<path d="M39.5365 57.6663C38.6805 56.7247 37.8245 55.7831 36.9685 54.8415C36.5191 54.3493 35.8022 55.0769 36.2409 55.5691C37.0969 56.5107 37.9529 57.4523 38.8089 58.3939C39.2583 58.8861 39.9752 58.1585 39.5365 57.6663Z" fill="#FF5E66"/>
<path d="M26.9954 149.587C26.1501 148.635 25.3048 147.683 24.4702 146.73C24.0315 146.238 23.3039 146.966 23.7426 147.458C24.5879 148.41 25.4332 149.362 26.2678 150.315C26.7065 150.818 27.4341 150.079 26.9954 149.587Z" fill="#FEEB8F"/>
<path d="M25.4013 152.717C24.6309 152.033 23.8605 151.348 23.0901 150.663C22.5979 150.224 21.8703 150.952 22.3625 151.391C23.1329 152.075 23.9033 152.76 24.6737 153.445C25.1659 153.884 25.9042 153.167 25.4013 152.717Z" fill="#FEEB8F"/>
<path d="M178.925 104.734L176.636 107.826C176.24 108.361 177.128 108.875 177.524 108.34C178.283 107.313 179.054 106.275 179.813 105.248C180.209 104.723 179.311 104.21 178.925 104.734Z" fill="#FF5E66"/>
<path d="M179.942 114.034C178.808 114.034 177.888 113.113 177.888 111.979C177.888 110.845 178.808 109.925 179.942 109.925C181.076 109.925 181.996 110.845 181.996 111.979C181.996 113.113 181.076 114.034 179.942 114.034ZM179.942 110.952C179.375 110.952 178.915 111.412 178.915 111.979C178.915 112.546 179.375 113.006 179.942 113.006C180.509 113.006 180.969 112.546 180.969 111.979C180.969 111.412 180.509 110.952 179.942 110.952Z" fill="#FF5E66"/>
<path d="M25.2939 105.045C25.219 105.045 25.1441 105.034 25.0799 105.002C24.8231 104.885 24.7054 104.574 24.8231 104.317L33.5543 85.3035C33.672 85.0467 33.9716 84.929 34.2391 85.0467C34.4959 85.1644 34.6136 85.4747 34.4959 85.7315L25.7647 104.745C25.6791 104.927 25.4865 105.045 25.2939 105.045Z" fill="#FF5E66"/>
<path d="M143.188 119.304C143.134 119.304 143.07 119.304 143.017 119.304C140.759 119.218 138.865 117.453 137.849 114.457L136.597 109.374C135.302 109.492 131.728 109.535 129.385 106.624C127.512 104.303 128.882 99.9155 130.605 94.3515C131.525 91.3769 132.574 88.0064 133.13 84.7322C133.13 84.7108 133.141 84.6894 133.141 84.668C133.922 82.1 135.644 80.4736 138.116 79.9707C142.385 79.0933 147.703 81.7148 150.175 84.6466C152.572 87.4928 153.631 91.5267 153 95.4643C151.78 103.072 147.725 105.779 146.377 106.485L148.752 114.671C148.784 114.789 148.773 114.906 148.731 115.013C147.607 117.635 145.446 119.304 143.188 119.304ZM136.982 108.294C137.217 108.294 137.421 108.454 137.485 108.69L138.833 114.168C139.71 116.736 141.219 118.202 143.06 118.277C144.911 118.352 146.719 116.971 147.725 114.767L145.274 106.336C145.2 106.079 145.339 105.811 145.585 105.715C145.638 105.694 150.646 103.65 151.994 95.2931C152.583 91.6551 151.609 87.9208 149.405 85.2993C147.104 82.5815 142.107 80.1847 138.33 80.9658C136.222 81.4045 134.821 82.7313 134.146 84.9248C133.569 88.2525 132.52 91.6444 131.589 94.6404C130.016 99.7015 128.668 104.078 130.187 105.972C132.648 109.032 136.854 108.304 136.886 108.294C136.918 108.294 136.95 108.294 136.982 108.294Z" fill="black"/>
<path d="M152.496 95.3689C151.319 102.698 147.146 106.005 145.883 106.668C145.188 106.443 144.963 105.887 144.45 105.299C143.444 104.154 143.176 102.527 143.123 100.837C147.756 101.35 150.463 99.3065 150.131 95.7541C149.917 93.4643 147.125 91.1317 142.834 92.9507C143.101 90.372 143.027 87.7826 142.074 85.5142C141.058 83.1174 139.057 81.705 136.756 80.956C140.737 79.0407 146.986 81.6408 149.789 84.9685C152.1 87.7077 153.095 91.6346 152.496 95.3689Z" fill="black"/>
<path d="M129.298 98.7316C129.149 98.7316 128.999 98.6674 128.892 98.539C126.923 96.0138 128.153 94.3232 130.39 91.2416C130.786 90.6959 131.214 90.0967 131.674 89.4333C131.834 89.1979 132.155 89.1444 132.391 89.3049C132.626 89.4654 132.68 89.7864 132.519 90.0218C132.059 90.6959 131.62 91.2951 131.224 91.8408C128.892 95.0615 128.282 96.078 129.705 97.9077C129.876 98.1324 129.844 98.4534 129.619 98.6246C129.523 98.6888 129.405 98.7316 129.298 98.7316Z" fill="black"/>
<path d="M144.481 101.435C143.508 101.435 142.448 101.307 141.314 101.061C141.036 100.996 140.865 100.729 140.929 100.451C140.993 100.172 141.261 99.9906 141.539 100.065C144.599 100.74 147.049 100.44 148.451 99.2095C149.35 98.4177 149.757 97.2407 149.617 95.8283C149.521 94.8439 148.868 93.9023 147.895 93.3566C146.461 92.5541 144.535 92.6718 142.481 93.6883C142.224 93.8167 141.913 93.7097 141.796 93.4529C141.667 93.1961 141.774 92.8858 142.031 92.7681C145.22 91.1845 147.392 91.8907 148.398 92.4578C149.671 93.164 150.516 94.3945 150.645 95.7213C150.816 97.4868 150.292 98.9527 149.136 99.9799C148.034 100.932 146.429 101.435 144.481 101.435Z" fill="black"/>
<path d="M141.056 79.9719C138.606 79.4476 133.042 76.2376 132.4 80.4426C132.154 82.0797 133.47 83.3531 134.797 84.0165C137.45 85.354 140.307 85.2577 141.163 88.6496C141.484 89.9443 141.934 92.4267 143.453 92.9189C144.684 93.3148 145.379 91.5813 145.743 90.4792C146.898 87.0124 144.01 81.181 141.056 79.9719Z" fill="black"/>
<path d="M146.172 95.8278C144.942 95.5496 143.732 96.0311 143.016 97.0583C142.641 97.604 143.529 98.1176 143.904 97.5719C144.353 96.9299 145.145 96.641 145.905 96.8122C146.536 96.9727 146.814 95.9776 146.172 95.8278Z" fill="black"/>
<path d="M134.22 90.3291C133.471 90.3291 133.471 91.4847 134.22 91.4847C134.958 91.4847 134.969 90.3291 134.22 90.3291Z" fill="black"/>
<path d="M135.644 88.4901C135.301 88.4045 134.959 88.3189 134.617 88.2333C133.975 88.0728 133.696 89.0679 134.338 89.2284C134.681 89.314 135.023 89.3996 135.366 89.4852C136.008 89.6457 136.286 88.6506 135.644 88.4901Z" fill="black"/>
<path d="M134.862 101.063C134.412 101.63 133.738 101.855 133.054 101.641C132.422 101.438 132.155 102.433 132.775 102.636C133.781 102.957 134.926 102.625 135.589 101.791C135.996 101.277 135.279 100.55 134.862 101.063Z" fill="black"/>
<path d="M163.035 99.1352C161.323 96.1499 161.837 93.2288 161.077 90.0295C159.6 83.8021 152.977 84.5725 148.216 86.0277C147.584 86.2203 147.852 87.2154 148.494 87.0228C148.826 86.9265 149.157 86.8195 149.5 86.7232C149.179 87.7076 149.468 88.7883 150.195 89.5159C150.591 89.9118 150.794 88.5315 150.666 88.1035C151.822 88.1035 152.72 88.5315 153.362 89.1307C156.048 91.6345 153.148 98.108 153.865 101.468C154.753 105.619 160.51 109.311 163.592 104.86C164.993 102.805 164.137 101.051 163.035 99.1352Z" fill="black"/>
<path d="M151.994 159.075C151.908 159.075 151.823 159.054 151.748 159.011C150.988 158.593 150.571 157.705 150.721 156.849C150.87 156.015 151.502 155.437 152.422 155.298L152.529 155.287C154.177 155.03 156.424 154.688 159.527 156.496C159.773 156.635 159.858 156.956 159.709 157.202C159.57 157.449 159.249 157.534 159.002 157.384C156.22 155.758 154.252 156.058 152.679 156.304L152.572 156.314C152.101 156.389 151.801 156.646 151.726 157.031C151.652 157.459 151.866 157.898 152.24 158.112C152.486 158.251 152.582 158.561 152.443 158.807C152.347 158.979 152.176 159.075 151.994 159.075Z" fill="black"/>
<path d="M151.619 156.567C151.533 156.567 151.448 156.546 151.373 156.503C150.613 156.086 150.196 155.198 150.346 154.342C150.495 153.507 151.127 152.929 152.047 152.79L152.143 152.779C153.791 152.523 156.038 152.18 159.141 153.988C159.387 154.128 159.473 154.449 159.323 154.695C159.184 154.941 158.863 155.026 158.617 154.877C155.835 153.25 153.866 153.55 152.293 153.796L152.186 153.807C151.715 153.881 151.416 154.138 151.341 154.523C151.266 154.951 151.48 155.39 151.854 155.604C152.1 155.743 152.197 156.054 152.058 156.3C151.972 156.471 151.801 156.567 151.619 156.567Z" fill="black"/>
<path d="M151.49 154.066C151.404 154.066 151.319 154.045 151.244 154.002C150.484 153.584 150.067 152.696 150.217 151.84C150.367 151.006 150.998 150.428 151.918 150.289C153.544 150.043 157.61 150.364 160.66 151.776L158.627 132.056C158.606 131.885 158.68 131.714 158.809 131.607C158.937 131.5 159.119 131.457 159.28 131.51C161.109 132.056 177.224 136.882 178.497 137.641C178.636 137.727 178.722 137.866 178.743 138.016C178.764 138.176 178.711 138.326 178.593 138.444C175.426 141.643 165.015 152.119 164.244 152.504C164.052 152.6 163.838 152.621 163.645 152.547C163.228 152.397 163.014 151.947 162.746 151.38C162.447 150.738 162.094 149.979 161.462 149.593L161.773 152.611C161.794 152.803 161.698 152.985 161.537 153.092C161.377 153.199 161.163 153.199 161.002 153.103C158.167 151.444 153.684 151.038 152.068 151.284C151.597 151.359 151.297 151.616 151.223 152.001C151.148 152.429 151.362 152.868 151.736 153.082C151.982 153.221 152.079 153.531 151.939 153.777C151.854 153.97 151.672 154.066 151.49 154.066ZM161.345 148.438C162.682 148.812 163.281 150.096 163.688 150.952C163.763 151.123 163.87 151.327 163.945 151.477C165.218 150.407 172.334 143.323 177.341 138.273C174.848 137.331 166.063 134.635 159.729 132.73L161.345 148.438Z" fill="black"/>
<path d="M163.475 165.644C161.57 165.644 160.061 164.467 158.596 163.322C157.247 162.273 155.963 161.278 154.519 161.332C152.026 161.428 151.352 160.422 151.17 159.823C150.977 159.181 151.223 158.432 151.737 158.132C152.657 157.576 156.145 157.126 159.302 159.277C159.537 159.438 159.601 159.759 159.441 159.994C159.28 160.229 158.959 160.294 158.724 160.133C155.846 158.175 152.785 158.71 152.261 159.02C152.208 159.052 152.069 159.277 152.154 159.545C152.315 160.08 153.192 160.369 154.476 160.315C156.284 160.251 157.782 161.406 159.216 162.53C160.693 163.686 162.105 164.777 163.796 164.616C164.994 164.509 169.114 162.177 181.922 151.659C187.892 146.758 193.445 141.772 193.702 138.476C194.312 130.483 185.121 127.124 172.388 122.48L170.986 121.966C160.275 118.05 155.985 116.702 148.152 115.311C147.874 115.257 147.682 114.99 147.735 114.712C147.789 114.433 148.045 114.252 148.334 114.294C156.231 115.696 160.564 117.055 171.339 120.993L172.741 121.506C185.891 126.31 195.393 129.777 194.719 138.551C194.419 142.425 188.288 147.753 182.564 152.451C168.461 164.028 165.144 165.515 163.881 165.633C163.753 165.644 163.614 165.644 163.475 165.644Z" fill="black"/>
<path d="M171.895 136.205C171.745 136.205 171.584 136.141 171.488 136.002C171.317 135.777 171.36 135.456 171.584 135.285C171.638 135.242 176.517 131.39 176.517 123.879C176.517 123.59 176.742 123.365 177.031 123.365C177.32 123.365 177.544 123.601 177.544 123.879C177.544 131.915 172.419 135.938 172.205 136.098C172.119 136.173 172.002 136.205 171.895 136.205Z" fill="black"/>
<path d="M115.72 135.864C115.688 135.864 115.656 135.864 115.624 135.853C115.346 135.8 115.164 135.532 115.217 135.254C115.228 135.168 116.78 126.94 118.566 119.814C120.482 112.142 125.992 111.746 138.415 113.779C138.693 113.822 138.886 114.089 138.843 114.368C138.8 114.646 138.533 114.838 138.254 114.796C125.939 112.784 121.263 113.276 119.572 120.06C117.796 127.154 116.255 135.361 116.234 135.447C116.18 135.693 115.966 135.864 115.72 135.864Z" fill="black"/>
<path d="M126.046 138.146C126.089 137.761 126.142 137.376 126.206 136.991C125.725 135.867 124.505 135.043 123.488 134.519C121.167 133.331 117.55 132.561 115.763 133.417C115.506 133.534 115.399 133.845 115.517 134.102C115.635 134.358 115.945 134.465 116.202 134.348C117.475 133.738 120.717 134.262 123.018 135.439C124.398 136.145 125.233 136.969 125.372 137.75C125.414 137.996 125.628 138.178 125.875 138.178C125.907 138.178 125.939 138.178 125.971 138.168C125.992 138.168 126.014 138.157 126.046 138.146Z" fill="black"/>
<path d="M116.748 143.567C116.502 143.567 116.278 143.385 116.246 143.129C116.203 142.84 111.848 113.757 108.616 108.91C108.456 108.675 108.52 108.354 108.756 108.193C108.991 108.033 109.312 108.097 109.472 108.332C112.822 113.361 117.08 141.759 117.262 142.968C117.305 143.246 117.112 143.514 116.834 143.557C116.802 143.567 116.781 143.567 116.748 143.567Z" fill="black"/>
<path d="M112.233 108.252L110.254 107.503C110.125 107.449 109.986 107.46 109.858 107.514C109.729 107.567 109.633 107.674 109.59 107.803L107.814 112.489C107.718 112.757 107.846 113.056 108.114 113.153L110.093 113.902C110.446 114.03 110.81 114.105 111.163 114.105C111.58 114.105 111.998 114.019 112.394 113.837C113.132 113.506 113.688 112.906 113.977 112.157C114.576 110.595 113.795 108.851 112.233 108.252Z" fill="#FEEB8F"/>
<path d="M92.9089 101.118C92.8233 100.851 92.5344 100.701 92.2669 100.787L88.5219 101.974C88.3721 102.017 88.2544 102.135 88.2009 102.274C88.1474 102.413 88.1581 102.584 88.233 102.713L90.2018 106.212C90.2981 106.383 90.4693 106.468 90.6512 106.468C90.7368 106.468 90.8224 106.447 90.8973 106.404C91.1434 106.265 91.229 105.955 91.0899 105.709L90.8759 105.334L92.1813 101.889L92.5665 101.771C92.8447 101.675 93.0052 101.386 92.9089 101.118Z" fill="white"/>
<path d="M110.542 107.775C110.489 107.646 110.382 107.55 110.253 107.507L92.6091 100.798C92.3416 100.702 92.0419 100.831 91.9456 101.098L90.1695 105.785C90.116 105.913 90.1266 106.052 90.1801 106.181C90.2336 106.309 90.3407 106.405 90.4691 106.448L108.113 113.157C108.178 113.178 108.231 113.189 108.295 113.189C108.499 113.189 108.702 113.061 108.777 112.857L110.553 108.171C110.606 108.042 110.596 107.903 110.542 107.775Z" fill="black"/>
<path d="M88.6713 102.969C88.6071 102.969 88.5536 102.959 88.4894 102.937L86.5634 102.21C86.2959 102.113 86.1675 101.814 86.2638 101.546C86.3601 101.279 86.6597 101.15 86.9272 101.247L88.8532 101.974C89.1207 102.071 89.2491 102.37 89.1528 102.638C89.0779 102.852 88.8853 102.969 88.6713 102.969Z" fill="black"/>
<path d="M103.053 111.308V126.438H102.111C101.234 121.709 100.891 119.504 100.313 117.236C98.3446 109.404 95.2416 106.889 96.8466 106.194C98.1092 105.637 100.292 110.377 103.053 111.308Z" fill="white"/>
<path d="M116.899 158.207C116.011 158.207 115.08 158.121 114.095 157.95C106.316 156.58 104.529 146.041 102.946 136.753C102.668 135.116 102.4 133.575 102.111 132.109C100.988 126.428 100.656 123.442 100.421 121.26C100.249 119.74 100.132 118.649 99.8108 117.365C98.805 113.352 97.4033 110.806 96.4724 109.126C95.5629 107.467 94.9637 106.376 96.0337 105.638C97.4354 104.675 98.698 106.365 99.9285 108.002C101.063 109.522 102.357 111.234 103.62 110.955C103.898 110.891 104.176 111.073 104.23 111.341C104.294 111.619 104.112 111.897 103.845 111.951C101.929 112.379 100.421 110.378 99.1046 108.612C97.9918 107.125 97.1679 106.098 96.6222 106.472C96.344 106.665 96.6115 107.21 97.3819 108.612C98.3342 110.335 99.768 112.946 100.817 117.097C101.159 118.456 101.287 119.58 101.459 121.131C101.694 123.293 102.026 126.246 103.138 131.895C103.427 133.372 103.695 134.923 103.973 136.561C105.492 145.516 107.226 155.671 114.288 156.923C119.381 157.821 122.955 156.184 124.913 152.076C125.031 151.819 125.341 151.712 125.598 151.829C125.855 151.947 125.962 152.257 125.844 152.514C124.036 156.302 121.04 158.207 116.899 158.207Z" fill="black"/>
<path d="M98.9644 102.779C98.9644 102.779 97.4771 103.047 96.1289 103.453C94.3955 103.978 94.5667 101.132 98.1084 100.928C99.7348 100.843 101.436 102.373 101.618 104.352" fill="white"/>
<path d="M101.618 104.868C101.351 104.868 101.137 104.665 101.105 104.397C100.944 102.621 99.382 101.358 98.1301 101.444C96.6 101.529 95.8189 102.15 95.6156 102.642C95.5514 102.803 95.5621 102.931 95.5942 102.963C95.6263 102.995 95.7547 103.027 95.9794 102.953C97.3383 102.546 98.8149 102.278 98.8684 102.268C99.1466 102.214 99.4141 102.407 99.4676 102.685C99.5211 102.963 99.3285 103.231 99.0503 103.284C99.0396 103.284 97.5737 103.552 96.2683 103.948C95.6798 104.13 95.1555 104.023 94.8238 103.659C94.5028 103.306 94.4386 102.781 94.6633 102.257C94.995 101.444 96.0757 100.534 98.0766 100.417C100.045 100.31 101.929 102.129 102.132 104.311C102.153 104.59 101.95 104.846 101.672 104.868C101.65 104.868 101.64 104.868 101.618 104.868Z" fill="black"/>
<path d="M100.655 103.72C100.655 103.72 99.168 103.987 97.8198 104.394C96.0864 104.918 96.2576 102.072 99.7993 101.869C101.426 101.783 103.127 103.313 103.309 105.293" fill="white"/>
<path d="M103.309 105.808C103.042 105.808 102.828 105.605 102.796 105.337C102.635 103.561 101.094 102.299 99.821 102.384C98.2909 102.47 97.5098 103.09 97.3065 103.583C97.2423 103.743 97.253 103.872 97.2851 103.904C97.3172 103.936 97.4456 103.968 97.6703 103.893C99.0292 103.486 100.506 103.219 100.559 103.208C100.838 103.155 101.105 103.347 101.159 103.625C101.212 103.904 101.019 104.171 100.741 104.225C100.731 104.225 99.2646 104.492 97.9592 104.888C97.3707 105.07 96.8464 104.963 96.5147 104.599C96.1937 104.246 96.1295 103.722 96.3542 103.197C96.6859 102.384 97.7559 101.475 99.7675 101.357C101.726 101.25 103.62 103.069 103.823 105.252C103.844 105.53 103.641 105.787 103.363 105.808C103.341 105.808 103.32 105.808 103.309 105.808Z" fill="black"/>
<path d="M102.538 104.538C102.538 104.538 101.051 104.806 99.7026 105.212C97.9692 105.737 98.1404 102.891 101.682 102.687C102.848 102.623 104.068 103.404 104.721 104.581" fill="white"/>
<path d="M99.3061 105.791C98.9423 105.791 98.632 105.663 98.4073 105.417C98.0863 105.063 98.0221 104.539 98.2468 104.015C98.5785 103.202 99.6485 102.292 101.66 102.174C103.019 102.1 104.421 102.966 105.18 104.336C105.319 104.582 105.223 104.892 104.977 105.031C104.731 105.17 104.421 105.085 104.282 104.828C103.714 103.801 102.687 103.137 101.724 103.202C100.194 103.287 99.4131 103.908 99.2098 104.4C99.1456 104.561 99.1563 104.689 99.1884 104.721C99.2205 104.753 99.3489 104.785 99.5736 104.71C100.932 104.304 102.409 104.036 102.463 104.026C102.741 103.972 103.008 104.165 103.062 104.443C103.115 104.721 102.923 104.989 102.644 105.042C102.634 105.042 101.168 105.31 99.8625 105.705C99.6592 105.759 99.4773 105.791 99.3061 105.791Z" fill="black"/>
<path d="M104.368 105.349C104.368 105.349 102.88 105.617 101.532 106.023C99.7988 106.548 99.97 103.701 103.512 103.498C105.138 103.413 107.931 104.697 108.53 106.837L104.368 105.349Z" fill="white"/>
<path d="M108.53 107.348C108.306 107.348 108.102 107.198 108.038 106.973C107.525 105.144 105.01 103.935 103.544 104.009C102.014 104.095 101.233 104.716 101.03 105.208C100.965 105.368 100.976 105.497 101.008 105.529C101.04 105.561 101.169 105.593 101.393 105.518C102.752 105.112 104.229 104.844 104.282 104.833C104.561 104.78 104.828 104.972 104.882 105.251C104.935 105.529 104.743 105.796 104.464 105.85C104.454 105.85 102.988 106.117 101.682 106.513C101.094 106.684 100.57 106.588 100.238 106.224C99.9169 105.871 99.8527 105.347 100.077 104.823C100.409 104.009 101.49 103.1 103.491 102.982C105.299 102.886 108.359 104.277 109.033 106.695C109.108 106.973 108.948 107.252 108.68 107.326C108.627 107.337 108.573 107.348 108.53 107.348Z" fill="black"/>
<path d="M142.76 157.396C134.232 157.396 126.003 155.663 125.886 155.631C125.607 155.567 125.436 155.299 125.49 155.021C125.554 154.743 125.821 154.571 126.1 154.625C126.249 154.657 141.197 157.814 151.501 155.556C151.78 155.492 152.047 155.674 152.111 155.952C152.176 156.23 151.994 156.508 151.715 156.562C148.944 157.172 145.83 157.396 142.76 157.396Z" fill="black"/>
<path d="M139.356 163.36C139.078 163.36 138.853 163.146 138.843 162.868L138.586 156.962C138.575 156.684 138.789 156.437 139.078 156.427C139.367 156.427 139.602 156.63 139.613 156.919L139.87 162.825C139.881 163.104 139.667 163.35 139.378 163.36C139.367 163.36 139.367 163.36 139.356 163.36Z" fill="black"/>
<path d="M136.019 163.103C135.741 163.103 135.516 162.889 135.505 162.611L135.248 156.704C135.238 156.426 135.452 156.18 135.741 156.169C136.019 156.159 136.265 156.373 136.276 156.662L136.532 162.568C136.543 162.846 136.329 163.092 136.04 163.103C136.03 163.103 136.03 163.103 136.019 163.103Z" fill="black"/>
<path d="M142.31 160.136C133.804 160.136 126.014 158.745 125.907 158.724C125.629 158.67 125.447 158.403 125.49 158.125C125.543 157.847 125.811 157.665 126.089 157.707C126.228 157.729 140.256 160.243 151.095 158.478C151.373 158.424 151.64 158.628 151.683 158.906C151.726 159.184 151.533 159.451 151.255 159.494C148.388 159.965 145.306 160.136 142.31 160.136Z" fill="black"/>
<path d="M125.233 165.67C125.115 165.67 125.008 165.627 124.912 165.563C124.783 165.467 124.709 165.317 124.719 165.157L125.318 125.599C125.318 125.32 125.554 125.096 125.832 125.096C125.832 125.096 125.832 125.096 125.843 125.096C126.121 125.096 126.356 125.331 126.346 125.62L125.757 164.45C128.539 163.209 129.256 159.143 129.267 159.1C129.31 158.822 129.577 158.63 129.855 158.683C130.133 158.726 130.326 158.993 130.273 159.272C130.23 159.496 129.31 164.664 125.351 165.681C125.318 165.659 125.276 165.67 125.233 165.67Z" fill="black"/>
<path d="M158.446 167.108C151.705 167.108 148.677 160.035 148.645 159.96C148.538 159.704 148.655 159.393 148.923 159.286C149.19 159.179 149.49 159.297 149.597 159.565C149.725 159.875 152.882 167.215 160.083 165.931C160.361 165.878 160.629 166.07 160.682 166.348C160.736 166.627 160.543 166.894 160.265 166.948C159.623 167.065 159.024 167.108 158.446 167.108Z" fill="black"/>
</svg>
