<svg width="208" height="144" viewBox="0 0 208 144" fill="none" xmlns="http://www.w3.org/2000/svg">
<path d="M156.18 35.796C155.904 35.796 155.664 35.592 155.616 35.316C155.604 35.232 154.116 26.892 149.796 26.58C149.7 26.58 149.592 26.58 149.496 26.568C149.196 26.532 148.968 26.268 148.98 25.968C148.992 25.656 149.244 25.416 149.556 25.416C149.64 25.416 149.724 25.416 149.808 25.428C150.276 25.404 150.84 25.128 151.428 24.636C153.66 22.776 155.7 18.48 155.892 16.152C155.916 15.864 156.144 15.648 156.432 15.624C156.708 15.612 156.972 15.792 157.032 16.08C157.572 18.528 159.552 24.924 162.276 25.14C162.528 25.164 162.732 25.344 162.792 25.584C162.852 25.824 162.732 26.088 162.516 26.208C162.468 26.244 157.296 29.316 156.756 35.268C156.732 35.556 156.492 35.784 156.204 35.796C156.192 35.796 156.192 35.796 156.18 35.796ZM151.644 25.932C154.032 27.144 155.412 30.324 156.12 32.604C157.2 29.172 159.564 26.952 160.932 25.908C158.724 24.72 157.272 21.06 156.504 18.6C155.676 21.072 154.008 24 152.16 25.536C151.992 25.68 151.812 25.812 151.644 25.932Z" fill="#FEEB8F"/>
<path d="M166.548 68.352C166.284 68.352 166.056 68.172 165.996 67.92C165.372 65.568 164.34 63.636 163.932 63.732C163.62 63.792 163.32 63.6 163.26 63.288C163.188 62.988 163.38 62.676 163.68 62.604C164.688 62.352 165.54 60.108 165.828 58.968C165.84 58.836 165.888 58.692 166.032 58.56C166.224 58.392 166.488 58.356 166.716 58.488C166.92 58.608 167.028 58.824 166.992 59.052C167.22 59.892 169.032 62.652 169.656 62.736C169.944 62.772 170.172 63.024 170.16 63.324C170.148 63.624 169.92 63.864 169.62 63.888C169.152 63.924 167.4 65.796 167.124 67.86C167.088 68.136 166.86 68.34 166.584 68.364C166.572 68.352 166.56 68.352 166.548 68.352ZM165.024 63.108C165.66 63.732 166.164 64.812 166.548 65.832C167.028 64.788 167.712 63.84 168.42 63.264C167.7 62.592 166.992 61.524 166.5 60.648C166.176 61.488 165.696 62.46 165.024 63.108Z" fill="#FEEB8F"/>
<path d="M69.8521 60.288C69.6361 60.288 69.4441 60.168 69.3361 59.976C68.6041 58.56 66.2401 54.84 64.2121 54.612C63.9361 54.588 63.7321 54.36 63.6961 54.096C63.6721 53.82 63.8401 53.568 64.1041 53.496C67.2241 52.536 68.5801 46.776 68.5921 46.716C68.6521 46.476 68.8561 46.296 69.1081 46.272C69.3481 46.248 69.5881 46.392 69.6841 46.62C70.9681 49.644 72.9001 53.016 73.7881 53.172C74.0041 53.208 74.1721 53.364 74.2441 53.568C74.3041 53.772 74.2441 54 74.0881 54.156C73.1161 55.092 70.5601 57.936 70.4281 59.76C70.4041 60.012 70.2241 60.228 69.9721 60.288C69.9361 60.288 69.8881 60.288 69.8521 60.288ZM65.7361 53.952C67.3921 54.876 68.8321 56.892 69.6601 58.224C70.3801 56.52 71.9161 54.756 72.7441 53.88C71.4601 52.86 70.1041 50.304 69.2641 48.504C68.7001 50.136 67.5841 52.656 65.7361 53.952Z" fill="#FEEB8F"/>
<path d="M44.4 37.5239C42.816 37.5239 41.52 36.2279 41.52 34.6439C41.52 33.0599 42.816 31.7639 44.4 31.7639C45.984 31.7639 47.28 33.0599 47.28 34.6439C47.28 36.2279 45.984 37.5239 44.4 37.5239ZM44.4 32.9159C43.452 32.9159 42.672 33.6959 42.672 34.6439C42.672 35.5919 43.452 36.3719 44.4 36.3719C45.348 36.3719 46.128 35.5919 46.128 34.6439C46.128 33.6959 45.348 32.9159 44.4 32.9159Z" fill="#FF5E66"/>
<path d="M66.9841 80.0519C66.2161 79.1879 65.4481 78.3239 64.6801 77.4599C64.1881 76.9079 63.3721 77.7239 63.8641 78.2759C64.6321 79.1399 65.4001 80.0039 66.1681 80.8679C66.6721 81.4199 67.4761 80.6039 66.9841 80.0519Z" fill="#FFCCBE"/>
<path d="M62.3764 82.0678C61.4164 81.0118 60.4564 79.9558 59.4964 78.8998C58.9924 78.3478 58.1884 79.1638 58.6804 79.7158C59.6404 80.7718 60.6004 81.8278 61.5604 82.8838C62.0644 83.4358 62.8804 82.6078 62.3764 82.0678Z" fill="#FFCCBE"/>
<path d="M187.464 67.0801C186.504 68.0401 185.544 69.0001 184.584 69.9601C184.056 70.4881 184.872 71.3041 185.4 70.7761C186.36 69.8161 187.32 68.8561 188.28 67.8961C188.808 67.3681 187.992 66.5641 187.464 67.0801Z" fill="#FF5E66"/>
<path d="M145.716 79.632C137.292 82.416 128.712 83.724 120.72 84.144C116.208 84.384 111.888 84.348 107.88 84.144C93.4325 83.4 83.1245 80.448 83.1245 80.448C81.0845 53.04 88.4405 33.396 110.124 30.54C134.22 27.36 145.716 45.276 145.716 79.632Z" fill="#9E675E"/>
<path d="M168.756 143.88C168.684 143.88 168.612 143.868 168.54 143.844C168.24 143.724 168.096 143.388 168.216 143.1L183.144 105.324C183.216 105.144 183.372 105.012 183.564 104.976C183.6 104.964 187.404 104.148 189.732 103.536C190.8 103.26 191.472 102.816 191.724 102.216C192.06 101.4 191.532 100.476 191.532 100.476C191.448 100.344 191.436 100.176 191.472 100.02C191.52 99.8639 191.616 99.7439 191.76 99.6719C193.968 98.5439 193.704 97.0439 193.572 96.6119C193.368 95.9519 192.876 95.5559 192.54 95.5919C192.3 95.6279 192.06 95.4959 191.952 95.2799C191.844 95.0639 191.88 94.7999 192.048 94.6199C192.804 93.8399 193.644 92.7239 193.368 91.8479C193.092 90.9599 191.712 90.5039 191.196 90.3959C190.956 90.3479 190.764 90.1559 190.74 89.9039C190.704 89.6639 190.836 89.4239 191.052 89.3159C191.064 89.3039 192.576 88.5359 192.816 87.3479C192.936 86.7599 192.696 86.1239 192.132 85.4639C190.62 83.7239 181.512 84.1919 176.124 84.8879C175.956 84.9119 175.788 84.8639 175.668 84.7439C175.548 84.6359 175.476 84.4799 175.476 84.3119C175.476 80.1599 174.948 73.1999 173.532 72.2159C173.412 72.1319 173.328 72.1199 173.184 72.1799C172.284 72.5159 172.02 75.7799 171.78 78.6599C171.72 79.4039 171.66 80.1839 171.588 80.9639C171.18 85.2359 170.352 90.8159 169.488 92.9879C167.964 96.8039 154.116 125.232 153.528 126.444C153.384 126.732 153.048 126.852 152.76 126.708C152.472 126.564 152.352 126.228 152.496 125.94C152.64 125.64 166.908 96.3359 168.42 92.5559C169.128 90.7919 169.956 85.9799 170.448 80.8559C170.52 80.0759 170.58 79.3079 170.64 78.5639C170.964 74.5799 171.192 71.6999 172.788 71.0999C173.28 70.9199 173.772 70.9799 174.192 71.2679C176.316 72.7439 176.604 80.8319 176.628 83.6639C179.7 83.3039 190.812 82.1639 193.008 84.7079C193.824 85.6559 194.148 86.6159 193.956 87.5759C193.776 88.4879 193.164 89.1839 192.612 89.6519C193.344 89.9759 194.196 90.5519 194.484 91.4999C194.784 92.4479 194.46 93.5159 193.524 94.7039C194.04 95.0159 194.472 95.5679 194.688 96.2759C195.072 97.5239 194.736 99.2159 192.78 100.428C192.972 100.956 193.152 101.808 192.804 102.648C192.408 103.608 191.484 104.28 190.032 104.652C188.064 105.168 185.064 105.828 184.116 106.032L169.296 143.532C169.212 143.736 168.984 143.88 168.756 143.88Z" fill="black"/>
<path d="M183.697 91.104C181.945 91.104 180.481 90.924 179.965 90.408C179.497 89.94 178.837 88.848 179.305 87.708C180.049 85.896 183.169 84.972 188.869 84.912C188.869 84.912 188.869 84.912 188.881 84.912C189.193 84.912 189.457 85.164 189.457 85.476C189.457 85.8 189.205 86.052 188.893 86.064C181.945 86.148 180.625 87.552 180.385 88.152C180.097 88.872 180.781 89.592 180.793 89.604C181.441 90.252 187.021 89.94 191.833 89.244C192.157 89.196 192.445 89.412 192.481 89.736C192.529 90.048 192.313 90.348 191.989 90.384C190.441 90.612 186.649 91.104 183.697 91.104Z" fill="black"/>
<path d="M184.464 96.24C182.832 96.24 181.404 96.108 180.672 95.7C179.676 95.148 179.088 94.308 179.028 93.324C178.956 92.124 179.712 90.816 180.996 89.916C181.26 89.736 181.62 89.796 181.8 90.06C181.98 90.324 181.92 90.684 181.656 90.864C180.696 91.536 180.132 92.448 180.18 93.264C180.216 93.852 180.564 94.332 181.224 94.692C182.652 95.472 188.688 94.968 192.396 94.44C192.708 94.392 193.008 94.608 193.044 94.932C193.092 95.244 192.876 95.544 192.552 95.58C191.904 95.664 187.776 96.24 184.464 96.24Z" fill="black"/>
<path d="M185.269 101.316C183.841 101.316 182.545 101.196 181.801 100.836C180.457 100.2 179.617 99.228 179.485 98.16C179.377 97.212 179.845 96.264 180.793 95.508C181.045 95.304 181.405 95.352 181.597 95.604C181.801 95.856 181.753 96.216 181.501 96.408C181.057 96.768 180.541 97.332 180.613 98.028C180.685 98.688 181.297 99.336 182.269 99.792C183.925 100.572 189.805 99.912 191.941 99.588C192.253 99.54 192.553 99.756 192.601 100.068C192.649 100.38 192.433 100.68 192.121 100.728C191.581 100.812 188.149 101.316 185.269 101.316Z" fill="black"/>
<path d="M186.12 104.892C182.412 104.892 181.152 103.716 180.78 102.648C180.396 101.532 180.96 100.344 181.728 99.8399C181.992 99.6599 182.352 99.7439 182.52 100.008C182.688 100.272 182.616 100.632 182.352 100.8C182.016 101.016 181.656 101.664 181.86 102.264C182.016 102.708 182.904 104.1 187.956 103.656C188.28 103.632 188.556 103.86 188.58 104.184C188.604 104.496 188.376 104.784 188.052 104.808C187.356 104.868 186.708 104.892 186.12 104.892Z" fill="black"/>
<path d="M177.36 97.596C177.276 97.596 177.192 97.584 177.12 97.536C176.832 97.404 176.712 97.056 176.844 96.768C180.36 89.34 175.86 84.888 175.668 84.708C175.44 84.492 175.428 84.12 175.656 83.892C175.872 83.664 176.244 83.652 176.472 83.868C176.52 83.916 181.776 89.052 177.888 97.26C177.78 97.476 177.576 97.596 177.36 97.596Z" fill="black"/>
<path d="M179.52 115.608C171.312 115.608 163.908 108.336 162.84 105.132C162.744 104.832 162.9 104.508 163.2 104.4C163.5 104.304 163.824 104.46 163.932 104.76C164.892 107.64 171.96 114.444 179.52 114.444C179.844 114.444 180.096 114.708 180.096 115.02C180.096 115.332 179.832 115.608 179.52 115.608Z" fill="black"/>
<path d="M105.073 48.984C105.037 49.008 105.001 49.032 104.953 49.056C104.917 49.044 104.881 49.032 104.845 49.02C104.605 48.96 104.401 49.044 104.269 49.2C104.197 49.14 104.125 49.092 104.029 49.068C102.481 43.416 95.137 45.828 93.313 49.992C91.633 53.796 92.773 58.02 91.933 61.968C91.513 63.936 90.697 65.748 89.677 67.5C89.005 68.64 88.093 69.792 88.369 71.184C88.765 73.14 90.973 73.944 92.893 73.824C95.905 73.632 98.773 71.748 100.525 69.54C102.445 67.116 100.237 62.148 100.081 59.196C99.913 55.92 101.773 54.06 103.993 51.336C104.281 51.408 104.569 51.204 104.677 50.952C104.761 50.772 104.833 50.592 104.917 50.412C105.133 50.232 105.385 50.076 105.637 49.92C106.285 49.536 105.709 48.612 105.073 48.984Z" fill="black"/>
<path d="M123.145 49.824C124.585 45.792 126.889 33.984 112.201 42.048C97.5129 50.112 98.6529 69.12 107.593 71.424C116.521 73.728 123.145 49.824 123.145 49.824Z" fill="black"/>
<path d="M128.209 69.132C127.213 72.264 124.177 73.596 120.865 74.172L120.457 80.16C116.029 80.448 112.165 78.24 108.265 78.12C108.373 76.26 108.493 74.112 108.613 71.724C105.589 70.284 103.717 65.1 103.717 65.1C98.1009 65.388 92.4849 62.796 93.6369 57.036C94.4529 52.956 98.4609 52.488 101.389 53.172C102.589 53.46 103.609 53.94 104.149 54.444C104.149 54.444 103.573 50.064 110.197 47.244C115.897 44.808 119.965 45.156 122.641 48.528C123.625 49.752 124.405 51.396 125.029 53.436C126.913 59.628 129.217 65.964 128.209 69.132Z" fill="white"/>
<path d="M119.641 80.7719C117.397 80.7719 115.321 80.2079 113.305 79.6679C111.553 79.1999 109.897 78.7559 108.253 78.6959C108.097 78.6959 107.953 78.6239 107.845 78.5039C107.737 78.3839 107.689 78.2399 107.701 78.0839C107.809 76.3199 107.917 74.3039 108.025 72.0599C105.493 70.6079 103.825 66.9119 103.333 65.6879C99.505 65.7959 96.193 64.6319 94.393 62.5559C93.097 61.0439 92.629 59.0999 93.073 56.9159C93.397 55.3199 94.177 54.1079 95.413 53.3159C97.621 51.8999 100.417 52.3439 101.521 52.6079C102.313 52.7999 103.033 53.0639 103.621 53.3759C103.873 51.7679 105.025 48.8039 109.969 46.6919C115.993 44.1239 120.289 44.6039 123.097 48.1439C124.117 49.4279 124.933 51.0959 125.593 53.2439C125.857 54.1319 126.133 55.0079 126.409 55.8959C128.089 61.2959 129.685 66.4079 128.761 69.2879C127.861 72.0959 125.461 73.8479 121.405 74.6399L121.033 80.1839C121.009 80.4719 120.781 80.6999 120.493 80.7239C120.205 80.7599 119.929 80.7719 119.641 80.7719ZM108.877 77.5799C110.449 77.7119 111.985 78.1199 113.605 78.5519C115.633 79.0919 117.709 79.6679 119.917 79.6079L120.289 74.1359C120.313 73.8719 120.505 73.6559 120.769 73.6079C124.621 72.9359 126.877 71.4119 127.669 68.9639C128.473 66.4199 126.865 61.2599 125.317 56.2559C125.041 55.3799 124.765 54.4919 124.501 53.6039C123.901 51.6239 123.133 50.0399 122.209 48.8879C119.737 45.7559 115.993 45.4079 110.437 47.7719C104.341 50.3759 104.713 54.2159 104.737 54.3719C104.761 54.6119 104.641 54.8399 104.425 54.9599C104.209 55.0679 103.945 55.0319 103.777 54.8759C103.297 54.4319 102.337 53.9999 101.269 53.7479C99.277 53.2799 97.321 53.4839 96.049 54.2999C95.089 54.9119 94.477 55.8719 94.213 57.1559C93.841 59.0039 94.201 60.5759 95.281 61.8119C96.889 63.6719 100.117 64.7159 103.705 64.5359C103.945 64.5239 104.185 64.6799 104.281 64.9199C104.305 64.9679 106.105 69.8999 108.889 71.2199C109.105 71.3159 109.225 71.5319 109.213 71.7719C109.081 73.9079 108.973 75.8639 108.877 77.5799Z" fill="black"/>
<path d="M122.017 62.364C121.933 62.364 121.849 62.352 121.777 62.304C121.489 62.172 121.369 61.824 121.501 61.536C122.641 59.136 121.645 56.736 117.709 52.368C117.493 52.128 117.517 51.768 117.745 51.552C117.985 51.336 118.345 51.36 118.561 51.588C122.269 55.692 124.105 58.716 122.545 62.016C122.437 62.244 122.233 62.364 122.017 62.364Z" fill="black"/>
<path d="M111.457 55.596C111.854 55.596 112.177 55.2737 112.177 54.876C112.177 54.4784 111.854 54.156 111.457 54.156C111.059 54.156 110.737 54.4784 110.737 54.876C110.737 55.2737 111.059 55.596 111.457 55.596Z" fill="black"/>
<path d="M122.161 53.2919C122.559 53.2919 122.881 52.9696 122.881 52.5719C122.881 52.1743 122.559 51.8519 122.161 51.8519C121.763 51.8519 121.441 52.1743 121.441 52.5719C121.441 52.9696 121.763 53.2919 122.161 53.2919Z" fill="black"/>
<path d="M116.113 66.8999C114.673 67.2839 113.305 66.3119 113.245 64.8119C113.209 64.0679 112.057 64.0679 112.093 64.8119C112.201 67.0559 114.241 68.5919 116.425 68.0159C117.133 67.8239 116.833 66.7079 116.113 66.8999Z" fill="black"/>
<path d="M111.685 51.0241C111.517 50.7361 111.181 50.6761 110.893 50.8201C110.605 50.9641 110.317 51.1081 110.029 51.2401C109.753 51.3721 109.669 51.7801 109.825 52.0321C109.993 52.3201 110.329 52.3801 110.617 52.2361C110.905 52.0921 111.193 51.9481 111.481 51.8161C111.757 51.6721 111.829 51.2761 111.685 51.0241Z" fill="black"/>
<path d="M121.009 48.252H120.289C119.545 48.252 119.545 49.404 120.289 49.404H121.009C121.753 49.404 121.753 48.252 121.009 48.252Z" fill="black"/>
<path d="M103.285 60.78C103.069 60.78 102.865 60.66 102.769 60.456C102.313 59.532 99.9371 57.504 98.0651 57.888C97.7531 57.948 97.4531 57.744 97.3811 57.432C97.3211 57.12 97.5251 56.82 97.8371 56.748C100.261 56.256 103.117 58.572 103.801 59.94C103.945 60.228 103.825 60.576 103.549 60.708C103.465 60.756 103.381 60.78 103.285 60.78Z" fill="black"/>
<path d="M109.873 48.1321C109.489 46.6201 108.061 46.9321 107.197 47.8081C105.733 49.2841 104.797 51.3721 104.245 53.3521C104.173 53.6281 104.281 53.8321 104.461 53.9521C104.341 53.9761 104.233 54.0241 104.125 54.0481C103.393 54.1921 103.705 55.2961 104.437 55.1641C107.305 54.6001 110.701 51.3721 109.873 48.1321Z" fill="black"/>
<path d="M82.8242 74.328C82.8722 76.32 82.9682 78.36 83.1242 80.46C83.1242 80.46 93.4442 83.412 107.88 84.156C111.888 84.36 116.208 84.408 120.72 84.156C128.712 83.724 137.28 82.428 145.716 79.644C145.716 77.736 145.68 75.9 145.608 74.088C120.168 82.764 85.7042 75.72 82.8242 74.328Z" fill="white"/>
<path d="M114.432 84.9C112.26 84.9 110.064 84.84 107.844 84.732C93.5039 84 83.0639 81.048 82.9559 81.012C82.7279 80.94 82.5599 80.736 82.5359 80.496C80.2799 50.124 89.7839 32.652 110.04 29.976C119.484 28.728 127.236 30.684 133.068 35.796C141.84 43.488 146.28 58.236 146.28 79.644C146.28 79.896 146.124 80.112 145.884 80.196C138.216 82.728 129.756 84.264 120.744 84.744C118.68 84.84 116.568 84.9 114.432 84.9ZM83.6639 80.004C85.6679 80.532 95.2439 82.92 107.904 83.568C112.248 83.796 116.556 83.796 120.684 83.568C129.444 83.1 137.676 81.636 145.128 79.212C145.068 58.38 140.76 44.064 132.3 36.648C126.732 31.764 119.292 29.904 110.184 31.104C85.6559 34.356 82.1879 59.4 83.6639 80.004Z" fill="black"/>
<path d="M114.432 84.8999C112.26 84.8999 110.064 84.8399 107.844 84.7319C93.5038 83.9999 83.0638 81.0479 82.9558 81.0119C82.7278 80.9399 82.5598 80.7359 82.5358 80.4959C82.3798 78.4799 82.2838 76.4159 82.2358 74.3399C82.2358 74.1359 82.3318 73.9559 82.4998 73.8479C82.6678 73.7399 82.8838 73.7279 83.0638 73.8119C86.0158 75.2399 120.36 82.0919 145.404 73.5479C145.572 73.4879 145.764 73.5119 145.92 73.6199C146.076 73.7279 146.16 73.8959 146.172 74.0759C146.244 75.9959 146.28 77.8199 146.28 79.6559C146.28 79.9079 146.124 80.1239 145.884 80.2079C138.216 82.7399 129.756 84.2759 120.744 84.7559C118.68 84.8399 116.568 84.8999 114.432 84.8999ZM83.6638 80.0039C85.6678 80.5319 95.2438 82.9199 107.904 83.5679C112.248 83.7959 116.556 83.7959 120.684 83.5679C129.444 83.0999 137.676 81.6359 145.128 79.2119C145.128 77.7839 145.092 76.3559 145.044 74.8679C121.26 82.6439 89.5558 77.0399 83.4118 75.1439C83.4718 76.7879 83.5438 78.4199 83.6638 80.0039Z" fill="black"/>
<path d="M139.74 56.0999C139.512 55.3919 138.396 55.6919 138.624 56.4119C139.452 58.9919 139.836 61.6199 139.752 64.3199C139.728 65.0639 140.88 65.0639 140.904 64.3199C140.988 61.5119 140.604 58.7759 139.74 56.0999Z" fill="white"/>
<path d="M65.4241 143.88C65.1121 143.88 64.8601 143.628 64.8481 143.316C64.8481 143.136 64.476 124.776 65.616 105.012C66.78 84.78 81.732 82.98 81.876 82.956C81.948 82.944 82.0321 82.956 82.1041 82.98C87.5881 84.588 116.484 92.148 146.64 82.356C146.736 82.332 146.82 82.32 146.916 82.332C147.024 82.356 157.32 84.36 158.196 96.54C158.556 101.508 158.964 109.332 158.964 115.02C158.964 115.344 158.712 115.596 158.388 115.596C158.064 115.596 157.812 115.344 157.812 115.02C157.812 109.356 157.404 101.568 157.044 96.624C156.288 85.956 148.068 83.76 146.844 83.496C135.372 87.204 124.08 88.428 114.168 88.428C97.9921 88.428 85.5001 85.164 81.8881 84.12C80.4721 84.312 67.836 86.532 66.756 105.084C65.616 124.812 65.9881 143.112 65.9881 143.304C66.0001 143.628 65.7481 143.88 65.4241 143.892C65.4361 143.88 65.4361 143.88 65.4241 143.88Z" fill="black"/>
<path d="M82.3323 143.88C82.0083 143.88 81.7563 143.616 81.7563 143.304V113.112C81.7563 112.788 82.0083 112.536 82.3323 112.536C82.6563 112.536 82.9084 112.788 82.9084 113.112V143.304C82.9084 143.616 82.6443 143.88 82.3323 143.88Z" fill="black"/>
<path d="M145.008 143.88C144.708 143.88 144.456 143.652 144.432 143.34L141.78 107.004C141.756 106.692 141.996 106.416 142.308 106.392C142.644 106.38 142.896 106.608 142.92 106.92L145.572 143.256C145.596 143.568 145.356 143.844 145.044 143.868C145.032 143.88 145.02 143.88 145.008 143.88Z" fill="black"/>
<path d="M94.2363 112.344C89.8923 112.344 86.3643 108.816 86.3643 104.472C86.3643 100.128 89.8923 96.6 94.2363 96.6C98.5803 96.6 102.108 100.128 102.108 104.472C102.108 108.804 98.5803 112.344 94.2363 112.344ZM94.2363 97.74C90.5283 97.74 87.5163 100.752 87.5163 104.46C87.5163 108.168 90.5283 111.18 94.2363 111.18C97.9443 111.18 100.956 108.168 100.956 104.46C100.956 100.752 97.9443 97.74 94.2363 97.74Z" fill="black"/>
<path d="M117.672 143.88C117.36 143.88 117.108 143.64 117.096 143.328C116.304 118.56 115.404 88.9079 115.584 88.3439C115.68 88.0439 116.004 87.8759 116.316 87.9839C116.592 88.0799 116.748 88.3559 116.7 88.6319C116.592 90.0959 117.66 124.98 118.248 143.292C118.26 143.604 118.008 143.88 117.696 143.892C117.684 143.88 117.672 143.88 117.672 143.88Z" fill="black"/>
<path d="M117.864 95.244C117.792 95.244 117.732 95.232 117.672 95.208C117.492 95.148 117.36 95.004 117.312 94.824L115.584 88.68C115.524 88.452 115.596 88.212 115.776 88.068C115.956 87.924 116.208 87.9 116.412 88.008L122.364 91.272C122.544 91.368 122.652 91.548 122.664 91.752C122.676 91.956 122.58 92.148 122.412 92.256L118.188 95.136C118.092 95.208 117.972 95.244 117.864 95.244ZM117.06 89.688L118.2 93.744L120.984 91.848L117.06 89.688Z" fill="black"/>
<path d="M88.2844 109.08C88.1404 109.08 88.0084 109.032 87.8884 108.924C87.6604 108.708 87.6364 108.348 87.8524 108.108L97.4524 97.74C97.6684 97.5 98.0284 97.488 98.2684 97.704C98.5084 97.92 98.5204 98.28 98.3044 98.52L88.7044 108.888C88.5964 109.008 88.4404 109.08 88.2844 109.08Z" fill="black"/>
<path d="M81.9483 84.108C81.7203 84.108 81.5043 83.964 81.4083 83.748C80.9883 82.668 80.9762 81.768 81.3722 81.048C81.9122 80.1 82.9682 79.908 83.0162 79.896C83.3282 79.836 83.6282 80.052 83.6762 80.364C83.7362 80.676 83.5203 80.976 83.2083 81.024C83.1843 81.024 82.6203 81.144 82.3683 81.612C82.0923 82.104 82.2722 82.812 82.4762 83.316C82.5962 83.616 82.4522 83.952 82.1522 84.06C82.0922 84.096 82.0203 84.108 81.9483 84.108Z" fill="black"/>
<path d="M146.82 83.4841C146.724 83.4841 146.628 83.4601 146.532 83.4121C146.256 83.2561 146.16 82.9081 146.316 82.6201C146.556 82.2001 146.628 81.8041 146.52 81.4201C146.304 80.6401 145.44 80.1481 145.428 80.1481C145.152 79.9921 145.044 79.6441 145.2 79.3681C145.356 79.0921 145.704 78.9841 145.98 79.1401C146.028 79.1641 147.264 79.8601 147.624 81.1201C147.816 81.8041 147.708 82.5001 147.312 83.2081C147.216 83.3761 147.012 83.4841 146.82 83.4841Z" fill="black"/>
<path d="M82.1518 115.56C82.1638 115.476 82.1878 115.404 82.2238 115.344L66.5158 104.568C66.2518 104.388 65.8918 104.46 65.7118 104.712C65.5318 104.976 65.6038 105.336 65.8558 105.516L82.0438 116.628C82.0918 116.268 82.1158 115.92 82.1518 115.56Z" fill="black"/>
<path d="M143.424 114.744C143.268 114.744 143.112 114.684 142.992 114.552C142.776 114.312 142.8 113.952 143.04 113.736L157.236 101.064C157.476 100.848 157.836 100.872 158.052 101.112C158.268 101.352 158.244 101.712 158.004 101.928L143.808 114.6C143.7 114.696 143.568 114.744 143.424 114.744Z" fill="black"/>
<path d="M72.9242 124.248H65.4362C65.4242 124.248 65.4122 124.248 65.4002 124.248C65.3402 124.62 65.3162 125.004 65.3042 125.376C65.3522 125.388 65.3882 125.388 65.4362 125.388H72.3482V135.18H66.0002C65.6762 135.18 65.4242 135.444 65.4242 135.756C65.4242 136.08 65.6762 136.332 66.0002 136.332H72.9122C73.2362 136.332 73.4882 136.068 73.4882 135.756V124.812C73.5002 124.5 73.2362 124.248 72.9242 124.248Z" fill="black"/>
<path d="M69.4561 128.28H65.2321C65.2201 128.28 65.2081 128.28 65.1961 128.28C65.1961 128.664 65.1961 129.048 65.1841 129.42C65.1961 129.42 65.2201 129.42 65.2321 129.42H69.4561C69.7801 129.42 70.0321 129.156 70.0321 128.844C70.0321 128.544 69.7801 128.28 69.4561 128.28Z" fill="black"/>
<path d="M69.4561 130.968H65.2321C65.2201 130.968 65.1961 130.968 65.1841 130.968C65.1841 131.352 65.1841 131.736 65.1961 132.108C65.2081 132.108 65.2201 132.108 65.2321 132.108H69.4561C69.7801 132.108 70.0321 131.856 70.0321 131.532C70.0321 131.208 69.7801 130.968 69.4561 130.968Z" fill="black"/>
</svg>
