<svg width="26" height="28" viewBox="0 0 26 28" fill="none" xmlns="http://www.w3.org/2000/svg">
<path d="M9.66702 15.5162C13.416 15.5162 16.4551 12.2599 16.4551 8.24296C16.4551 4.22606 13.416 0.969727 9.66702 0.969727C5.91805 0.969727 2.87891 4.22606 2.87891 8.24296C2.87891 12.2599 5.91805 15.5162 9.66702 15.5162Z" fill="black"/>
<path d="M15.0005 21.3348C17.4106 21.3348 19.3643 19.381 19.3643 16.9709C19.3643 14.5607 17.4106 12.6069 15.0005 12.6069C12.5905 12.6069 10.6367 14.5607 10.6367 16.9709C10.6367 19.381 12.5905 21.3348 15.0005 21.3348Z" fill="black"/>
<path d="M22.6837 12.0416C24.5204 3.05282 17.2173 -1.06092 9.1123 0.233717C1.00633 1.52641 1.31082 6.42954 0.833715 8.76958C-0.115651 14.6337 5.92092 21.1874 5.92092 21.1874L5.57667 28H15.4059L16.1584 24.8677C16.1584 24.8677 16.585 25.5834 19.1248 25.7986C21.6655 26.0139 21.3561 22.9126 21.3561 22.9126C21.3561 22.9126 23.0473 22.1659 23.0473 21.6073C23.0473 21.0468 22.0466 20.3253 22.0466 20.3253C22.0466 20.3253 23.122 20.5183 23.5118 20.0654C23.8988 19.6125 23.0367 17.9765 23.0367 17.9765C23.0367 17.9765 24.3633 17.9426 25.1449 17.0824C25.9265 16.2232 22.6837 13.6795 22.6837 12.0416ZM8.64489 13.2703C8.64489 13.2703 8.58962 12.6632 8.56247 12.3596C8.3181 12.2947 8.08245 12.2084 7.8565 12.1075C7.58886 12.3344 7.05357 12.7873 7.05357 12.7873C7.05357 12.7873 6.96241 12.8377 6.91683 12.863C6.87126 12.8872 6.01983 12.7873 6.01983 12.7873L4.55554 11.0582V10.0254C4.55554 10.0254 5.11895 9.5483 5.40018 9.30974C5.33908 9.07797 5.30223 8.84231 5.28575 8.5989C4.91628 8.42919 4.17929 8.09269 4.17929 8.09269L3.88352 7.23251L3.91746 7.09189L4.86295 5.03211L5.86274 4.7693C5.86274 4.7693 6.49888 5.06023 6.81598 5.20473C7.00993 5.04763 7.21939 4.90507 7.44049 4.77997C7.40849 4.39691 7.34643 3.62983 7.34643 3.62983L8.0776 2.8996L10.3351 2.71728L11.0663 3.44849C11.0663 3.44849 11.1129 4.03131 11.1371 4.32224C11.4309 4.40176 11.7112 4.50747 11.9779 4.63645C12.2222 4.42601 12.7119 4.00707 12.7119 4.00707H13.7466L15.2216 5.72743V6.75926C15.2216 6.75926 14.6233 7.2713 14.3236 7.52828C14.3682 7.73678 14.3915 7.95207 14.4022 8.1693C14.7804 8.3875 15.5348 8.82389 15.5348 8.82389L15.7976 9.82372L14.664 11.7846L13.6642 12.0474C13.6642 12.0474 13.0775 11.708 12.7837 11.5392C12.6179 11.6682 12.4404 11.7826 12.2562 11.8883C12.2911 12.2801 12.3619 13.0627 12.3619 13.0627L11.6317 13.7939L9.37704 13.9995L8.64489 13.2703ZM17.8428 19.0433L17.2018 19.212C17.2018 19.212 16.8255 18.9938 16.6364 18.8862C16.5298 18.9686 16.4153 19.0413 16.297 19.1092C16.3193 19.3613 16.3649 19.8617 16.3649 19.8617L15.8975 20.3301L14.4516 20.462L13.9833 19.9936C13.9833 19.9936 13.9474 19.6057 13.9299 19.4089C13.7728 19.3672 13.6225 19.3109 13.478 19.2469C13.3064 19.3924 12.9631 19.6823 12.9631 19.6823C12.9631 19.6823 12.904 19.7143 12.8758 19.7318C12.8467 19.7493 12.2998 19.6823 12.2998 19.6823L11.3611 18.572V17.9086C11.3611 17.9086 11.7218 17.6032 11.9022 17.4499C11.8634 17.3025 11.8402 17.1493 11.8295 16.9932C11.5919 16.8855 11.1196 16.6683 11.1196 16.6683L10.9296 16.1185L10.9509 16.0273L11.557 14.7074L12.199 14.5387C12.199 14.5387 12.6062 14.7239 12.8099 14.818C12.934 14.7171 13.0688 14.627 13.2104 14.5455C13.191 14.3001 13.1512 13.8065 13.1512 13.8065L13.6196 13.3381L15.0674 13.2218L15.5368 13.6902C15.5368 13.6902 15.5659 14.0635 15.5814 14.2507C15.7695 14.3021 15.9499 14.37 16.1205 14.4524C16.2776 14.3176 16.5918 14.048 16.5918 14.048H17.2561L18.2035 15.1535V15.8169C18.2035 15.8169 17.8195 16.1456 17.6265 16.3105C17.6556 16.4443 17.6702 16.582 17.677 16.7226C17.9194 16.8632 18.4043 17.1416 18.4043 17.1416L18.572 17.7835L17.8428 19.0433Z" fill="black"/>
</svg>
