<svg width="216" height="142" viewBox="0 0 216 142" fill="none" xmlns="http://www.w3.org/2000/svg">
<g clip-path="url(#clip0_709_29252)">
<path d="M139.452 69.416H48.792V128.96H139.452V69.416Z" fill="#AAC5E7"/>
<path d="M59.6403 111.956C58.2123 111.956 57.0483 110.792 57.0483 109.364C57.0483 107.936 58.2123 106.772 59.6403 106.772C61.0683 106.772 62.2323 107.936 62.2323 109.364C62.2323 110.792 61.0683 111.956 59.6403 111.956ZM59.6403 107.924C58.8483 107.924 58.2003 108.572 58.2003 109.364C58.2003 110.156 58.8483 110.804 59.6403 110.804C60.4323 110.804 61.0803 110.156 61.0803 109.364C61.0803 108.572 60.4323 107.924 59.6403 107.924Z" fill="white"/>
<path d="M67.4157 111.956C65.9877 111.956 64.8237 110.792 64.8237 109.364C64.8237 107.936 65.9877 106.772 67.4157 106.772C68.8437 106.772 70.0077 107.936 70.0077 109.364C70.0077 110.792 68.8557 111.956 67.4157 111.956ZM67.4157 107.924C66.6237 107.924 65.9757 108.572 65.9757 109.364C65.9757 110.156 66.6237 110.804 67.4157 110.804C68.2077 110.804 68.8557 110.156 68.8557 109.364C68.8557 108.572 68.2197 107.924 67.4157 107.924Z" fill="white"/>
<path d="M79.4279 111.956C77.9999 111.956 76.8359 110.792 76.8359 109.364C76.8359 107.936 77.9999 106.772 79.4279 106.772C80.8559 106.772 82.0199 107.936 82.0199 109.364C82.0199 110.792 80.8559 111.956 79.4279 111.956ZM79.4279 107.924C78.6359 107.924 77.9879 108.572 77.9879 109.364C77.9879 110.156 78.6359 110.804 79.4279 110.804C80.2199 110.804 80.8679 110.156 80.8679 109.364C80.8679 108.572 80.2199 107.924 79.4279 107.924Z" fill="white"/>
<path d="M97.62 116.096C90.384 116.096 84.468 121.808 84.144 128.96H85.296C85.62 122.444 91.032 117.248 97.62 117.248C104.208 117.248 109.62 122.444 109.944 128.96H111.096C110.772 121.808 104.856 116.096 97.62 116.096Z" fill="white"/>
<path d="M73.6678 99.0921H58.1038C57.7798 99.0921 57.5278 98.8401 57.5278 98.5161C57.5278 98.1921 57.7798 97.9401 58.1038 97.9401H73.6558C73.9798 97.9401 74.2318 98.1921 74.2318 98.5161C74.2438 98.8281 73.9798 99.0921 73.6678 99.0921Z" fill="#FEEB8F"/>
<path d="M69.6238 93.62H58.1038C57.7798 93.62 57.5278 93.368 57.5278 93.044C57.5278 92.72 57.7798 92.468 58.1038 92.468H69.6238C69.9478 92.468 70.1998 92.72 70.1998 93.044C70.1998 93.368 69.9478 93.62 69.6238 93.62Z" fill="#FEEB8F"/>
<path d="M65.7117 124.04L59.6637 117.992C59.1357 117.464 58.3197 118.28 58.8477 118.808L64.8957 124.856C65.4237 125.372 66.2397 124.568 65.7117 124.04Z" fill="white"/>
<path d="M59.6637 124.856L65.7117 118.808C66.2397 118.28 65.4237 117.464 64.8957 117.992L58.8477 124.04C58.3197 124.556 59.1357 125.372 59.6637 124.856Z" fill="white"/>
<path d="M131.857 111.26C131.857 111.26 127.465 107.444 125.665 107.156C123.865 106.868 125.953 116.372 125.953 116.372L121.633 123.716C121.537 123.86 122.077 124.784 122.473 125.408C122.521 125.42 122.557 125.432 122.605 125.444C123.601 125.912 124.861 125.696 125.929 125.84C126.325 125.888 126.361 126.308 126.157 126.572L128.641 128.948H139.441V118.46L131.857 111.26Z" fill="white"/>
<path d="M137.041 137.12C136.897 137.12 136.753 137.06 136.633 136.952L129.097 129.512C128.869 129.284 128.869 128.924 129.097 128.696C129.325 128.468 129.685 128.468 129.913 128.696L137.449 136.136C137.677 136.364 137.677 136.724 137.449 136.952C137.341 137.06 137.197 137.12 137.041 137.12Z" fill="black"/>
<path d="M108.815 93.6412C122.151 85.5587 126.41 68.1953 118.328 54.8591C110.245 41.5228 92.8816 37.2638 79.5454 45.3464C66.2091 53.4289 61.9501 70.7922 70.0327 84.1285C78.1152 97.4648 95.4786 101.724 108.815 93.6412Z" fill="#9E675E"/>
<path d="M108.727 86.2725L102.324 90.1536L126.81 130.557L133.214 126.676L108.727 86.2725Z" fill="#9E675E"/>
<path d="M115.599 97.6014L109.195 101.482L124.427 126.615L130.83 122.734L115.599 97.6014Z" fill="black"/>
<path d="M105.829 88.7153C116.445 82.2815 119.835 68.4602 113.401 57.8445C106.968 47.2288 93.1463 43.8386 82.5306 50.2723C71.9148 56.7061 68.5247 70.5274 74.9584 81.1431C81.3921 91.7588 95.2135 95.149 105.829 88.7153Z" fill="white"/>
<path d="M97.1769 76.676C96.9849 76.676 96.7929 76.58 96.6849 76.4L88.0209 62.108C87.8529 61.832 87.9369 61.484 88.2129 61.316C88.4889 61.148 88.8369 61.244 89.0049 61.508L97.6689 75.8C97.8369 76.076 97.7529 76.424 97.4769 76.592C97.3809 76.652 97.2729 76.676 97.1769 76.676Z" fill="black"/>
<path d="M98.1004 77.6479C97.2244 78.1759 98.0524 79.5319 98.9164 79.0039C99.7924 78.4759 98.9764 77.1199 98.1004 77.6479Z" fill="black"/>
<path d="M78.9846 67.16C78.0246 66.776 77.0646 66.392 76.1046 66.02C75.4206 65.744 75.1206 66.86 75.7926 67.136C76.7526 67.52 77.7126 67.892 78.6726 68.276C79.3686 68.552 79.6686 67.436 78.9846 67.16Z" fill="#FF5E66"/>
<path d="M128.113 117.824C123.505 115.808 124.081 111.2 124.081 111.2C120.049 110.048 116.881 110.336 116.593 107.744C116.389 105.956 119.185 105.668 122.641 106.448C124.201 106.796 125.929 107.048 127.537 108.032" fill="white"/>
<path d="M152.245 131.648C152.101 131.648 151.945 131.588 151.837 131.48C151.645 131.276 132.313 111.62 127.237 108.524C125.953 107.744 124.585 107.456 123.253 107.168C123.001 107.12 122.761 107.06 122.521 107.012C119.533 106.34 117.889 106.64 117.373 107.096C117.205 107.252 117.145 107.432 117.169 107.684C117.325 109.1 118.585 109.412 121.189 109.94C122.101 110.12 123.145 110.336 124.249 110.648C124.525 110.732 124.693 110.996 124.657 111.272C124.633 111.44 124.201 115.484 128.353 117.296C128.641 117.428 128.773 117.764 128.653 118.052C128.521 118.34 128.185 118.472 127.897 118.352C123.889 116.6 123.493 112.964 123.505 111.632C122.605 111.392 121.741 111.224 120.973 111.068C118.357 110.54 116.293 110.12 116.041 107.804C115.969 107.18 116.173 106.628 116.617 106.232C117.961 105.02 121.057 105.5 122.785 105.884C123.025 105.932 123.265 105.992 123.505 106.04C124.861 106.328 126.409 106.652 127.861 107.54C133.045 110.708 151.873 129.86 152.677 130.676C152.905 130.904 152.893 131.264 152.665 131.492C152.533 131.588 152.389 131.648 152.245 131.648Z" fill="black"/>
<path d="M121.105 110.276C119.845 109.652 114.145 109.52 112.609 111.716C111.601 113.156 112.753 114.884 114.193 115.028L121.249 112.868C121.249 112.868 122.833 111.14 121.105 110.276Z" fill="white"/>
<path d="M114.193 115.604C114.169 115.604 114.157 115.604 114.133 115.604C113.185 115.508 112.297 114.872 111.889 113.972C111.493 113.12 111.589 112.172 112.129 111.392C113.869 108.908 119.929 109.052 121.357 109.772C122.137 110.156 122.377 110.708 122.449 111.092C122.641 112.16 121.765 113.156 121.657 113.264C121.441 113.504 121.081 113.516 120.841 113.3C120.601 113.084 120.589 112.724 120.805 112.484C120.961 112.316 121.393 111.728 121.309 111.296C121.297 111.224 121.249 111.008 120.829 110.792C119.749 110.252 114.373 110.18 113.065 112.052C112.645 112.652 112.801 113.216 112.921 113.492C113.161 114.02 113.689 114.404 114.229 114.464C114.541 114.5 114.781 114.776 114.745 115.1C114.733 115.388 114.481 115.604 114.193 115.604Z" fill="black"/>
<path d="M122.977 113.444C121.717 112.82 116.017 112.688 114.481 114.884C113.473 116.324 114.625 118.052 116.065 118.196L123.121 116.036C123.121 116.036 124.705 114.308 122.977 113.444Z" fill="white"/>
<path d="M116.065 118.784C116.041 118.784 116.029 118.784 116.005 118.784C115.057 118.688 114.169 118.052 113.761 117.152C113.365 116.3 113.461 115.352 114.001 114.572C115.741 112.088 121.801 112.232 123.229 112.952C124.009 113.336 124.249 113.888 124.321 114.272C124.513 115.34 123.637 116.336 123.529 116.444C123.313 116.684 122.953 116.696 122.713 116.48C122.473 116.264 122.461 115.904 122.677 115.664C122.833 115.496 123.265 114.908 123.181 114.476C123.169 114.404 123.121 114.188 122.701 113.972C121.621 113.432 116.245 113.36 114.937 115.232C114.517 115.832 114.673 116.396 114.793 116.672C115.033 117.2 115.561 117.584 116.101 117.644C116.413 117.68 116.653 117.956 116.617 118.28C116.605 118.556 116.353 118.784 116.065 118.784Z" fill="black"/>
<path d="M125.281 116.9C124.021 116.276 118.321 116.144 116.785 118.34C115.777 119.78 116.929 121.508 118.369 121.652L125.425 119.492C125.425 119.504 127.009 117.776 125.281 116.9Z" fill="white"/>
<path d="M118.369 122.24C118.345 122.24 118.333 122.24 118.309 122.24C117.361 122.144 116.473 121.508 116.065 120.608C115.669 119.756 115.765 118.808 116.305 118.028C118.045 115.532 124.105 115.688 125.533 116.408C126.313 116.792 126.553 117.344 126.625 117.728C126.817 118.796 125.941 119.792 125.833 119.9C125.617 120.14 125.257 120.152 125.017 119.936C124.777 119.72 124.765 119.36 124.981 119.12C125.137 118.952 125.569 118.364 125.485 117.932C125.473 117.86 125.425 117.644 125.005 117.428C123.925 116.888 118.549 116.816 117.241 118.688C116.821 119.288 116.977 119.852 117.097 120.128C117.337 120.656 117.865 121.04 118.405 121.1C118.717 121.136 118.957 121.412 118.921 121.736C118.909 122.012 118.657 122.24 118.369 122.24Z" fill="black"/>
<path d="M127.729 120.944C127.093 118.796 119.953 119.504 118.801 121.664C117.529 124.052 120.073 125.588 123.373 125.792L122.257 123.68C122.413 123.26 128.353 123.02 127.729 120.944Z" fill="white"/>
<path d="M123.373 126.356C123.361 126.356 123.349 126.356 123.337 126.356C120.841 126.2 118.921 125.348 118.213 124.064C117.901 123.5 117.661 122.576 118.297 121.388C119.269 119.564 123.097 118.88 125.377 119.108C127.009 119.276 128.017 119.852 128.293 120.776C128.425 121.208 128.365 121.64 128.137 122.012C127.453 123.14 125.281 123.56 123.697 123.872C123.301 123.944 122.833 124.04 122.653 124.1C122.497 124.244 122.281 124.292 122.065 124.22C121.765 124.112 121.609 123.776 121.717 123.488C121.873 123.056 122.281 122.984 123.481 122.744C124.621 122.516 126.733 122.108 127.153 121.412C127.213 121.316 127.225 121.232 127.189 121.1C127.069 120.692 126.325 120.368 125.269 120.26C122.893 120.02 119.893 120.86 119.317 121.928C118.993 122.528 118.969 123.044 119.221 123.5C119.725 124.4 121.369 125.072 123.409 125.204C123.721 125.228 123.973 125.492 123.949 125.816C123.925 126.128 123.673 126.356 123.373 126.356Z" fill="black"/>
<path d="M129.84 48.0921C130.416 59.9001 126.672 72.8721 130.992 76.3281C135.312 79.7841 140.784 77.4801 140.784 77.4801L151.152 87.2721C151.152 87.2721 152.532 90.5481 156.048 89.4321C159.216 88.4241 160.368 80.6481 160.368 80.6481L151.152 71.7201C151.152 71.7201 157.308 67.6761 156.624 56.1681C156.336 51.2721 153.972 46.5921 150.288 43.7841C144.252 39.1641 130.62 37.9641 129.84 48.0921Z" fill="white"/>
<path d="M154.668 90.2481C152.52 90.2481 151.188 88.6881 150.684 87.6201L140.664 78.1521C139.332 78.62 134.58 79.9401 130.644 76.7841C127.668 74.4081 128.16 68.4921 128.772 61.0041C129.108 56.9841 129.48 52.4241 129.276 48.1281C129.276 48.1041 129.276 48.08 129.276 48.056C129.54 44.636 131.244 42.116 134.196 40.796C139.308 38.504 146.724 40.316 150.66 43.316C154.464 46.22 156.924 51.008 157.224 56.132C157.8 65.9 153.612 70.4361 152.052 71.7681L160.8 80.2401C160.932 80.3721 160.992 80.552 160.968 80.732C160.848 81.56 159.66 88.8921 156.252 89.9841C155.664 90.1641 155.148 90.2481 154.668 90.2481ZM140.796 76.9041C140.94 76.9041 141.084 76.9641 141.192 77.0601L151.56 86.8521C151.62 86.912 151.668 86.9721 151.692 87.0441C151.74 87.1521 152.928 89.8281 155.88 88.8801C158.1 88.1721 159.384 83.0961 159.756 80.852L150.756 72.1281C150.636 72.0081 150.564 71.84 150.588 71.6601C150.6 71.4921 150.696 71.3241 150.84 71.2281C150.9 71.1921 156.708 67.1841 156.06 56.18C155.784 51.3921 153.492 46.916 149.952 44.216C146.268 41.408 139.236 39.7761 134.652 41.8281C132.084 42.9801 130.656 45.092 130.416 48.092C130.62 52.46 130.248 57.0441 129.912 61.0881C129.348 67.9521 128.856 73.88 131.352 75.872C135.36 79.076 140.508 76.9641 140.568 76.9401C140.64 76.9281 140.712 76.9041 140.796 76.9041Z" fill="black"/>
<path d="M156.636 56.1681C156.348 51.2721 153.984 46.5921 150.3 43.7841C145.824 40.3761 137.196 38.8281 132.708 42.3681C135.828 42.6801 138.756 43.9041 140.7 46.6401C142.836 49.6281 143.58 53.5161 143.904 57.3681C144.264 58.0641 144.588 58.7601 144.84 59.4681C146.088 62.8881 146.028 68.6241 149.256 70.9881C150.072 71.5761 150.516 72.2241 151.452 72.3081C152.856 71.0961 157.2 65.7561 156.636 56.1681Z" fill="black"/>
<path d="M129.264 54.728C126.672 61.064 124.8 63.512 128.112 66.248L129.264 54.728Z" fill="white"/>
<path d="M128.112 66.8241C127.98 66.8241 127.848 66.7761 127.74 66.6921C124.596 64.1001 125.664 61.6281 127.608 57.1521C127.956 56.3481 128.328 55.4721 128.724 54.5121C128.844 54.2121 129.18 54.0801 129.48 54.2001C129.78 54.3201 129.912 54.6561 129.792 54.9561C129.396 55.9281 129.012 56.8161 128.664 57.6201C126.78 61.9761 126 63.7761 128.472 65.8161C128.712 66.0201 128.748 66.3801 128.544 66.6321C128.448 66.7521 128.28 66.8241 128.112 66.8241Z" fill="black"/>
<path d="M134.316 54.248C133.404 54.692 132.504 55.136 131.592 55.58C130.932 55.904 131.508 56.9 132.168 56.576C133.08 56.132 133.98 55.688 134.892 55.244C135.564 54.92 134.976 53.924 134.316 54.248Z" fill="black"/>
<path d="M132.744 51.8601C132.54 52.0881 132.312 52.1601 132 52.1361C131.688 52.1001 131.424 52.4241 131.424 52.7121C131.424 53.0481 131.688 53.2521 132 53.2881C132.576 53.3481 133.164 53.1081 133.56 52.6761C134.052 52.1241 133.236 51.3081 132.744 51.8601Z" fill="black"/>
<path d="M134.784 65.264C133.812 64.688 132.36 65.504 132.48 66.68C132.516 66.992 132.72 67.256 133.056 67.256C133.344 67.256 133.668 66.992 133.632 66.68C133.596 66.368 133.956 66.116 134.196 66.26C134.832 66.632 135.42 65.636 134.784 65.264Z" fill="black"/>
<path d="M143.101 56.312C148.285 52.136 152.809 54.356 153.757 57.32C155.341 62.216 151.597 65.816 144.109 65.816" fill="white"/>
<path d="M144.108 66.3921C143.784 66.3921 143.532 66.1401 143.532 65.8161C143.532 65.4921 143.796 65.2401 144.108 65.2401C148.2 65.2401 151.236 64.1481 152.676 62.1801C153.612 60.8961 153.792 59.2761 153.216 57.5001C152.808 56.2521 151.692 55.2201 150.288 54.8121C148.224 54.2001 145.788 54.8841 143.46 56.7681C143.208 56.9721 142.848 56.9241 142.644 56.6841C142.44 56.4321 142.488 56.0721 142.728 55.8681C146.292 53.0001 149.196 53.2881 150.612 53.7081C152.4 54.2361 153.78 55.5321 154.296 57.1521C154.992 59.3001 154.752 61.2801 153.588 62.8761C151.944 65.1321 148.572 66.3921 144.108 66.3921Z" fill="black"/>
<path d="M150.013 57.9081C147.985 57.7761 146.041 58.9281 145.201 60.7761C144.889 61.4481 145.885 62.0361 146.197 61.3521C146.893 59.8401 148.357 58.9521 150.013 59.0601C150.745 59.1081 150.745 57.9561 150.013 57.9081Z" fill="black"/>
<path d="M183.588 66.872C182.244 65.756 180.576 65.624 178.896 65.648C175.536 65.684 172.932 65.504 170.76 62.576C167.664 58.424 168.18 52.88 166.356 48.212C164.976 44.684 162.3 41.792 158.352 41.504C154.98 41.252 152.136 42.992 150.516 45.716C150.312 45.8 150.192 45.872 150.204 45.932C150.084 45.2 148.968 45.512 149.088 46.244C149.172 46.748 149.388 47.084 149.76 47.264C149.724 47.348 149.688 47.42 149.664 47.504C149.412 48.2 150.528 48.5 150.78 47.816C150.84 47.624 150.924 47.444 150.996 47.276C151.176 47.18 151.356 47.06 151.608 46.988C154.728 46.148 155.88 46.436 157.356 48.956C159.948 53.36 159.816 58.712 160.572 63.608C161.856 71.852 166.728 77.864 175.512 78.188C178.944 78.308 182.76 77.252 184.584 74.084C185.904 71.792 185.688 68.612 183.588 66.872Z" fill="black"/>
<path d="M137.868 39.908C134.628 39.932 126.696 37.436 127.068 42.92C127.212 45.056 129.24 46.292 131.1 46.76C134.832 47.696 138.42 46.784 140.448 50.828C141.216 52.364 142.476 55.388 144.54 55.58C146.208 55.736 146.604 53.348 146.748 51.86C147.216 47.168 141.948 40.604 137.868 39.908Z" fill="black"/>
<path d="M152.605 135.968C152.293 135.968 152.041 135.716 152.029 135.404L150.589 87.296C150.577 86.972 150.829 86.708 151.153 86.708C151.465 86.708 151.741 86.948 151.741 87.272L153.181 135.38C153.193 135.704 152.941 135.968 152.617 135.968H152.605Z" fill="black"/>
<path d="M185.161 143.168C184.849 143.168 184.597 142.916 184.585 142.604C184.585 142.508 184.261 132.812 181.417 107.792C178.621 83.192 160.513 81.236 160.333 81.224C160.021 81.2 159.781 80.912 159.817 80.6C159.841 80.288 160.129 80.048 160.441 80.084C160.633 80.108 179.665 82.148 182.569 107.672C185.425 132.764 185.737 142.484 185.737 142.58C185.749 142.892 185.497 143.168 185.173 143.168H185.161Z" fill="black"/>
<path d="M168.445 142.016C168.157 142.016 167.905 141.8 167.869 141.5L164.125 106.64C164.089 106.328 164.317 106.04 164.641 106.004C164.965 105.968 165.241 106.196 165.277 106.52L169.021 141.38C169.057 141.692 168.829 141.98 168.505 142.016C168.493 142.016 168.469 142.016 168.445 142.016Z" fill="black"/>
<path d="M175.501 128.732C170.749 128.732 166.753 126.116 166.693 126.08C166.429 125.9 166.357 125.552 166.537 125.276C166.717 125.012 167.065 124.94 167.341 125.12C167.713 125.372 176.533 131.096 183.025 124.34C183.241 124.112 183.613 124.1 183.841 124.328C184.069 124.544 184.081 124.916 183.853 125.144C181.225 127.856 178.237 128.732 175.501 128.732Z" fill="black"/>
<path d="M174.794 125.192C169.742 125.192 166.106 122.036 166.046 121.988C165.806 121.772 165.782 121.412 165.998 121.172C166.214 120.932 166.574 120.908 166.814 121.124C167.114 121.388 174.338 127.628 182.498 121.1C182.75 120.896 183.11 120.944 183.302 121.196C183.506 121.448 183.458 121.808 183.206 122.012C180.23 124.4 177.338 125.192 174.794 125.192Z" fill="black"/>
</g>
<defs>
<clipPath id="clip0_709_29252">
<rect width="216" height="142" fill="white"/>
</clipPath>
</defs>
</svg>
