<svg width="259" height="259" viewBox="0 0 259 259" fill="none" xmlns="http://www.w3.org/2000/svg">
<path d="M205.698 188.786H145.376C145.027 188.786 144.755 188.514 144.755 188.164C144.755 187.814 145.027 187.542 145.376 187.542H205.698C208.275 187.542 210.36 185.444 210.36 182.88C210.36 180.303 208.262 178.218 205.698 178.218H202.279C201.929 178.218 201.657 177.946 201.657 177.597C201.657 177.247 201.929 176.975 202.279 176.975H205.698C208.961 176.975 211.603 179.63 211.603 182.88C211.616 186.131 208.961 188.786 205.698 188.786Z" fill="black"/>
<path d="M147.98 161.733C146.387 161.733 144.962 161.008 144.004 159.881C143.253 158.987 142.8 157.822 142.8 156.553V129.604C142.8 128.179 143.383 126.871 144.315 125.939C145.247 125.007 146.542 124.424 147.98 124.424C150.842 124.424 153.16 126.742 153.16 129.604V156.553C153.16 159.415 150.842 161.733 147.98 161.733Z" fill="#AAC5E7"/>
<path d="M203.315 172.106H146.517V120.85C146.517 118.959 147.397 117.288 148.757 116.188C149.78 115.372 151.062 114.893 152.474 114.893H203.315V172.106Z" fill="#FEEB8F"/>
<path d="M203.316 168.363H152.746V183.696H203.316V168.363Z" fill="#FEEB8F"/>
<path d="M203.315 172.727H146.516C146.166 172.727 145.895 172.455 145.895 172.105C145.895 171.756 146.179 171.484 146.516 171.484H203.315C203.664 171.484 203.936 171.756 203.936 172.105C203.936 172.455 203.664 172.727 203.315 172.727Z" fill="white"/>
<path d="M164.349 178.529H156.061C155.711 178.529 155.439 178.257 155.439 177.907C155.439 177.558 155.711 177.286 156.061 177.286H164.349C164.699 177.286 164.971 177.558 164.971 177.907C164.971 178.244 164.699 178.529 164.349 178.529Z" fill="white"/>
<path d="M195.752 146.193H178.969C178.62 146.193 178.348 145.921 178.348 145.571C178.348 145.222 178.62 144.95 178.969 144.95H195.752C196.102 144.95 196.374 145.222 196.374 145.571C196.374 145.921 196.102 146.193 195.752 146.193Z" fill="white"/>
<path d="M195.752 150.544H178.969C178.62 150.544 178.348 150.272 178.348 149.922C178.348 149.573 178.62 149.301 178.969 149.301H195.752C196.102 149.301 196.374 149.573 196.374 149.922C196.374 150.272 196.102 150.544 195.752 150.544Z" fill="white"/>
<path d="M195.752 154.895H178.969C178.62 154.895 178.348 154.623 178.348 154.273C178.348 153.924 178.62 153.652 178.969 153.652H195.752C196.102 153.652 196.374 153.924 196.374 154.273C196.374 154.623 196.102 154.895 195.752 154.895Z" fill="white"/>
<path d="M143.978 176.819C143.991 176.832 144.004 176.832 144.017 176.845C144.6 177.156 144.898 177.816 144.742 178.49C144.574 179.228 143.693 179.707 142.981 179.487C142.347 179.293 141.867 178.8 141.44 178.308C141.155 177.972 140.857 177.622 140.598 177.259C140.624 177.48 140.663 177.7 140.689 177.907C140.689 177.92 140.689 177.933 140.689 177.946C140.961 178.852 141.181 179.798 141.052 180.743C140.922 181.779 140.3 182.543 139.433 182.867C139.174 183.165 138.837 183.411 138.41 183.618C137.529 184.058 136.765 184.188 136.079 184.084C135.794 184.214 135.483 184.291 135.159 184.291C134.343 184.291 133.605 183.773 133.178 183.113C132.854 182.621 132.789 182.038 132.582 181.52C132.388 181.067 132.103 180.639 131.883 180.186C130.782 178.593 129.669 177.065 128.076 176.845C128.011 176.832 127.959 176.819 127.894 176.806H124.204C124.372 179.059 124.204 181.261 123.453 183.449C123.258 184.032 122.287 184.317 121.989 183.644C121.018 181.429 121.238 179.124 121.562 176.819H112.238C112.316 177.208 112.121 177.661 111.759 177.79C111.318 178.244 110.503 178.438 109.997 178.049C109.428 177.609 108.806 177.259 108.184 176.884C108.146 176.858 108.12 176.845 108.081 176.819H104.986C105.724 177.739 106.475 178.658 107.2 179.59C107.951 180.536 108.651 181.429 109.078 182.569C109.35 183.294 108.767 184.136 108.081 184.33C107.291 184.55 106.592 184.058 106.32 183.333C106.436 183.644 106.177 183.035 106.138 182.97C106.035 182.789 105.931 182.608 105.815 182.439C105.53 182.025 105.193 181.624 104.882 181.235C104.701 181.015 104.52 180.782 104.338 180.562C104.753 181.611 105.038 182.672 105.141 183.683C105.245 184.732 105.141 185.819 104.118 186.363C103.561 186.661 103.069 186.415 102.512 186.519C101.502 186.7 101.463 186.829 100.557 187.852C100.143 188.319 99.3914 188.034 99.2231 187.503C99.1583 187.283 99.0288 187.063 98.8993 186.842C98.6921 187.231 98.472 187.606 98.2 188.008C97.9281 188.409 97.3065 188.578 96.9439 188.163C95.5064 186.583 94.4575 183.54 92.2819 182.893C90.3523 182.323 88.876 184.175 87.4515 185.172C86.9076 185.547 86.3249 185.858 85.7939 186.001V191.958H147.98V176.832H143.978V176.819Z" fill="#FF5E66"/>
<path d="M116.161 186.661H111.81C111.007 186.661 111.007 187.904 111.81 187.904H116.161C116.964 187.904 116.964 186.661 116.161 186.661Z" fill="#FEEB8F"/>
<path d="M118.959 181.688H117.094C116.291 181.688 116.291 182.932 117.094 182.932H118.959C119.762 182.932 119.762 181.688 118.959 181.688Z" fill="#FEEB8F"/>
<path d="M142.903 185.418H138.863C138.06 185.418 138.06 186.661 138.863 186.661H142.903C143.706 186.661 143.706 185.418 142.903 185.418Z" fill="#FEEB8F"/>
<path d="M106.527 188.215H104.973C104.17 188.215 104.17 189.459 104.973 189.459H106.527C107.33 189.459 107.33 188.215 106.527 188.215Z" fill="#FEEB8F"/>
<path d="M132.945 186.04H129.526C128.723 186.04 128.723 187.283 129.526 187.283H132.945C133.748 187.283 133.748 186.04 132.945 186.04Z" fill="#FEEB8F"/>
<path d="M63.2213 107.589C60.5536 113.714 68.2458 117.586 73.1409 114.944C76.3914 113.196 77.8159 109.725 78.4893 106.281C78.9296 104.002 79.085 101.541 80.1987 99.4561C81.6879 96.6718 84.511 95.7006 87.3471 94.9754V94.9883C87.114 95.7524 88.3183 96.0761 88.5514 95.3121C90.2997 89.5234 83.4491 87.0111 79.072 89.2515C75.5626 91.0515 73.6849 94.7164 71.6776 97.915C70.0848 100.44 68.2977 102.163 66.1091 104.118C64.9825 105.141 63.8299 106.19 63.2213 107.589Z" fill="black"/>
<path d="M109.426 100.427C115.552 97.9149 116.484 90.1708 110.398 89.4844C104.311 88.7981 90.636 89.2902 86.4532 95.558C82.2703 101.826 77.0644 108.871 83.6689 114.18C90.2864 119.503 109.426 100.427 109.426 100.427Z" fill="black"/>
<path d="M95.8422 130.743L97.202 124.929C100.711 125.835 103.366 125.796 105.736 123.154C108.132 120.487 108.689 113.222 109.595 106.306C109.893 104.014 109.841 102.059 109.427 100.414C108.3 95.9076 104.441 93.7709 97.7588 93.6284C89.9888 93.4601 88.6032 98.0314 88.6032 98.0314C88.2924 97.2933 87.5024 96.3738 86.4405 95.558C83.8635 93.5766 79.7195 92.2557 77.1036 95.9076C73.4128 101.062 77.7899 106.112 83.4361 108.327C83.4361 108.327 82.9699 114.258 85.3139 117.016C85.3139 117.016 84.6405 123.698 83.8246 130.847C83.6951 132.064 92.8378 141.22 95.8422 130.743Z" fill="white"/>
<path d="M91.0378 136.338C90.6493 136.338 90.2608 136.299 89.9111 136.221C86.7643 135.6 83.0865 132.064 83.2289 130.769C83.9412 124.488 84.5628 118.493 84.6923 117.198C82.7498 114.659 82.7627 110.179 82.8145 108.728C79.0072 107.135 76.2618 104.52 75.4201 101.671C74.8114 99.6115 75.2258 97.4877 76.6244 95.5323C77.6475 94.1078 78.9554 93.266 80.5224 93.0329C83.3325 92.6185 85.8837 94.302 86.842 95.0531C87.5413 95.597 88.137 96.1798 88.5643 96.7496C89.5226 95.2862 91.9702 92.8905 97.7718 93.007C104.83 93.1624 108.844 95.5323 110.035 100.272C110.476 101.981 110.528 103.989 110.217 106.397C110.087 107.382 109.971 108.379 109.841 109.363C109.09 115.423 108.391 121.147 106.202 123.582C103.742 126.314 100.996 126.457 97.6682 125.693L96.4509 130.899C96.4509 130.912 96.4509 130.925 96.4379 130.925C95.2077 135.224 92.9932 136.338 91.0378 136.338ZM84.4592 130.86C84.6923 131.572 87.878 135.017 90.9083 135.095C92.9155 135.12 94.3659 133.631 95.2465 130.601L96.6063 124.799C96.6451 124.631 96.7487 124.501 96.8912 124.411C97.0336 124.32 97.202 124.294 97.3703 124.346C100.621 125.188 103.081 125.214 105.283 122.766C107.212 120.629 107.925 114.828 108.611 109.233C108.727 108.249 108.857 107.252 108.986 106.255C109.271 104.04 109.22 102.137 108.831 100.596C107.782 96.4129 104.26 94.4056 97.7459 94.2761C90.5845 94.1207 89.2507 98.0705 89.1989 98.2388C89.1212 98.4849 88.901 98.6662 88.642 98.6791C88.383 98.6921 88.137 98.5496 88.0334 98.3036C87.7614 97.6561 86.9974 96.8014 86.065 96.0762C84.3167 94.7294 82.2965 94.0689 80.6907 94.302C79.4734 94.4833 78.4374 95.1567 77.6216 96.2963C76.4431 97.9539 76.0935 99.6504 76.5985 101.347C77.3496 103.885 80.0691 106.346 83.6822 107.757C83.9412 107.861 84.0966 108.107 84.0707 108.379C84.0707 108.43 83.6563 114.09 85.793 116.628C85.8966 116.757 85.9484 116.926 85.9355 117.094C85.9355 117.146 85.2621 123.815 84.4592 130.86Z" fill="black"/>
<path d="M102.913 113.817C102.732 113.817 102.563 113.74 102.434 113.597C102.214 113.338 102.24 112.937 102.512 112.717C104.7 110.865 104.791 108.055 102.848 102.02C102.745 101.696 102.926 101.347 103.25 101.243C103.573 101.139 103.923 101.321 104.027 101.644C105.853 107.33 106.319 111.124 103.314 113.675C103.198 113.766 103.055 113.817 102.913 113.817Z" fill="black"/>
<path d="M96.0193 104.441C96.196 104.05 96.0221 103.589 95.631 103.413C95.2399 103.236 94.7796 103.41 94.603 103.801C94.4264 104.192 94.6003 104.652 94.9914 104.829C95.3825 105.006 95.8427 104.832 96.0193 104.441Z" fill="black"/>
<path d="M108.013 105.749C108.19 105.358 108.016 104.898 107.625 104.721C107.234 104.545 106.774 104.719 106.597 105.11C106.421 105.501 106.594 105.961 106.986 106.138C107.377 106.314 107.837 106.14 108.013 105.749Z" fill="black"/>
<path d="M94.8452 115.605C93.2653 115.346 92.3458 113.779 92.9415 112.276C93.2394 111.538 92.0998 111.02 91.8019 111.758C90.9084 114.012 92.2293 116.433 94.638 116.835C95.4409 116.964 95.6351 115.734 94.8452 115.605Z" fill="black"/>
<path d="M97.2537 100.44C97.2149 100.091 96.9041 99.8704 96.5674 99.8834C96.2177 99.8963 95.8681 99.9093 95.5314 99.9093C95.1947 99.9222 94.9486 100.272 94.9745 100.596C95.0134 100.945 95.3242 101.165 95.6609 101.152C96.0105 101.14 96.3602 101.127 96.6969 101.127C97.0336 101.114 97.2796 100.751 97.2537 100.44Z" fill="black"/>
<path d="M108.093 100.674L107.381 100.35C106.656 100.026 106.138 101.153 106.863 101.489L107.575 101.813C108.313 102.137 108.818 100.997 108.093 100.674Z" fill="black"/>
<path d="M85.197 103.937C84.8603 103.937 84.5884 103.678 84.5754 103.341C84.5366 102.227 83.0991 99.1842 81.0919 98.718C80.7552 98.6403 80.548 98.3036 80.6257 97.9669C80.7034 97.6302 81.0401 97.423 81.3768 97.5007C83.9797 98.0964 85.7539 101.632 85.8186 103.289C85.8316 103.626 85.5596 103.924 85.2229 103.937C85.21 103.937 85.21 103.937 85.197 103.937Z" fill="black"/>
<path d="M88.0848 97.8501C88.9136 99.3135 90.8431 98.5235 91.9309 97.876C93.731 96.8012 95.0907 95.1695 95.9325 93.2658C96.2433 92.5406 95.1814 91.9061 94.8576 92.6313C94.7929 92.7737 94.7281 92.9162 94.6504 93.0586C94.5986 93.0457 94.5598 93.0198 94.508 93.0198C92.7079 92.955 90.9467 93.4342 89.4963 94.5349C88.551 95.2601 87.3596 96.594 88.0848 97.8501Z" fill="black"/>
<path d="M60.671 181.326C60.4508 181.326 60.2307 181.21 60.1271 181.002C59.9717 180.704 60.0753 180.316 60.3861 180.161C86.7393 166.071 97.0993 167.547 103.173 170.409L103.756 170.681C109.233 173.258 112.238 174.67 112.859 176.496C113.067 177.091 113.002 177.726 112.678 178.348C111.953 179.746 109.583 178.568 106.838 177.208C105.97 176.781 104.818 176.211 104.364 176.107C104.209 176.211 104.002 176.237 103.82 176.159C103.497 176.042 103.341 175.68 103.458 175.356C103.535 175.149 103.691 174.994 103.898 174.903C104.455 174.683 105.258 175.032 107.382 176.094C108.56 176.677 110.982 177.868 111.59 177.726C111.746 177.415 111.772 177.156 111.681 176.897C111.228 175.576 108.042 174.074 103.225 171.808L102.642 171.536C96.8274 168.803 86.8429 167.431 60.9688 181.261C60.8652 181.3 60.7616 181.326 60.671 181.326Z" fill="black"/>
<path d="M108.119 185.483C107.161 185.483 106.384 184.512 105.49 183.385C105.037 182.815 104.571 182.22 104.078 181.792C103.819 181.559 103.807 181.171 104.04 180.912C104.273 180.653 104.661 180.64 104.92 180.873C105.477 181.378 105.982 182.013 106.461 182.621C107.005 183.308 107.756 184.253 108.119 184.253C108.184 184.253 108.274 184.188 108.365 184.059C108.404 184.007 108.456 183.813 108.404 183.424C108.08 181.339 105.063 176.716 100.893 173.932C100.608 173.738 100.53 173.362 100.724 173.064C100.919 172.779 101.294 172.702 101.592 172.896C105.827 175.719 109.233 180.614 109.647 183.23C109.751 183.916 109.66 184.46 109.349 184.836C108.987 185.263 108.585 185.483 108.119 185.483Z" fill="black"/>
<path d="M103.393 187.646C103.302 187.646 103.225 187.646 103.134 187.633C102.163 187.503 101.399 186.648 101.399 185.677C101.399 185.328 101.684 185.056 102.02 185.056C102.37 185.056 102.642 185.328 102.642 185.677C102.642 186.027 102.94 186.351 103.302 186.389C103.82 186.467 104.274 185.949 104.533 185.043C105.232 182.504 102.266 178.347 97.4748 175.162C97.1899 174.968 97.1122 174.592 97.3064 174.294C97.5007 174.009 97.8762 173.932 98.1741 174.126C103.561 177.726 106.605 182.245 105.737 185.379C105.258 187.05 104.261 187.646 103.393 187.646Z" fill="black"/>
<path d="M100.31 189.006C100.219 189.006 100.142 188.993 100.077 188.993C99.0151 188.85 98.1215 187.827 98.1215 186.778C98.1215 186.429 98.3935 186.157 98.7431 186.157C99.0928 186.157 99.3647 186.429 99.3647 186.778C99.3647 187.219 99.805 187.711 100.245 187.762C100.815 187.84 101.126 187.076 101.255 186.61C101.916 184.24 100.284 180.303 95.1301 176.884C94.8452 176.69 94.7675 176.315 94.9617 176.017C95.156 175.732 95.5315 175.654 95.8294 175.848C101.489 179.617 103.237 184.136 102.46 186.947C101.955 188.747 100.867 189.006 100.31 189.006Z" fill="black"/>
<path d="M76.9881 190.184C76.742 190.184 76.5089 190.029 76.4053 189.782C76.2758 189.459 76.4442 189.096 76.755 188.98C76.8586 188.941 87.4128 184.81 89.7179 183.424C91.0518 182.621 92.295 182.414 93.4087 182.802C94.7166 183.269 95.7785 184.577 96.5296 186.687C96.7886 187.426 97.3714 188.008 97.6174 188.008C97.6563 188.008 97.8246 187.892 97.98 187.348C98.757 184.641 96.7498 181.598 92.1655 178.555C91.8806 178.361 91.8029 177.972 91.9971 177.687C92.1914 177.402 92.5799 177.325 92.8648 177.519C99.2621 181.792 99.8319 185.405 99.1844 187.685C98.8218 188.941 98.1613 189.226 97.6692 189.239C97.6563 189.239 97.6433 189.239 97.6304 189.239C96.6591 189.239 95.7397 188.151 95.3641 187.102C94.7296 185.354 93.9396 184.305 92.9943 183.955C92.2561 183.696 91.3755 183.864 90.3654 184.46C87.9697 185.897 77.6485 189.925 77.2082 190.106C77.1435 190.171 77.0658 190.184 76.9881 190.184Z" fill="black"/>
<path d="M85.445 186.17C85.8335 185.975 86.235 185.781 86.6235 185.574C86.6105 185.561 86.5846 185.535 86.5717 185.522C85.1601 184.344 83.7615 180.523 83.9299 176.716C84.0205 174.748 84.5774 172.106 86.6753 170.655C86.9602 170.461 87.0249 170.073 86.8307 169.788C86.6364 169.503 86.2479 169.438 85.963 169.632C83.4378 171.368 82.7773 174.411 82.6737 176.664C82.5054 180.277 83.7227 184.395 85.445 186.17Z" fill="black"/>
<path d="M143.641 180.484C142.229 180.484 141.077 178.684 139.963 176.936C139.393 176.042 138.538 174.709 138.137 174.618C137.8 174.54 137.593 174.216 137.671 173.88C137.749 173.543 138.072 173.336 138.409 173.414C139.315 173.621 140.067 174.786 141.012 176.275C141.815 177.532 142.916 179.254 143.641 179.254C143.861 179.254 143.9 179.189 143.913 179.163C144.081 178.865 143.952 177.804 142.929 176.068C140.921 172.688 135.871 167.703 130.121 167.819C121.354 167.987 116.316 171.147 114.27 177.778C114.167 178.101 113.817 178.296 113.493 178.192C113.169 178.088 112.975 177.739 113.079 177.415C115.293 170.202 120.706 166.757 130.095 166.576C135.974 166.472 141.413 171.083 143.99 175.434C144.651 176.547 145.661 178.594 144.988 179.772C144.729 180.238 144.249 180.484 143.641 180.484Z" fill="black"/>
<path d="M134.874 185.354C134.809 185.354 134.744 185.354 134.679 185.341C133.876 185.263 132.724 184.654 131.83 182.194C130.613 178.84 126.43 176.405 125.511 176.392C125.265 176.833 125.148 178.555 125.07 179.707C124.902 182.22 124.76 183.787 124.047 184.395C123.413 184.939 122.675 185.056 122.079 184.719C120.719 183.955 120.447 181.158 121.237 176.185C121.289 175.848 121.613 175.615 121.95 175.667C122.286 175.719 122.519 176.043 122.468 176.379C121.444 182.738 122.558 183.567 122.688 183.631C122.882 183.735 123.18 183.489 123.245 183.437C123.607 183.113 123.75 180.925 123.84 179.617C124.022 176.897 124.151 175.46 125.109 175.188C126.767 174.722 131.714 178.153 133.022 181.754C133.527 183.165 134.2 184.033 134.822 184.098C135.107 184.136 135.34 183.968 135.456 183.8C135.586 182.945 133.721 178.438 131.429 175.007C131.235 174.722 131.312 174.333 131.597 174.139C131.882 173.945 132.271 174.022 132.465 174.307C134.278 177.027 137.36 183.049 136.544 184.395C136.259 184.862 135.677 185.354 134.874 185.354Z" fill="black"/>
<path d="M136 184.719C135.69 184.719 135.418 184.486 135.379 184.175C135.34 183.838 135.573 183.528 135.923 183.476C136.933 183.346 137.619 183.165 137.865 182.647C138.448 181.469 137.308 178.451 134.485 173.686C134.304 173.388 134.407 173.012 134.705 172.831C135.003 172.65 135.379 172.753 135.56 173.051C138.785 178.49 139.808 181.52 138.992 183.191C138.435 184.331 137.192 184.577 136.078 184.706C136.052 184.719 136.026 184.719 136 184.719Z" fill="black"/>
<path d="M138.435 183.903C138.124 183.903 137.852 183.67 137.813 183.359C137.774 183.022 138.008 182.712 138.357 182.66C139.367 182.53 140.054 182.349 140.3 181.831C140.882 180.653 139.743 177.635 136.92 172.87C136.738 172.572 136.842 172.196 137.14 172.015C137.438 171.834 137.813 171.937 137.995 172.235C141.219 177.674 142.242 180.704 141.426 182.375C140.87 183.515 139.626 183.761 138.513 183.89C138.487 183.903 138.461 183.903 138.435 183.903Z" fill="black"/>
<path d="M52.7452 185.263C52.4214 185.263 52.1495 185.017 52.1236 184.693C52.1106 184.486 50.3235 163.351 51.0358 149.78C51.7998 135.276 59.8806 132.168 83.7863 130.212C84.136 130.186 84.4338 130.445 84.4597 130.782C84.4856 131.119 84.2266 131.43 83.8899 131.455C59.1554 133.476 52.9524 137.089 52.279 149.844C51.5667 163.325 53.3409 184.369 53.3668 184.576C53.3927 184.913 53.1466 185.224 52.797 185.25C52.784 185.263 52.7581 185.263 52.7452 185.263Z" fill="black"/>
<path d="M122.999 168.259C122.688 168.259 122.416 168.026 122.377 167.715C122.377 167.664 121.717 162.16 119.528 147.837C117.379 133.722 113.403 130.95 95.8557 131.365C95.519 131.365 95.2211 131.106 95.2211 130.756C95.2082 130.419 95.4801 130.135 95.8298 130.122C113.869 129.707 118.531 132.971 120.759 147.643C122.947 161.992 123.608 167.508 123.608 167.56C123.646 167.897 123.4 168.208 123.064 168.246C123.051 168.259 123.025 168.259 122.999 168.259Z" fill="black"/>
<path d="M67.8192 177.752C67.4825 177.752 67.2106 177.493 67.1976 177.156L66.1098 150.414C66.0969 150.078 66.3688 149.78 66.7055 149.767C67.0422 149.741 67.3401 150.026 67.353 150.362L68.4408 177.104C68.4538 177.441 68.1818 177.739 67.8451 177.752C67.8322 177.752 67.8192 177.752 67.8192 177.752Z" fill="black"/>
<path d="M112.846 172.002C112.535 172.002 112.263 171.769 112.224 171.445L109.323 145.739C109.285 145.403 109.531 145.092 109.867 145.053C110.204 145.014 110.515 145.26 110.554 145.597L113.454 171.303C113.493 171.639 113.247 171.95 112.911 171.989C112.885 171.989 112.872 172.002 112.846 172.002Z" fill="black"/>
<path d="M66.7316 154.895C66.6539 154.895 66.5633 154.882 66.4856 154.843L51.878 148.627C51.5672 148.498 51.4118 148.122 51.5542 147.812C51.6837 147.501 52.0463 147.345 52.3701 147.488L66.9777 153.704C67.2885 153.833 67.4439 154.209 67.3014 154.52C67.1978 154.753 66.9647 154.895 66.7316 154.895Z" fill="black"/>
<path d="M119.476 143.046C119.282 142.761 118.893 142.696 118.608 142.89L110.476 148.498C110.527 148.977 110.566 149.443 110.592 149.922L119.307 143.913C119.592 143.706 119.67 143.318 119.476 143.046Z" fill="black"/>
<path d="M153.471 104.843H120.72C120.371 104.843 120.099 104.571 120.099 104.222V88.876C120.099 88.5263 120.371 88.2544 120.72 88.2544H153.471C153.82 88.2544 154.092 88.5263 154.092 88.876V104.209C154.092 104.558 153.82 104.843 153.471 104.843ZM121.342 103.6H152.849V89.4976H121.342V103.6Z" fill="black"/>
<path d="M160.101 99.6634C161.703 99.6634 163.002 98.3647 163.002 96.7626C163.002 95.1606 161.703 93.8618 160.101 93.8618C158.499 93.8618 157.2 95.1606 157.2 96.7626C157.2 98.3647 158.499 99.6634 160.101 99.6634Z" fill="#FF5E66"/>
<path d="M146.012 97.3843H127.972C127.623 97.3843 127.351 97.1124 127.351 96.7627C127.351 96.4131 127.623 96.1411 127.972 96.1411H145.999C146.348 96.1411 146.62 96.4131 146.62 96.7627C146.62 97.1124 146.348 97.3843 146.012 97.3843Z" fill="black"/>
<path d="M195.338 91.5696C195.183 91.5696 195.014 91.5049 194.898 91.3883L184.719 81.2096H148.084C147.734 81.2096 147.462 80.9377 147.462 80.588V57.3687C147.462 57.019 147.734 56.7471 148.084 56.7471H195.338C195.688 56.7471 195.96 57.019 195.96 57.3687V90.948C195.96 91.1941 195.804 91.4272 195.571 91.5178C195.506 91.5567 195.416 91.5696 195.338 91.5696ZM148.705 79.9664H184.978C185.146 79.9664 185.302 80.0312 185.418 80.1477L194.716 89.4458V57.9903H148.705V79.9664V79.9664Z" fill="#9E675E"/>
<path d="M174.618 66.2911H155.335C154.986 66.2911 154.714 66.0191 154.714 65.6695C154.714 65.3198 154.986 65.0479 155.335 65.0479H174.618C174.968 65.0479 175.24 65.3198 175.24 65.6695C175.24 66.0191 174.955 66.2911 174.618 66.2911Z" fill="black"/>
<path d="M180.523 72.8179H155.335C154.986 72.8179 154.714 72.546 154.714 72.1963C154.714 71.8467 154.986 71.5747 155.335 71.5747H180.523C180.873 71.5747 181.145 71.8467 181.145 72.1963C181.145 72.546 180.86 72.8179 180.523 72.8179Z" fill="black"/>
<path d="M187.05 66.2911H179.28C178.93 66.2911 178.658 66.0191 178.658 65.6695C178.658 65.3198 178.93 65.0479 179.28 65.0479H187.05C187.399 65.0479 187.671 65.3198 187.671 65.6695C187.671 66.0191 187.387 66.2911 187.05 66.2911Z" fill="black"/>
<path d="M55.349 83.592C54.7922 82.7632 54.2483 81.9344 53.6914 81.1056C53.2511 80.4451 52.1763 81.0667 52.6166 81.7272C53.1734 82.556 53.7173 83.3848 54.2742 84.2136C54.7145 84.887 55.7893 84.2654 55.349 83.592Z" fill="#AAC5E7"/>
<path d="M54.0016 88.4356C53.4448 87.7492 52.9009 87.0499 52.344 86.3636C52.1368 86.1046 51.6836 86.1434 51.4634 86.3636C51.2044 86.6226 51.2562 86.9852 51.4634 87.2442C52.0203 87.9305 52.5642 88.6298 53.121 89.3162C53.3282 89.5752 53.7815 89.5363 54.0016 89.3162C54.2606 89.0572 54.2088 88.6946 54.0016 88.4356Z" fill="#AAC5E7"/>
<path d="M206.099 102.538C205.27 103.509 204.442 104.467 203.613 105.439C203.095 106.047 203.975 106.928 204.493 106.319C205.322 105.348 206.151 104.39 206.98 103.418C207.485 102.81 206.617 101.929 206.099 102.538Z" fill="#AAC5E7"/>
<path d="M65.1777 128.464C62.5489 128.464 60.4121 126.327 60.4121 123.698C60.4121 121.069 62.5489 118.933 65.1777 118.933C67.8066 118.933 69.9433 121.069 69.9433 123.698C69.9433 126.327 67.8066 128.464 65.1777 128.464ZM65.1777 120.176C63.2352 120.176 61.6553 121.756 61.6553 123.698C61.6553 125.641 63.2352 127.221 65.1777 127.221C67.1202 127.221 68.7001 125.641 68.7001 123.698C68.7001 121.756 67.1202 120.176 65.1777 120.176Z" fill="#FEEB8F"/>
<path d="M143.978 79.0725C140.132 72.1443 136.286 65.229 132.439 58.3007C132.051 57.6014 130.976 58.223 131.365 58.9223C135.211 65.8506 139.057 72.7659 142.903 79.6941C143.304 80.4064 144.379 79.7718 143.978 79.0725Z" fill="#FEEB8F"/>
</svg>
