<svg width="176" height="144" viewBox="0 0 176 144" fill="none" xmlns="http://www.w3.org/2000/svg">
<path d="M98.5003 26.3301H45.5903V79.5001H98.5003V26.3301Z" fill="black"/>
<path d="M72.5802 36.23L57.0302 61.45L55.7402 68.71C55.9702 68.51 56.7502 68.88 59.8002 68.88C65.6702 68.88 79.1502 64.04 79.8402 58.34C80.5302 52.64 72.7602 48.84 72.5802 36.23Z" fill="black"/>
<path d="M74.6503 26.3301C74.1903 28.0101 73.7703 29.6801 73.3903 31.3201C69.7703 46.6701 69.2103 59.4201 65.4503 62.5001C62.2203 65.1501 56.9103 64.2701 56.9103 64.2701L54.2703 75.1001L56.2603 79.4601H45.5903V26.3301H74.6503Z" fill="white"/>
<path d="M53.1004 79.68C53.0604 79.68 53.0104 79.67 52.9704 79.66C52.6904 79.59 52.5304 79.31 52.6004 79.03L56.4004 64.13C56.4704 63.87 56.7204 63.7 56.9904 63.75C57.0404 63.76 62.1004 64.56 65.1104 62.09C67.4204 60.2 68.5404 53.9 69.9504 45.92C70.7304 41.51 71.6204 36.52 72.8704 31.2C73.1004 30.23 73.3604 29.39 73.6404 28.51C73.8404 27.89 74.0404 27.25 74.2304 26.55C74.3104 26.27 74.5904 26.11 74.8704 26.19C75.1504 26.27 75.3104 26.55 75.2304 26.83C75.0304 27.55 74.8304 28.2 74.6304 28.83C74.3604 29.7 74.1004 30.52 73.8804 31.45C72.6304 36.74 71.7504 41.72 70.9704 46.12C69.4604 54.63 68.3704 60.78 65.7604 62.92C62.9204 65.25 58.7004 65.02 57.2804 64.86L53.6004 79.29C53.5404 79.53 53.3304 79.68 53.1004 79.68Z" fill="black"/>
<path d="M74.6505 26.3301C74.1905 28.0101 73.7705 29.6801 73.3905 31.3201C71.7605 28.3001 68.6905 26.7901 65.2505 26.3301H74.6505Z" fill="black"/>
<path d="M63.0605 48.6101C66.0505 45.5601 64.8005 41.2701 63.6305 37.6901L63.0605 48.6101Z" fill="white"/>
<path d="M63.0603 49.12C62.9303 49.12 62.8003 49.07 62.7003 48.97C62.4903 48.77 62.4903 48.44 62.6903 48.24C65.3603 45.52 64.4203 41.77 63.1403 37.84C63.0503 37.57 63.2003 37.28 63.4703 37.19C63.7503 37.1 64.0403 37.25 64.1203 37.52C65.1703 40.73 66.7603 45.57 63.4303 48.97C63.3303 49.07 63.1903 49.12 63.0603 49.12Z" fill="black"/>
<path d="M70.15 37.52C70.05 37.52 69.95 37.49 69.86 37.43L68.68 36.64C68.44 36.48 68.38 36.16 68.54 35.92C68.7 35.68 69.02 35.62 69.26 35.78L70.44 36.57C70.68 36.73 70.74 37.05 70.58 37.29C70.49 37.43 70.32 37.52 70.15 37.52Z" fill="black"/>
<path d="M56.4906 37.73C55.6806 37.62 55.5106 38.87 56.3206 38.98C57.1206 39.09 57.3006 37.84 56.4906 37.73Z" fill="black"/>
<path d="M68.9501 39.3001C68.1401 39.1901 67.9701 40.4401 68.7801 40.5501C69.5901 40.6601 69.7601 39.4101 68.9501 39.3001Z" fill="black"/>
<path d="M54.1703 54.74C53.6003 54.74 53.0403 54.48 52.5903 54C51.8203 53.18 51.5403 51.91 51.8703 50.69C51.9403 50.41 52.2303 50.25 52.5003 50.32C52.7803 50.39 52.9403 50.68 52.8703 50.95C52.5903 52 52.9303 52.84 53.3503 53.28C53.6503 53.6 54.0103 53.74 54.3403 53.67C54.6203 53.61 54.8903 53.8 54.9503 54.08C55.0103 54.36 54.8203 54.63 54.5403 54.69C54.4203 54.73 54.3003 54.74 54.1703 54.74Z" fill="black"/>
<path d="M54.7908 34.4601C54.5508 34.4601 54.3308 34.2901 54.2808 34.0401C54.2308 33.7601 54.4108 33.4901 54.6908 33.4401L56.7608 33.0501C57.0408 33.0001 57.3108 33.1801 57.3608 33.4601C57.4108 33.7401 57.2308 34.0101 56.9508 34.0601L54.8808 34.4501C54.8508 34.4501 54.8208 34.4601 54.7908 34.4601Z" fill="black"/>
<path d="M49.9505 79.6001C49.7905 79.6001 49.6405 79.5301 49.5305 79.3901L45.3805 73.8601C45.2105 73.6301 45.2505 73.3101 45.4805 73.1301C45.7105 72.9601 46.0305 73.0001 46.2105 73.2301L50.3605 78.7601C50.5305 78.9901 50.4905 79.3101 50.2605 79.4901C50.1705 79.5601 50.0605 79.6001 49.9505 79.6001Z" fill="black"/>
<path d="M56.3404 79.9401C56.1504 79.9401 55.9604 79.8301 55.8704 79.6501L53.8004 75.3301C53.6804 75.0701 53.7804 74.7601 54.0404 74.6401C54.3004 74.5101 54.6104 74.6201 54.7304 74.8801L56.8004 79.2001C56.9204 79.4601 56.8204 79.7701 56.5604 79.8901C56.4904 79.9201 56.4204 79.9401 56.3404 79.9401Z" fill="black"/>
<path d="M45.6306 34.85C45.6306 34.85 57.5506 28.46 58.9306 26.38L45.5806 26.34L45.6306 34.85Z" fill="black"/>
<path d="M98.5 26.33V43.14C92.67 43.19 87.96 47.93 87.96 53.76C87.96 59.6 92.67 64.34 98.5 64.38V79.67H151.72V26.33H98.5Z" fill="#FEEB8F"/>
<path d="M120.15 36.8C119.42 39.02 122.22 39.92 123.78 40.19C123.87 40.2 123.94 40.2 124.01 40.17C124.03 40.18 124.06 40.18 124.08 40.19C125.64 37 128.87 36.01 133.9 36.97C139.74 38.08 140.05 41.72 140.05 41.72C140.4 41.22 141.14 40.65 142.06 40.21C142.12 40.12 142.18 40.02 142.24 39.92C142.24 39.91 142.25 39.9 142.25 39.9C142.55 39.85 142.81 39.56 142.61 39.23C140.77 36.11 137.8 32.02 134.27 30.65C133.17 30.23 132.05 30.4 131.5 31.54C131.22 32.11 131.23 32.68 131.38 33.24C129.74 32.06 127.98 31.07 126.1 30.3C124.33 29.58 121.74 28.42 119.83 29.25C118.43 29.86 117.94 31.4 118.27 32.83C118.58 34.22 119.61 35.18 120.77 35.94C120.5 36.14 120.28 36.42 120.15 36.8Z" fill="black"/>
<path d="M123.22 57.81C124.57 60.16 127.26 60.7 130.03 60.59L131.15 67.33C131.15 67.33 132.52 70.82 137.02 69.92C138.75 69.57 140.56 67.48 140.56 67.48C140.56 67.48 140.06 64.86 139.48 56.46C141.67 54.77 142.27 50.25 142.27 50.25C146.85 49.5 150.93 46.42 148.99 41.97C147.61 38.82 144.3 39.14 142.06 40.22C141.14 40.66 140.4 41.23 140.05 41.73C140.05 41.73 139.75 38.1 133.9 36.98C128.87 36.02 125.65 37.01 124.08 40.2C123.51 41.36 123.16 42.82 123.01 44.58C122.59 49.91 121.85 55.43 123.22 57.81Z" fill="white"/>
<path d="M135.61 70.5899C131.92 70.5899 130.68 67.5599 130.67 67.5199C130.66 67.4899 130.65 67.4499 130.64 67.4199L129.59 61.1299C126.2 61.1899 123.98 60.1799 122.76 58.0799C121.5 55.8999 121.89 51.4899 122.3 46.8299C122.37 46.0699 122.43 45.3099 122.49 44.5499C122.64 42.6899 123.01 41.1999 123.61 39.9799C125.26 36.6099 128.66 35.4599 133.99 36.4799C138.31 37.2999 139.79 39.4499 140.3 40.7199C140.71 40.3699 141.24 40.0399 141.83 39.7599C142.68 39.3499 144.87 38.4899 146.92 39.2499C148.06 39.6799 148.92 40.5199 149.46 41.7699C150.2 43.4699 150.17 45.1299 149.38 46.5899C148.29 48.5899 145.82 50.1099 142.72 50.6999C142.53 51.8199 141.82 55.0899 140.01 56.6899C140.58 64.7299 141.06 67.3499 141.07 67.3799C141.1 67.5299 141.06 67.6999 140.95 67.8099C140.87 67.8999 139 70.0499 137.12 70.4199C136.58 70.5399 136.08 70.5899 135.61 70.5899ZM131.66 67.1799C131.83 67.5699 133.15 70.1599 136.93 69.4099C138.19 69.1599 139.55 67.7999 140.01 67.3099C139.87 66.4699 139.45 63.4899 138.96 56.4899C138.95 56.3199 139.02 56.1499 139.16 56.0399C141.16 54.4899 141.75 50.2199 141.75 50.1699C141.78 49.9399 141.95 49.7599 142.18 49.7299C145.1 49.2499 147.51 47.8499 148.47 46.0799C149.11 44.8999 149.13 43.5799 148.51 42.1699C148.08 41.1899 147.42 40.5299 146.55 40.2099C145.39 39.7799 143.79 39.9499 142.27 40.6799C141.46 41.0699 140.77 41.5799 140.46 42.0199C140.33 42.1999 140.11 42.2799 139.9 42.2199C139.69 42.1599 139.54 41.9799 139.52 41.7599C139.51 41.6299 139.13 38.4999 133.79 37.4799C128.91 36.5499 125.97 37.4899 124.54 40.4199C124 41.5099 123.66 42.9199 123.52 44.6199C123.46 45.3799 123.39 46.1499 123.33 46.9099C122.95 51.2099 122.56 55.6499 123.66 57.5499C124.71 59.3799 126.78 60.2099 130 60.0699C130.25 60.0499 130.49 60.2399 130.53 60.4999L131.66 67.1799Z" fill="black"/>
<path d="M128.08 51.61C127.92 51.61 127.77 51.54 127.67 51.41C125.81 49 126.77 46.23 129.05 42.25C129.19 42 129.51 41.92 129.76 42.06C130.01 42.2 130.09 42.52 129.95 42.77C127.52 47.02 127.15 49.04 128.49 50.78C128.66 51.01 128.62 51.33 128.4 51.51C128.3 51.57 128.19 51.61 128.08 51.61Z" fill="black"/>
<path d="M135.127 44.315C135.445 44.2457 135.647 43.9314 135.578 43.613C135.509 43.2946 135.194 43.0927 134.876 43.162C134.557 43.2314 134.356 43.5457 134.425 43.8641C134.494 44.1825 134.809 44.3844 135.127 44.315Z" fill="black"/>
<path d="M126.465 44.2457C126.784 44.1763 126.986 43.862 126.916 43.5436C126.847 43.2253 126.533 43.0234 126.214 43.0927C125.896 43.162 125.694 43.4764 125.763 43.7948C125.833 44.1131 126.147 44.315 126.465 44.2457Z" fill="black"/>
<path d="M141.76 46.7399C141.72 46.7399 141.67 46.7299 141.63 46.7199C141.35 46.6499 141.18 46.3699 141.26 46.0899C141.57 44.8599 143.49 42.4699 145.55 42.4399H145.56C145.84 42.4399 146.07 42.6699 146.08 42.9499C146.08 43.2399 145.86 43.4699 145.57 43.4799C144.02 43.5099 142.48 45.5399 142.27 46.3499C142.2 46.5899 141.99 46.7399 141.76 46.7399Z" fill="black"/>
<path d="M136.17 41.07C136.11 41.07 136.05 41.06 135.99 41.04L134.61 40.52C134.34 40.42 134.21 40.12 134.31 39.85C134.41 39.58 134.71 39.45 134.98 39.55L136.36 40.07C136.63 40.17 136.76 40.47 136.66 40.74C136.57 40.94 136.38 41.07 136.17 41.07Z" fill="black"/>
<path d="M125.11 41.4099C124.9 41.4099 124.7 41.2799 124.62 41.0699C124.52 40.7999 124.66 40.4999 124.92 40.3999L126.3 39.8799C126.57 39.7799 126.87 39.9099 126.97 40.1799C127.07 40.4499 126.93 40.7499 126.67 40.8499L125.29 41.3699C125.23 41.3999 125.17 41.4099 125.11 41.4099Z" fill="black"/>
<path d="M134.96 52.64C134.9 51.98 133.86 51.97 133.92 52.64C133.97 53.21 133.45 53.81 132.85 53.68C132.2 53.54 131.92 54.54 132.57 54.68C133.79 54.94 135.08 53.92 134.96 52.64Z" fill="black"/>
<path d="M108.52 79.77C108.5 79.77 108.47 79.77 108.45 79.77C108.17 79.73 107.97 79.47 108.01 79.19C110.04 64.29 122.51 65.78 129.97 66.68C130.4 66.73 130.82 66.78 131.22 66.83C131.5 66.86 131.71 67.12 131.68 67.4C131.65 67.68 131.4 67.89 131.11 67.86C130.71 67.81 130.29 67.76 129.86 67.71C122.33 66.81 110.95 65.44 109.05 79.33C109 79.58 108.78 79.77 108.52 79.77Z" fill="black"/>
<path d="M151.2 69.19C151.17 69.19 151.15 69.19 151.12 69.18C151.08 69.17 146.91 68.53 140.52 67.99C140.23 67.97 140.02 67.72 140.05 67.43C140.07 67.14 140.33 66.93 140.61 66.96C147.04 67.5 151.24 68.15 151.28 68.15C151.56 68.19 151.76 68.46 151.71 68.74C151.67 69 151.45 69.19 151.2 69.19Z" fill="black"/>
<path d="M83.0396 79.46V79.42C83.0396 73.55 78.2796 68.79 72.4096 68.79C66.5396 68.79 61.7796 73.55 61.7796 79.42V79.46H45.5796V132.38H98.4996V79.46H83.0396Z" fill="#AAC5E7"/>
<path d="M92.4694 132.38H45.5894V127.6C48.7694 125.97 56.0094 124.55 64.2494 124.13C64.2494 124.13 87.3194 124.52 90.2994 128.28C91.3894 129.65 92.0594 131.1 92.4694 132.38Z" fill="white"/>
<path d="M92.4796 132.9C92.2696 132.9 92.0696 132.77 91.9896 132.56C89.9496 126.95 85.5696 124.24 67.2496 125.04C66.1496 125.09 65.0496 125.13 63.9596 125.17C57.1096 125.41 50.6496 125.64 45.9996 127.96C45.7396 128.09 45.4296 127.98 45.2996 127.73C45.1696 127.47 45.2796 127.16 45.5296 127.03C50.3796 124.61 56.9496 124.38 63.9096 124.13C64.9996 124.09 66.0896 124.05 67.1896 124C84.1696 123.26 90.4296 125.26 92.9496 132.2C93.0496 132.47 92.9096 132.77 92.6396 132.86C92.5896 132.89 92.5296 132.9 92.4796 132.9Z" fill="black"/>
<path d="M76.4597 107.54C75.3697 102.89 70.9497 96.0801 68.6197 89.0501C64.9597 81.3801 54.6997 86.4301 51.3697 91.8501C49.3397 95.1501 48.9097 99.51 50.1597 103.42C53.0997 112.6 59.1197 113.9 59.1197 113.9L60.2297 126.33L70.5997 126.07L70.9397 114.84C70.9397 114.84 74.4697 114.85 76.2697 111.92C76.8597 110.94 76.8297 109.1 76.4597 107.54Z" fill="white"/>
<path d="M60.2297 126.85C59.9597 126.85 59.7397 126.65 59.7097 126.38L58.6397 114.3C57.2297 113.85 52.2797 111.72 49.6697 103.57C48.3597 99.4801 48.8297 94.9901 50.9297 91.5701C53.0997 88.0401 58.3497 84.3901 63.0397 84.6201C65.7597 84.7601 67.8497 86.2201 69.0897 88.8201C69.0997 88.8401 69.1097 88.8601 69.1097 88.8801C70.2397 92.2901 71.9097 95.7301 73.3797 98.7701C74.9297 101.97 76.3897 104.99 76.9597 107.42C77.3097 108.94 77.4297 110.98 76.6897 112.19C75.1597 114.68 72.5297 115.21 71.4197 115.33L71.0997 126.09C71.0897 126.38 70.8497 126.59 70.5697 126.59C70.2797 126.58 70.0597 126.34 70.0697 126.06L70.4097 114.83C70.4197 114.55 70.6497 114.33 70.9297 114.33C70.9597 114.33 74.1997 114.3 75.8097 111.66C76.2697 110.9 76.3297 109.29 75.9497 107.67C75.4097 105.35 73.9697 102.38 72.4397 99.2401C70.9597 96.1901 69.2797 92.7301 68.1297 89.2601C67.0397 87.0101 65.3097 85.8001 62.9697 85.6801C58.7797 85.4501 53.8197 88.8401 51.7997 92.1301C49.8497 95.3001 49.4197 99.4601 50.6397 103.27C53.4597 112.06 59.1597 113.39 59.2097 113.4C59.4297 113.45 59.5997 113.63 59.6197 113.86L60.7297 126.29C60.7597 126.57 60.5397 126.83 60.2597 126.85C60.2597 126.85 60.2397 126.85 60.2297 126.85Z" fill="black"/>
<path d="M59.0695 114.44C59.7695 114.09 59.9295 113.45 60.3895 112.74C62.1995 109.93 60.4195 105.47 60.3595 102.43C60.3495 101.8 60.3795 101.16 60.4595 100.51C60.3595 100.16 60.4495 100.18 60.3595 99.8201C60.7695 99.9801 61.1895 99.9301 61.6295 99.5701C62.6895 98.6801 61.8195 96.4201 61.6395 95.3301C61.2895 93.2501 60.9395 91.1701 60.5895 89.0801C61.5395 87.4701 62.9895 86.2801 64.6695 85.4301C60.0995 84.0301 53.8395 87.8301 51.3795 91.8401C49.3495 95.1401 48.9195 99.5001 50.1695 103.41C52.6095 111.07 57.6095 113.93 59.0695 114.44Z" fill="black"/>
<path d="M70.6396 94.04L75.4396 102.68C77.1996 99.55 74.5696 98.2 70.6396 94.04Z" fill="white"/>
<path d="M75.4397 103.21C75.3497 103.21 75.2697 103.19 75.1897 103.14C74.9397 103 74.8497 102.68 74.9897 102.43C76.1397 100.38 75.2397 99.3401 72.4697 96.6201C71.8097 95.9701 71.0597 95.2401 70.2597 94.3901C70.0597 94.1801 70.0697 93.8501 70.2797 93.6601C70.4897 93.4601 70.8197 93.4701 71.0097 93.6801C71.7997 94.5101 72.5397 95.2401 73.1897 95.8801C75.8697 98.5001 77.4897 100.09 75.8897 102.94C75.7997 103.11 75.6197 103.21 75.4397 103.21Z" fill="black"/>
<path d="M60.7591 99.4501C55.4591 97.7601 52.6091 100.85 52.7491 103.45C52.9891 107.75 56.9991 109.43 62.8391 107.17" fill="white"/>
<path d="M58.0992 108.69C56.7092 108.69 55.4892 108.38 54.5292 107.75C53.1392 106.85 52.3492 105.37 52.2392 103.47C52.1592 102.03 52.8492 100.6 54.0892 99.6401C55.0692 98.8801 57.2592 97.7801 60.9192 98.9501C61.1892 99.0401 61.3392 99.3301 61.2592 99.6001C61.1692 99.8701 60.8792 100.03 60.6092 99.9401C58.2292 99.1801 56.1492 99.3701 54.7292 100.47C53.7692 101.21 53.2192 102.34 53.2792 103.42C53.3692 104.97 53.9992 106.17 55.0992 106.88C56.7992 107.98 59.4892 107.91 62.6692 106.68C62.9392 106.58 63.2392 106.71 63.3392 106.98C63.4392 107.25 63.3092 107.55 63.0392 107.65C61.2392 108.35 59.5692 108.69 58.0992 108.69Z" fill="black"/>
<path d="M55.8594 102.78C57.3994 102.07 59.2594 102.38 60.4794 103.56C60.9194 103.99 60.3194 104.75 59.8794 104.31C58.8794 103.34 57.4694 103.09 56.2094 103.67C55.6394 103.94 55.2894 103.04 55.8594 102.78Z" fill="black"/>
<path d="M69.8189 95.947C70.1279 95.8275 70.2817 95.4802 70.1622 95.1711C70.0427 94.862 69.6953 94.7083 69.3863 94.8278C69.0772 94.9472 68.9235 95.2946 69.043 95.6037C69.1624 95.9128 69.5098 96.0665 69.8189 95.947Z" fill="black"/>
<path d="M67.2795 92.3401C67.4995 92.1301 67.7195 91.9101 67.9395 91.7001C68.1295 91.5201 68.3995 91.4501 68.6195 91.6201C68.7995 91.7701 68.8795 92.1101 68.6995 92.3001L68.0395 92.9401C67.8495 93.1201 67.5795 93.1901 67.3595 93.0201C67.1695 92.8701 67.0895 92.5201 67.2795 92.3401Z" fill="black"/>
<path d="M70.5701 105.94C71.0101 106.55 71.7901 106.84 72.5201 106.61C73.1101 106.42 73.4601 107.32 72.8701 107.51C71.7401 107.87 70.5001 107.49 69.8001 106.52C69.4401 106.01 70.2101 105.43 70.5701 105.94Z" fill="black"/>
<path d="M65.0495 121.81C63.2795 121.81 61.3795 121.41 59.6795 120.28C59.4395 120.12 59.3795 119.8 59.5395 119.56C59.6995 119.32 60.0195 119.26 60.2595 119.42C63.8795 121.83 68.5995 120.4 70.1095 119.65C70.3695 119.52 70.6795 119.63 70.8095 119.88C70.9395 120.14 70.8295 120.45 70.5795 120.58C69.4095 121.16 67.3395 121.81 65.0495 121.81Z" fill="black"/>
<path d="M135.39 79.46V79.42C135.39 73.55 130.63 68.79 124.76 68.79C118.89 68.79 114.13 73.55 114.13 79.42V79.46H98.5V94.97C92.67 95.02 87.96 99.76 87.96 105.59C87.96 111.43 92.67 116.17 98.5 116.21V132.37H151.72V79.46H135.39Z" fill="#9E675E"/>
<path d="M146.71 91.9801C144.63 91.7801 142.68 92.6901 141.66 94.4601C141.37 94.4701 141.1 94.7301 141.26 95.0701C142.91 98.4701 143.98 102.09 144.31 105.86C144.61 109.28 144.02 112.7 144.33 116.11C144.72 120.32 147.47 124.75 151.7 125.35V95.4401C150.58 93.6401 148.87 92.1901 146.71 91.9801Z" fill="black"/>
<path d="M144.83 105.95C146.08 97.2701 140.23 90.9301 132.52 88.0601C129.5 86.9401 125.29 85.3301 122.35 87.4501C120.23 88.9701 120.13 92.0101 122.43 93.3501C122.58 93.4401 122.72 93.4201 122.82 93.3501C128.63 99.4701 135.78 104.06 143.81 106.73C144.15 106.84 144.41 106.58 144.44 106.31C144.63 106.31 144.8 106.19 144.83 105.95Z" fill="black"/>
<path d="M151.72 101.05V109.25C149.74 111.13 146.23 111.9 143.04 112.15C143.04 112.15 141.1 117.93 137.88 119.57C138.22 125.26 138.55 129.71 138.76 132.38C138.77 132.45 138.77 132.53 138.78 132.59H125.7L125.68 132.38L124.79 122.43C121.23 121.84 117.96 120.39 116.85 116.93C115.73 113.43 118.11 106.37 120.04 99.47C120.68 97.19 121.5 95.36 122.54 93.99C125.36 90.21 129.72 89.78 135.87 92.41C143.01 95.46 142.45 101.68 142.45 101.68C146.51 99.61 149.87 99.77 151.72 101.05Z" fill="white"/>
<path d="M138.77 133.11C138.5 133.11 138.28 132.9 138.25 132.63C138.07 130.41 137.73 125.77 137.35 119.59C137.34 119.38 137.45 119.19 137.63 119.1C140.63 117.58 142.52 112.04 142.54 111.98C142.61 111.78 142.78 111.64 142.99 111.63C145.71 111.42 149.09 110.91 151.02 108.83C151.22 108.62 151.54 108.61 151.75 108.8C151.96 109 151.97 109.32 151.78 109.53C149.68 111.78 146.25 112.39 143.41 112.63C142.95 113.86 141.19 118.2 138.41 119.85C138.78 125.86 139.12 130.37 139.29 132.54C139.31 132.83 139.1 133.08 138.81 133.1C138.8 133.11 138.79 133.11 138.77 133.11Z" fill="black"/>
<path d="M125.69 133.11C125.42 133.11 125.2 132.91 125.17 132.64L124.3 122.88C119.93 122.07 117.33 120.17 116.35 117.1C115.34 113.95 116.97 108.28 118.7 102.28C118.98 101.3 119.26 100.32 119.54 99.3401C120.21 96.9501 121.06 95.1101 122.12 93.6901C125.06 89.7601 129.62 89.1901 136.06 91.9401C141.85 94.4101 142.8 98.9601 142.94 100.86C147.57 98.7201 150.25 99.6101 151.69 100.79C151.91 100.97 151.95 101.3 151.77 101.52C151.59 101.74 151.26 101.78 151.04 101.6C149.2 100.11 146.31 100.3 142.67 102.15C142.5 102.24 142.3 102.22 142.14 102.12C141.98 102.01 141.9 101.83 141.91 101.64C141.93 101.4 142.33 95.7501 135.64 92.9001C129.62 90.3201 125.58 90.7701 122.93 94.3201C121.96 95.6101 121.14 97.4001 120.51 99.6301C120.24 100.61 119.95 101.6 119.67 102.58C117.99 108.42 116.4 113.94 117.31 116.79C118.19 119.55 120.66 121.24 124.84 121.94C125.07 121.98 125.25 122.17 125.27 122.41L126.18 132.57C126.21 132.85 125.99 133.11 125.71 133.13C125.72 133.11 125.71 133.11 125.69 133.11Z" fill="black"/>
<path d="M127.07 99.2101C123.78 102.4 120.02 106.82 122.87 111.51C123.17 112.01 123.89 111.46 123.59 110.96C121.03 106.76 124.74 102.71 127.61 99.9301C128.03 99.5301 127.49 98.8001 127.07 99.2101Z" fill="black"/>
<path d="M132.53 111.9C131.99 113.12 130.5 113.64 129.3 113.07C128.77 112.82 128.42 113.65 128.94 113.9C130.58 114.69 132.63 113.92 133.36 112.26C133.6 111.72 132.76 111.36 132.53 111.9Z" fill="black"/>
<path d="M148.64 104.07C146.53 104.09 144.58 105.15 143.39 106.88C143.06 107.36 143.77 107.92 144.1 107.44C145.18 105.87 146.86 104.99 148.76 104.97C149.34 104.97 149.22 104.07 148.64 104.07Z" fill="black"/>
<path d="M134.27 100.71C133.55 100.61 133.39 101.73 134.12 101.83C134.83 101.94 134.99 100.81 134.27 100.71Z" fill="black"/>
<path d="M123.2 97.9301C122.48 97.8301 122.32 98.9501 123.05 99.0501C123.77 99.1501 123.93 98.0301 123.2 97.9301Z" fill="black"/>
<path d="M124.97 94.9601C124.94 94.7001 124.71 94.5601 124.46 94.5701C124.23 94.5801 124 94.5801 123.77 94.5901C123.52 94.6001 123.35 94.8701 123.38 95.1001C123.41 95.3601 123.64 95.5001 123.89 95.4901C124.12 95.4801 124.35 95.4801 124.58 95.4701C124.82 95.4601 125 95.1901 124.97 94.9601Z" fill="black"/>
<path d="M136.09 98.1201C135.89 97.9001 135.69 97.6801 135.49 97.4701C135.33 97.2901 135.06 97.2301 134.85 97.3801C134.67 97.5201 134.6 97.8301 134.76 98.0201C134.96 98.2401 135.16 98.4601 135.36 98.6701C135.52 98.8501 135.79 98.9101 136 98.7601C136.19 98.6201 136.26 98.3001 136.09 98.1201Z" fill="black"/>
<path d="M140.68 94.1201C138.92 92.0201 136.58 90.6601 133.91 90.0801C133.79 90.0501 133.69 90.0801 133.61 90.1301C133.54 90.1101 133.47 90.0901 133.4 90.0701C133.26 90.0301 133.12 90.0401 133 90.1001C132.79 89.8101 132.58 89.5201 132.37 89.2301C132.03 88.7601 131.31 89.3001 131.65 89.7801C134.29 93.4301 136.8 97.2301 139.58 100.77C140.46 101.88 142.71 103.37 143.29 101.06C143.86 98.8301 142.04 95.7301 140.68 94.1201Z" fill="black"/>
<path d="M108.82 132.81C108.8 132.81 108.77 132.81 108.75 132.8C108.47 132.76 108.27 132.5 108.31 132.21C108.5 130.91 109.26 129.82 110.51 129.06C113.47 127.27 118.78 127.59 125.47 129.96C125.74 130.06 125.88 130.35 125.79 130.62C125.69 130.89 125.4 131.03 125.13 130.94C116.51 127.89 112.61 129.01 111.06 129.95C110.08 130.54 109.49 131.37 109.35 132.36C109.3 132.63 109.08 132.81 108.82 132.81Z" fill="black"/>
<path d="M52.19 19.3C52.06 19.3 51.92 19.25 51.82 19.15L47.15 14.48C46.95 14.28 46.95 13.95 47.15 13.75C47.35 13.55 47.68 13.55 47.88 13.75L52.55 18.42C52.75 18.62 52.75 18.95 52.55 19.15C52.46 19.24 52.33 19.3 52.19 19.3Z" fill="#FF5E66"/>
<path d="M47.5298 19.3C47.3998 19.3 47.2598 19.25 47.1598 19.15C46.9598 18.95 46.9598 18.62 47.1598 18.42L51.8298 13.75C52.0298 13.55 52.3598 13.55 52.5598 13.75C52.7598 13.95 52.7598 14.28 52.5598 14.48L47.8998 19.14C47.7998 19.24 47.6598 19.3 47.5298 19.3Z" fill="#FF5E66"/>
<path d="M61.5201 19.5499H56.0801C55.7901 19.5499 55.5601 19.3199 55.5601 19.0299V13.5899C55.5601 13.2999 55.7901 13.0699 56.0801 13.0699H61.5201C61.8101 13.0699 62.0401 13.2999 62.0401 13.5899V19.0299C62.0401 19.3199 61.8101 19.5499 61.5201 19.5499ZM56.6001 18.5199H61.0101V14.1099H56.6001V18.5199Z" fill="#FF5E66"/>
<path d="M68.7801 16.1899H64.8901C64.6001 16.1899 64.3701 15.9599 64.3701 15.6699C64.3701 15.3799 64.6001 15.1499 64.8901 15.1499H68.7801C69.0701 15.1499 69.3001 15.3799 69.3001 15.6699C69.3001 15.9499 69.0701 16.1899 68.7801 16.1899Z" fill="#FF5E66"/>
<path d="M110.27 89.2399C109.76 88.6299 109.25 88.0199 108.74 87.4099C108.31 86.8999 107.58 87.6299 108.01 88.1399C108.52 88.7499 109.03 89.3599 109.54 89.9699C109.96 90.4799 110.69 89.7399 110.27 89.2399Z" fill="#FEEB8F"/>
<path d="M109.11 93.5599C108.47 92.8099 107.82 92.0499 107.18 91.2999C106.75 90.7999 105.9 91.3899 106.34 91.8999C106.98 92.6499 107.63 93.4099 108.27 94.1599C108.7 94.6699 109.54 94.0699 109.11 93.5599Z" fill="#FEEB8F"/>
<path d="M107.92 35.6199C106.21 35.6199 104.81 34.2199 104.81 32.5099C104.81 30.7999 106.21 29.3999 107.92 29.3999C109.63 29.3999 111.03 30.7999 111.03 32.5099C111.03 34.2299 109.63 35.6199 107.92 35.6199ZM107.92 30.4399C106.78 30.4399 105.85 31.3699 105.85 32.5099C105.85 33.6499 106.78 34.5799 107.92 34.5799C109.06 34.5799 109.99 33.6499 109.99 32.5099C109.99 31.3699 109.06 30.4399 107.92 30.4399Z" fill="white"/>
<path d="M91.5906 70.87C91.4806 70.87 91.3806 70.84 91.2906 70.77C91.0606 70.6 91.0105 70.28 91.1805 70.05L93.2506 67.2C93.4206 66.97 93.7406 66.92 93.9706 67.09C94.2006 67.26 94.2505 67.58 94.0805 67.81L92.0105 70.66C91.9105 70.8 91.7506 70.87 91.5906 70.87Z" fill="white"/>
</svg>
