<svg width="297" height="253" viewBox="0 0 297 253" fill="none" xmlns="http://www.w3.org/2000/svg">
<g clip-path="url(#clip0_547_14645)">
<path d="M71.4462 220.076C60.7481 220.241 48.0683 220.351 39.9759 220.131C23.6811 219.69 1.64275 222.773 2.96395 210.442C3.753 203.084 13.9556 201.359 22.0479 201.175C22.7085 201.157 23.3508 201.157 23.9747 201.157C28.5438 201.175 32.0303 201.616 32.0303 201.616C32.434 198.716 33.4066 196.092 34.8379 193.78C35.1499 193.266 35.4985 192.771 35.8655 192.294C41.4072 184.954 51.9034 181.669 62.5647 185.082C63.7391 189.266 63.519 188.073 64.6567 192.991C66.6935 201.322 68.8772 211.066 71.4462 220.076Z" fill="#FEEB8F"/>
<path d="M291.096 186.64C290.307 202.183 252.781 198.458 211.732 198.751C211.163 186.493 210.448 175.447 209.585 169.446C207.622 155.739 195.015 150.491 180.28 148.784C184.134 131.242 192.942 120.672 209.585 121.865C228.082 123.186 231.605 154.032 231.605 154.032C231.605 154.032 244.817 143.022 249.221 165.483C249.24 165.501 291.977 169.465 291.096 186.64Z" fill="#FEEB8F"/>
<path d="M90.4953 244.942C90.4953 247.915 90.2567 250.814 89.8163 253.622H34.1975C33.7571 250.833 33.5186 247.933 33.5186 244.942C33.5186 235.566 35.794 226.959 39.6291 220.133C44.8405 210.83 52.9329 204.848 62.0161 204.848C63.9612 204.848 65.8696 205.123 67.7046 205.655C80.7148 209.362 90.4953 225.546 90.4953 244.942Z" fill="#9E675E"/>
<path d="M239.13 253.62C239.497 251.308 239.699 248.922 239.699 246.464C239.699 228.224 228.909 213.434 215.624 213.434C202.339 213.434 191.549 228.224 191.549 246.464C191.549 248.922 191.751 251.308 192.118 253.62H239.13Z" fill="#9E675E"/>
<path d="M283.17 242.794C283.17 246.519 282.931 250.134 282.472 253.621H225.697C225.257 250.134 225 246.519 225 242.794C225 215.196 238.01 192.809 254.066 192.809C270.141 192.827 283.17 215.196 283.17 242.794Z" fill="#9E675E"/>
<path d="M223.753 233.313C222.872 234.781 221.992 236.249 221.111 237.717C220.524 238.69 222.047 239.589 222.634 238.598C223.515 237.13 224.395 235.662 225.276 234.194C225.863 233.222 224.34 232.341 223.753 233.313Z" fill="#FEEB8F"/>
<path d="M65.1175 253.621H63.3559L60.2547 224.646C60.1997 224.169 60.5483 223.729 61.0438 223.674C61.5392 223.619 61.9613 223.967 62.0163 224.463L65.1175 253.621Z" fill="white"/>
<path d="M259.81 209.25L252.819 253.602H251.039L258.067 208.975C258.14 208.498 258.599 208.167 259.076 208.241C259.553 208.332 259.884 208.773 259.81 209.25Z" fill="white"/>
<path d="M247.478 232.901C247.148 232.901 246.818 232.717 246.671 232.387L242.267 222.698C242.065 222.258 242.267 221.726 242.707 221.524C243.148 221.322 243.68 221.524 243.882 221.964L248.286 231.653C248.488 232.093 248.286 232.626 247.845 232.827C247.717 232.882 247.607 232.901 247.478 232.901Z" fill="#FEEB8F"/>
<path d="M263.334 251.418C263.168 251.418 263.022 251.381 262.875 251.289C262.453 251.032 262.324 250.5 262.581 250.078L270.949 236.426C271.206 236.004 271.738 235.875 272.16 236.132C272.582 236.389 272.71 236.921 272.454 237.343L264.086 250.996C263.921 251.271 263.627 251.418 263.334 251.418Z" fill="white"/>
<path d="M47.4654 249.214C47.2085 249.214 46.9516 249.104 46.7865 248.884L42.8229 244.039C42.5109 243.654 42.566 243.104 42.9513 242.792C43.3183 242.48 43.8872 242.535 44.1991 242.92L48.1627 247.764C48.4747 248.15 48.4196 248.7 48.0343 249.012C47.8691 249.141 47.6673 249.214 47.4654 249.214Z" fill="#FEEB8F"/>
<path d="M205.183 82.2241C203 82.2241 201.22 80.4441 201.22 78.2605C201.22 76.0768 203 74.2969 205.183 74.2969C207.367 74.2969 209.147 76.0768 209.147 78.2605C209.147 80.4625 207.367 82.2241 205.183 82.2241ZM205.183 76.0585C203.972 76.0585 202.981 77.0494 202.981 78.2605C202.981 79.4716 203.972 80.4625 205.183 80.4625C206.394 80.4625 207.385 79.4716 207.385 78.2605C207.385 77.0494 206.394 76.0585 205.183 76.0585Z" fill="#AAC5E7"/>
<path d="M35.8859 192.305C35.5189 192.782 35.1886 193.277 34.8583 193.791C35.8492 194.947 36.4548 196.452 36.4548 198.103C36.4548 201.755 33.5004 204.709 29.8488 204.709C27.3165 204.709 25.0961 203.278 23.9951 201.168C23.3712 201.168 22.729 201.168 22.0684 201.186C23.2978 204.287 26.3256 206.471 29.8488 206.471C34.473 206.471 38.2164 202.709 38.2164 198.103C38.2164 195.846 37.3356 193.809 35.8859 192.305Z" fill="white"/>
<path d="M103.174 99.8387C102.146 98.3707 101.119 96.9027 100.091 95.4347C99.4487 94.5172 97.9256 95.398 98.5679 96.3155C99.5955 97.7835 100.623 99.2515 101.651 100.719C102.293 101.655 103.834 100.775 103.174 99.8387Z" fill="#AAC5E7"/>
<path d="M260.948 174.117C257.572 177.494 254.195 180.87 250.819 184.246C250.012 185.054 251.259 186.302 252.067 185.494C255.443 182.118 258.82 178.741 262.196 175.365C263.003 174.558 261.756 173.328 260.948 174.117Z" fill="white"/>
<path d="M262.636 184.25C259.26 180.873 255.884 177.497 252.507 174.121C251.7 173.313 250.452 174.561 251.259 175.369C254.636 178.745 258.012 182.121 261.389 185.498C262.196 186.305 263.444 185.057 262.636 184.25Z" fill="white"/>
<path d="M110.221 101.163C109.193 99.6949 108.165 98.2269 107.138 96.7589C106.496 95.8414 104.973 96.7222 105.615 97.6397C106.642 99.1077 107.67 100.576 108.698 102.044C109.358 102.98 110.881 102.099 110.221 101.163Z" fill="#AAC5E7"/>
<path d="M129.232 87.6575C127.728 91.7129 132.829 93.5846 135.691 94.2085C135.857 94.2452 135.985 94.2452 136.113 94.1901C136.15 94.2085 136.205 94.2268 136.242 94.2452C139.38 88.4466 145.417 86.8685 154.647 89.0154C165.382 91.511 165.675 98.2638 165.675 98.2638C166.373 97.3647 167.767 96.3738 169.51 95.6214C169.639 95.4563 169.749 95.2911 169.859 95.0893C169.859 95.0709 169.877 95.0526 169.877 95.0526C170.446 94.9975 170.942 94.4654 170.593 93.8415C167.419 87.9328 162.226 80.1524 155.803 77.3632C153.803 76.5007 151.711 76.7393 150.61 78.8128C150.059 79.8404 150.023 80.9047 150.261 81.9507C147.307 79.6386 144.132 77.6751 140.701 76.1337C137.49 74.6657 132.774 72.3169 129.177 73.7115C126.553 74.7208 125.526 77.5467 126.021 80.2258C126.498 82.8315 128.333 84.6848 130.425 86.1528C129.911 86.4464 129.489 86.9602 129.232 87.6575Z" fill="black"/>
<path d="M133.343 126.761C135.673 131.202 140.609 132.413 145.747 132.413L146.041 149.386C146.041 149.386 147.27 154.891 157.62 152.744C163.822 151.46 164.446 148.12 164.446 148.12C164.446 148.12 164.006 141.074 163.547 125.495C167.712 122.522 169.162 114.209 169.162 114.209C177.695 113.145 185.475 107.75 182.209 99.3827C179.897 93.4556 173.731 93.8043 169.511 95.6209C167.786 96.3733 166.373 97.3642 165.675 98.2633C165.675 98.2633 165.382 91.5105 154.647 89.0149C145.417 86.868 139.38 88.4644 136.242 94.2447C135.086 96.3549 134.334 99.034 133.948 102.264C132.774 112.099 130.994 122.247 133.343 126.761Z" fill="white"/>
<path d="M153.215 154.104C146.279 154.104 145.233 149.774 145.178 149.554C145.16 149.499 145.16 149.444 145.16 149.37L144.885 133.259C138.664 133.112 134.645 131.094 132.572 127.148C130.425 123.038 131.452 114.927 132.553 106.339C132.737 104.945 132.92 103.532 133.085 102.137C133.507 98.7242 134.278 95.99 135.489 93.788C138.774 87.6958 145.123 85.8425 154.867 88.1179C162.886 89.9896 165.4 94.1367 166.207 96.4855C167.015 95.8616 168.024 95.256 169.162 94.7606C170.758 94.0816 174.85 92.6503 178.557 94.2101C180.63 95.0725 182.135 96.6873 183.034 99.0178C184.264 102.192 184.098 105.238 182.539 107.862C180.392 111.477 175.694 114.101 169.914 114.946C169.492 116.946 167.95 123.038 164.446 125.864C164.886 140.948 165.326 147.939 165.326 148.012C165.326 148.086 165.326 148.159 165.308 148.232C165.271 148.398 164.501 152.178 157.785 153.554C156.023 153.958 154.518 154.104 153.215 154.104ZM146.903 149.242C147.087 149.811 148.646 153.664 157.418 151.866C162.39 150.838 163.381 148.508 163.528 148.012C163.473 146.93 163.051 139.718 162.629 125.497C162.629 125.203 162.757 124.928 162.996 124.744C166.831 122.01 168.244 114.12 168.262 114.028C168.336 113.643 168.629 113.349 169.015 113.312C174.465 112.633 179.052 110.211 180.979 106.982C182.263 104.816 182.392 102.357 181.346 99.6784C180.612 97.825 179.438 96.5405 177.823 95.8616C175.694 94.9624 172.685 95.1643 169.822 96.4121C168.281 97.0727 166.96 97.9902 166.336 98.7792C166.115 99.0728 165.73 99.2013 165.363 99.0912C165.014 98.9811 164.758 98.6508 164.739 98.2838C164.721 98.0452 164.28 92.1549 154.39 89.8611C145.398 87.7692 139.857 89.2923 136.957 94.6505C135.875 96.6323 135.141 99.2196 134.755 102.357C134.59 103.752 134.407 105.165 134.223 106.56C133.214 114.505 132.15 122.708 134.04 126.323C135.856 129.809 139.636 131.497 145.582 131.497C145.6 131.497 145.637 131.497 145.655 131.497C146.132 131.497 146.536 131.883 146.536 132.36L146.903 149.242Z" fill="black"/>
<path d="M142.83 115.568C142.555 115.568 142.28 115.439 142.114 115.201C138.885 110.65 140.848 105.604 145.344 98.4472C145.601 98.0435 146.151 97.915 146.555 98.1719C146.959 98.4288 147.087 98.9793 146.83 99.383C142.059 106.998 141.197 110.87 143.546 114.191C143.821 114.595 143.729 115.146 143.344 115.421C143.197 115.513 143.014 115.568 142.83 115.568Z" fill="black"/>
<path d="M158.536 102.302C159.135 102.196 159.535 101.625 159.43 101.027C159.324 100.428 158.753 100.028 158.155 100.133C157.556 100.239 157.156 100.81 157.261 101.408C157.367 102.007 157.938 102.407 158.536 102.302Z" fill="black"/>
<path d="M140.35 101.911C140.949 101.806 141.349 101.235 141.243 100.636C141.138 100.037 140.567 99.6372 139.968 99.7427C139.369 99.8481 138.969 100.419 139.075 101.018C139.18 101.617 139.751 102.017 140.35 101.911Z" fill="black"/>
<path d="M150.958 120.194C153.233 120.377 155.032 118.56 154.738 116.285C154.591 115.166 156.335 114.854 156.481 115.973C156.922 119.386 154.261 122.23 150.811 121.937C149.674 121.845 149.839 120.083 150.958 120.194Z" fill="black"/>
<path d="M156.996 95.4733C157.18 94.9962 157.675 94.8127 158.134 94.9595C158.611 95.088 159.088 95.2348 159.547 95.3632C160.005 95.4917 160.226 96.0789 160.06 96.5009C159.877 96.978 159.382 97.1615 158.923 97.0147C158.446 96.8863 157.969 96.7395 157.51 96.611C157.051 96.4642 156.831 95.8953 156.996 95.4733Z" fill="black"/>
<path d="M140.756 94.024L141.839 93.8405C142.958 93.6386 143.27 95.3819 142.151 95.5837L141.068 95.7672C139.949 95.9507 139.637 94.2075 140.756 94.024Z" fill="black"/>
<path d="M168.501 107.586C168.409 107.586 168.336 107.568 168.244 107.549C167.785 107.402 167.51 106.925 167.657 106.448C168.317 104.228 171.932 100.062 175.676 100.062C175.712 100.062 175.749 100.062 175.786 100.062C176.263 100.081 176.667 100.485 176.648 100.962C176.63 101.457 176.19 101.861 175.749 101.824C175.731 101.824 175.694 101.824 175.676 101.824C172.795 101.824 169.804 105.457 169.363 106.944C169.235 107.329 168.886 107.586 168.501 107.586Z" fill="black"/>
<path d="M114.866 213.514C114.627 213.514 114.37 213.404 114.205 213.221C111.893 210.578 100.883 210.321 96.8275 210.432H96.8092C96.3321 210.432 95.9467 210.046 95.9284 209.569C95.91 209.092 96.2954 208.67 96.7908 208.67C98.3689 208.633 112.278 208.321 115.545 212.046C115.856 212.413 115.82 212.964 115.453 213.294C115.288 213.441 115.086 213.514 114.866 213.514Z" fill="black"/>
<path d="M94.9365 251.596C90.7527 251.596 86.7524 250.366 83.4678 247.522C78.8803 243.558 74.7882 234.915 70.6044 220.327C68.6777 213.574 67.0078 206.565 65.3747 199.775C64.8425 197.518 64.3104 195.334 63.7966 193.224C62.9892 189.701 62.8791 189.352 62.4387 187.866C62.2735 187.279 62.0533 186.526 61.723 185.352C61.4661 184.471 61.1725 183.352 60.7688 181.884C58.732 174.434 55.9611 167.516 54.1261 162.947C53.4655 161.314 52.9517 160.011 52.6581 159.167C52.3829 158.451 51.6122 156.726 50.713 154.726C47.8137 148.267 45.208 142.303 44.9695 140.266C44.786 138.633 45.4282 137.826 45.9787 137.44C46.8045 136.871 47.8871 136.89 48.7312 137.036C48.7129 136.853 48.7129 136.706 48.7129 136.559C48.6945 135.165 49.4102 134.064 50.658 133.513C51.392 133.183 52.2544 133.073 53.0251 133.165C53.0985 131.788 53.8692 130.614 55.1904 130.045C57.8145 128.907 59.5027 131.128 63.5947 137.862C62.0533 133.789 61.1542 130.43 62.09 128.485C62.457 127.715 63.0993 127.183 63.9617 126.944C67.2831 125.99 70.2007 132.853 73.9258 142.652C75.0818 145.661 76.1645 148.524 76.8801 149.698C77.7059 149.643 79.9079 149.056 80.9905 144.652C83.0457 136.413 84.055 134.706 86.7524 134.981C89.3765 135.275 89.1012 139.33 88.6241 146.065C88.1837 152.23 87.5965 160.653 89.1746 168.635C89.5783 170.654 90.1839 173.847 90.9179 177.7C93.5786 191.701 98.0377 215.116 100.276 222.07C100.423 222.529 100.166 223.025 99.7075 223.171C99.2488 223.318 98.7533 223.061 98.6065 222.603C96.3495 215.538 91.8721 192.05 89.2113 178.012C88.4773 174.159 87.8718 170.966 87.4681 168.947C85.8349 160.745 86.4405 152.175 86.8809 145.918C87.1561 142.083 87.5231 136.816 86.5873 136.706C85.6147 136.596 84.844 136.523 82.7154 145.055C80.9722 152.083 76.4764 151.441 76.2746 151.405C76.0544 151.368 75.8709 151.258 75.7241 151.093C74.8433 150.01 73.7239 147.037 72.2743 143.257C70.3842 138.321 66.494 128.045 64.4388 128.614C64.0718 128.724 63.8333 128.907 63.6681 129.219C62.6956 131.22 65.026 136.816 67.2647 142.23C67.9437 143.881 68.641 145.588 69.2832 147.239C69.4484 147.661 69.2649 148.138 68.8428 148.34C68.4391 148.542 67.9437 148.395 67.7051 148.01C66.1454 145.477 64.8058 143.257 63.6498 141.33C58.8971 133.44 57.319 130.981 55.8877 131.605C54.9335 132.027 54.5482 133.018 54.9152 134.174C55.0253 134.559 54.8785 134.963 54.5482 135.183C54.2179 135.403 53.7775 135.348 53.4839 135.091C53.282 134.89 52.2544 134.688 51.3736 135.091C50.7681 135.367 50.4745 135.825 50.4745 136.486C50.4928 136.871 50.5112 137.422 50.6396 138.027C50.713 138.358 50.5846 138.706 50.3093 138.908C50.0341 139.11 49.6671 139.147 49.3735 139C49.0065 138.835 47.5568 138.449 46.9696 138.853C46.6577 139.073 46.6577 139.605 46.7127 140.028C46.9329 141.954 50.291 149.459 52.3095 153.955C53.2453 156.065 53.9977 157.717 54.2913 158.506C54.5849 159.35 55.0987 160.635 55.7409 162.249C57.5943 166.855 60.3835 173.828 62.4387 181.388C62.8424 182.856 63.1543 183.976 63.3929 184.857C63.7232 186.031 63.9434 186.765 64.1085 187.352C64.5489 188.839 64.659 189.242 65.4848 192.802C65.9986 194.894 66.5307 197.096 67.0629 199.353C68.6777 206.124 70.3475 213.116 72.2743 219.832C76.348 234.09 80.2565 242.457 84.5871 246.182C92.8813 253.339 106.314 249.137 114.516 240.934C114.865 240.586 115.415 240.586 115.764 240.934C116.112 241.283 116.112 241.833 115.764 242.182C110.204 247.779 102.277 251.596 94.9365 251.596Z" fill="black"/>
<path d="M76.6979 150.031C77.7439 149.627 78.5696 151.187 77.5053 151.591C72.1104 153.683 69.3212 159.041 70.7342 164.674C71.0094 165.775 69.2845 166.142 69.0093 165.041C67.4128 158.729 70.5874 152.398 76.6979 150.031Z" fill="black"/>
<path d="M62.5848 151.196C62.2729 151.196 61.9609 151.031 61.8141 150.737L53.2997 134.865C53.0612 134.442 53.2263 133.91 53.6667 133.672C54.0888 133.433 54.6393 133.598 54.8595 134.039L63.3739 149.893C63.6124 150.315 63.4473 150.847 63.0069 151.086C62.8784 151.159 62.7316 151.196 62.5848 151.196Z" fill="black"/>
<path d="M57.5956 154.432C57.2836 154.432 56.9717 154.266 56.8249 153.973L48.3105 138.118C48.0719 137.696 48.2371 137.164 48.6775 136.926C49.0995 136.687 49.65 136.852 49.8702 137.293L58.3846 153.147C58.6232 153.569 58.458 154.101 58.0176 154.34C57.8892 154.395 57.7424 154.432 57.5956 154.432Z" fill="black"/>
<path d="M46.4744 159.31C45.1532 157.108 43.832 154.906 42.5108 152.704C41.9236 151.731 40.4006 152.612 40.9878 153.585C42.309 155.787 43.6302 157.989 44.9514 160.191C45.5386 161.182 47.0616 160.282 46.4744 159.31Z" fill="black"/>
<path d="M95.5232 140.158C95.1195 142.8 94.7158 145.461 94.3121 148.103C94.147 149.204 95.8352 149.7 96.0187 148.58C96.4224 145.938 96.8261 143.277 97.2298 140.635C97.3766 139.515 95.6884 139.038 95.5232 140.158Z" fill="black"/>
<path d="M96.807 213.083C96.3482 213.083 95.9628 212.734 95.9261 212.257C95.9078 212.055 94.6233 192.146 96.3666 174.218C98.0731 156.638 105.652 148.748 146.022 148.473C146.499 148.473 146.902 148.858 146.902 149.353C146.902 149.849 146.517 150.234 146.022 150.234C106.771 150.491 99.743 157.574 98.1098 174.383C96.3666 192.164 97.651 211.927 97.6694 212.129C97.7061 212.606 97.3391 213.028 96.8436 213.065C96.8436 213.083 96.8253 213.083 96.807 213.083Z" fill="black"/>
<path d="M213.549 254.501C213.072 254.501 212.686 254.116 212.668 253.639C212.668 253.345 212.063 224.847 210.851 198.809C210.191 184.753 209.475 174.935 208.723 169.596C207.09 158.237 197.768 151.723 180.189 149.686C175.638 149.154 170.481 148.934 164.444 148.989C163.967 148.989 163.563 148.603 163.563 148.108C163.563 147.612 163.949 147.227 164.444 147.227C170.555 147.172 175.785 147.392 180.409 147.943C198.887 150.09 208.723 157.099 210.484 169.357C211.255 174.752 211.971 184.643 212.631 198.735C213.842 224.792 214.448 253.327 214.448 253.602C214.448 254.079 214.063 254.483 213.549 254.501C213.567 254.501 213.567 254.501 213.549 254.501Z" fill="black"/>
<path d="M191.531 254.5C191.072 254.5 190.668 254.133 190.65 253.655L187.127 186.256C187.108 185.779 187.475 185.357 187.952 185.338C188.429 185.302 188.852 185.687 188.87 186.164L192.393 253.564C192.411 254.041 192.044 254.463 191.567 254.481C191.567 254.5 191.549 254.5 191.531 254.5Z" fill="black"/>
<path d="M115.304 254.502C114.826 254.502 114.423 254.117 114.423 253.639L113.542 184.919C113.542 184.423 113.927 184.038 114.404 184.02C114.9 184.02 115.285 184.405 115.304 184.882L116.184 253.603C116.203 254.098 115.817 254.484 115.304 254.502C115.322 254.502 115.322 254.502 115.304 254.502Z" fill="black"/>
<path d="M201.311 215.945C197.66 215.945 193.66 215.321 189.145 214.385C188.668 214.293 188.356 213.816 188.466 213.339C188.558 212.862 189.035 212.55 189.512 212.66C198.541 214.568 205.348 215.082 211.386 211.871C211.808 211.632 212.34 211.798 212.578 212.238C212.799 212.66 212.652 213.192 212.211 213.431C208.817 215.229 205.257 215.945 201.311 215.945Z" fill="black"/>
<path d="M144.389 144.809L140.426 149.653L150.555 162.865L154.959 152.736L144.389 144.809Z" fill="white"/>
<path d="M150.555 163.744C150.28 163.744 150.023 163.616 149.858 163.396L139.729 150.184C139.472 149.853 139.49 149.413 139.747 149.083L143.711 144.238C144.004 143.871 144.536 143.816 144.922 144.091L155.491 152.019C155.822 152.257 155.932 152.698 155.767 153.083L151.363 163.212C151.234 163.506 150.977 163.689 150.665 163.744C150.629 163.744 150.592 163.744 150.555 163.744ZM141.545 149.67L150.335 161.138L153.858 153.009L144.536 146.018L141.545 149.67Z" fill="black"/>
<path d="M154.957 152.732L161.123 162.421L169.05 148.328L165.086 143.043L154.957 152.732Z" fill="white"/>
<path d="M161.123 163.303C160.829 163.303 160.536 163.156 160.37 162.899L154.205 153.21C153.985 152.862 154.04 152.385 154.333 152.109L164.463 142.421C164.646 142.255 164.903 142.164 165.141 142.182C165.398 142.2 165.619 142.329 165.765 142.531L169.729 147.815C169.931 148.091 169.968 148.476 169.784 148.77L161.857 162.862C161.71 163.138 161.416 163.303 161.104 163.303C161.141 163.303 161.141 163.303 161.123 163.303ZM156.095 152.862L161.086 160.697L168.004 148.384L164.976 144.347L156.095 152.862Z" fill="black"/>
<path d="M154.959 185.766C154.463 185.766 154.078 185.381 154.078 184.885V152.736C154.078 152.241 154.463 151.855 154.959 151.855C155.454 151.855 155.84 152.241 155.84 152.736V184.904C155.84 185.381 155.454 185.766 154.959 185.766Z" fill="black"/>
<path d="M114.348 152.074C113.981 152.46 113.558 152.79 113.118 153.102C112.714 153.377 112.256 153.579 111.797 153.689V184.902C111.797 187.343 113.76 189.306 116.201 189.306C118.641 189.306 120.605 187.343 120.605 184.902V152.074H114.348Z" fill="black"/>
<path d="M188.483 149.652H182.263V184.903C182.263 187.343 184.226 189.307 186.667 189.307C189.107 189.307 191.071 187.343 191.071 184.903V150.643C190.135 150.551 189.254 150.203 188.483 149.652Z" fill="black"/>
<path d="M114.864 189.01V210.149C114.864 211.286 116.626 211.286 116.626 210.149V189.01C116.626 187.872 114.864 187.872 114.864 189.01Z" fill="black"/>
<path d="M186.025 188.92L187.052 210.041C187.107 211.179 188.869 211.087 188.814 209.949L187.786 188.828C187.731 187.691 185.97 187.782 186.025 188.92Z" fill="black"/>
</g>
<defs>
<clipPath id="clip0_547_14645">
<rect width="297" height="253" fill="white"/>
</clipPath>
</defs>
</svg>
