<svg width="113" height="17" viewBox="0 0 113 17" fill="none" xmlns="http://www.w3.org/2000/svg">
<path d="M15.6657 10.2539C14.8836 14.2118 11.7789 16.8662 7.93948 16.8662C3.17579 16.8662 0 13.5245 0 8.50011C0 3.47572 3.17579 0.134033 7.93948 0.134033C11.6604 0.134033 14.7414 2.62253 15.5946 6.36712H13.509C12.7743 3.76012 10.5465 2.03003 7.93948 2.03003C4.45559 2.03003 2.13299 4.61332 2.13299 8.50011C2.13299 12.3869 4.45559 14.9702 7.93948 14.9702C10.7124 14.9702 12.9876 13.0742 13.6038 10.2539H15.6657Z" fill="black"/>
<path fill-rule="evenodd" clip-rule="evenodd" d="M32.6489 16.6292H30.3737L28.217 11.2019H21.5336L19.3769 16.6292H17.1017L23.7851 0.371032H25.9655L32.6489 16.6292ZM24.8753 2.81213L22.292 9.30591H27.4586L24.8753 2.81213Z" fill="black"/>
<path fill-rule="evenodd" clip-rule="evenodd" d="M37.7342 16.6292H35.6012V0.371032H42.6401C45.5078 0.371032 47.4038 2.07743 47.4038 4.61332C47.4038 6.84112 45.887 8.52381 43.5881 8.80821L48.4466 16.6292H45.9344L41.0996 8.85561H37.7342V16.6292ZM37.7342 2.26703V6.95961H42.6401C44.228 6.95961 45.2708 6.01162 45.2708 4.61332C45.2708 3.21502 44.228 2.26703 42.6401 2.26703H37.7342Z" fill="black"/>
<path d="M62.6532 16.6292H52.1541V0.371032H62.6532V2.26703H54.2871V6.95961H61.8V8.85561H54.2871V14.7332H62.6532V16.6292Z" fill="black"/>
<path d="M76.7065 16.6292H66.2074V0.371032H76.7065V2.26703H68.3404V6.95961H75.8533V8.85561H68.3404V14.7332H76.7065V16.6292Z" fill="black"/>
<path fill-rule="evenodd" clip-rule="evenodd" d="M82.3938 16.6292H80.2608V0.371032H87.2996C90.1673 0.371032 92.0633 2.07743 92.0633 4.61332C92.0633 6.84112 90.5465 8.52381 88.2476 8.80821L93.1061 16.6292H90.5939L85.7591 8.85561H82.3938V16.6292ZM87.2996 2.26703H82.3938V6.95961H87.2996C88.8875 6.95961 89.9303 6.01162 89.9303 4.61332C89.9303 3.21502 88.8875 2.26703 87.2996 2.26703Z" fill="black"/>
<path d="M107.313 16.6292H96.8137V0.371032H98.9467V14.7332H107.313V16.6292Z" fill="black"/>
<path d="M113 16.6292H110.867V2.34996H103.822V0.374962H110.867V0.371032H113V16.6292Z" fill="black"/>
</svg>
